<svg width="328" height="208" xmlns="http://www.w3.org/2000/svg" xmlns:xlink="http://www.w3.org/1999/xlink" xml:space="preserve" overflow="hidden"><g transform="translate(-391 -180)"><path d="M44.5638 21.8396C67.4427 21.8396 78.8822 33.2398 78.8822 56.0401 78.8822 78.7617 67.4427 90.1226 44.5638 90.1226 33.1637 90.1226 24.24 86.624 17.7931 79.6266L17.2034 87.5281 0.221125 87.5281 0.221125 0.257977 21.449 0.257977 21.449 29.6232C27.8173 24.4342 35.5223 21.8396 44.5638 21.8396ZM24.7511 68.7768C28.0532 71.8431 32.8099 73.3762 39.0209 73.3762 45.232 73.3762 49.8707 72.0789 52.937 69.4844 56.0818 66.8113 57.6543 62.3299 57.6543 56.0401 57.6543 49.7503 56.0818 45.3082 52.937 42.7137 49.8707 40.0406 45.232 38.704 39.0209 38.704 32.8099 38.704 28.0532 40.2371 24.7511 43.3034 21.5276 46.3696 19.9159 50.6152 19.9159 56.0401 19.9159 61.465 21.5276 65.7106 24.7511 68.7768ZM129.126 22.0755C142.728 22.0755 152.791 25.299 159.317 31.746 165.843 38.1143 169.027 47.8634 168.869 60.9933L109.903 60.9933C110.139 65.632 111.868 69.0913 115.092 71.3713 118.394 73.5727 123.426 74.6734 130.187 74.6734 139.7 74.6734 145.322 72.8651 147.052 69.2485L168.044 69.2485C166.864 75.5383 162.815 80.5701 155.897 84.3439 148.978 88.1178 140.133 90.0047 129.362 90.0047 123.308 90.0047 117.922 89.415 113.205 88.2357 108.488 87.135 104.242 85.3267 100.468 82.8108 96.7729 80.2949 93.9425 76.7962 91.9773 72.3148 90.0118 67.7548 89.029 62.3299 89.029 56.0401 89.029 45.033 92.449 36.6206 99.2891 30.8025 106.129 24.9845 116.075 22.0755 129.126 22.0755ZM110.257 48.7283 147.524 48.7283C146.502 40.8661 140.369 36.935 129.126 36.935 123.308 36.935 118.826 37.8785 115.682 39.7654 112.615 41.6523 110.807 44.64 110.257 48.7283ZM0.221125 205.461 0.221125 123.144 23.1 123.144 23.1 205.461 0.221125 205.461ZM34.8362 142.485 34.8362 123.144 111.256 123.144 111.256 142.485 84.4858 142.485 84.4858 205.461 61.6069 205.461 61.6069 142.485 34.8362 142.485ZM123.106 205.461 123.106 123.144 161.788 123.144C162.731 131.477 164.029 144.332 165.68 161.708 167.409 179.004 168.51 190.051 168.982 194.847L171.105 194.847C171.498 190.915 172.52 180.105 174.171 162.415 175.9 144.725 177.277 131.635 178.298 123.144L216.98 123.144 216.98 205.461 195.87 205.461 195.87 133.758 193.276 133.758C188.244 173.776 185.178 197.677 184.077 205.461L156.009 205.461C154.908 197.677 151.842 173.776 146.81 133.758L144.216 133.758 144.216 205.461 123.106 205.461ZM230.549 164.42C230.549 149.954 234.677 139.222 242.932 132.225 251.266 125.227 263.216 121.729 278.783 121.729 294.351 121.729 306.301 125.227 314.635 132.225 322.969 139.222 327.136 149.954 327.136 164.42 327.136 178.965 322.969 189.736 314.635 196.734 306.301 203.731 294.351 207.23 278.783 207.23 263.216 207.23 251.266 203.731 242.932 196.734 234.677 189.736 230.549 178.965 230.549 164.42ZM254.725 164.42C254.725 171.968 256.534 177.786 260.15 181.874 263.766 185.962 269.978 188.007 278.783 188.007 287.668 188.007 293.918 185.962 297.535 181.874 301.151 177.786 302.96 171.968 302.96 164.42 302.96 156.794 301.151 150.976 297.535 146.966 293.918 142.878 287.668 140.834 278.783 140.834 269.899 140.834 263.648 142.878 260.032 146.966 256.494 150.976 254.725 156.794 254.725 164.42Z" transform="matrix(1 0 0 1.00336 391 180)"/></g></svg>