<svg width="288" height="751" viewBox="0 0 288 751" fill="none" xmlns="http://www.w3.org/2000/svg">
<g clip-path="url(#clip0_4_4)">
<path d="M137.281 210.806H187.768H194.376H244.937L275.75 751H198.756H183.388H106.469L137.281 210.806Z" fill="#E8E7E5"/>
<path d="M133.643 257.585H247.907V261.447H133.643V257.585Z" fill="#939AA3"/>
<path d="M217.467 746.248L208.26 210.806H244.938L275.453 746.248H217.467Z" fill="#263F5C"/>
<path d="M273.671 565.292L288 633.605L258.153 636.278L273.671 565.292Z" fill="#002142"/>
<path d="M15.072 629.447H251.174V750.926H15.072V629.447Z" fill="#E8E7E5"/>
<path d="M251.174 629.224H277.086V751H251.174V629.224Z" fill="#94A0AC"/>
<path d="M245.309 209.543C248.724 192.539 268.325 181.104 268.548 180.956L265.207 176.203C264.316 176.723 243.601 188.752 239.666 208.355L245.309 209.543Z" fill="#002142"/>
<path d="M136.464 209.543L142.107 208.43C138.172 188.827 117.383 176.798 116.566 176.278L112.408 180.882C112.557 180.956 133.049 192.539 136.464 209.543Z" fill="#002142"/>
<path d="M244.344 211.771L243.378 180.362H137.429L136.538 211.771H244.344Z" fill="#263F5C"/>
<path d="M244.344 211.771L221.105 211.548L219.248 180.139L243.378 180.362L244.344 211.771Z" fill="#263F5C"/>
<path d="M149.531 47.9677H233.207V107.148H149.531V47.9677Z" fill="#C4CBD5"/>
<path d="M189.698 111.38H193.039C202.097 111.38 209.522 103.955 209.522 94.896V82.1986C209.522 73.1397 202.097 65.7144 193.039 65.7144H189.698C180.64 65.7144 173.216 73.1397 173.216 82.1986V94.896C173.216 103.955 180.64 111.38 189.698 111.38Z" fill="#FAFF00"/>
<path d="M225.262 48.4132H228.009V106.776H225.262V48.4132Z" fill="#263F5C"/>
<path d="M214.125 48.4132H216.872V106.776H214.125V48.4132Z" fill="#263F5C"/>
<path d="M198.831 48.4132H201.578V106.776H198.831V48.4132Z" fill="#263F5C"/>
<path d="M155.545 48.4132H158.292V106.776H155.545V48.4132Z" fill="#263F5C"/>
<path d="M166.756 48.4132H169.503V106.776H166.756V48.4132Z" fill="#263F5C"/>
<path d="M182.051 48.4132H184.798V106.776H182.051V48.4132Z" fill="#263F5C"/>
<path d="M145.819 112.717H237.513V164.174H145.819V112.717Z" fill="#263F5C"/>
<path d="M183.981 118.806H222.218V162.986H183.981V118.806Z" fill="#C4CBD5"/>
<path d="M206.107 114.87H214.571V162.912H206.107V114.87Z" fill="#263F5C"/>
<path d="M220.751 180.011L222.608 211.441L219.643 211.616L217.786 180.186L220.751 180.011Z" fill="#002142"/>
<path d="M187.991 180.139H190.96V211.548H187.991V180.139Z" fill="#002142"/>
<path d="M158.772 180.09L161.736 180.266L159.875 211.696L156.911 211.52L158.772 180.09Z" fill="#002142"/>
<path d="M112.334 162.318H268.473V180.881H112.334V162.318Z" fill="#002142"/>
<path d="M112.334 162.986H268.473V135.81H112.334V162.986ZM265.429 160.016H115.304V138.854H265.429V160.016Z" fill="#002142"/>
<path d="M143.963 113.385H241.893C244.64 113.385 246.868 111.157 246.868 108.41C246.868 105.663 244.64 103.435 241.893 103.435H143.963C141.216 103.435 138.988 105.663 138.988 108.41C138.988 111.157 141.216 113.385 143.963 113.385Z" fill="#002142"/>
<path d="M137.8 215.781H244.121C247.09 215.781 249.541 213.405 249.541 210.36C249.541 207.39 247.165 204.94 244.121 204.94H137.726C134.756 204.94 132.306 207.316 132.306 210.36C132.38 213.33 134.831 215.781 137.8 215.781Z" fill="#002142"/>
<path d="M255.257 137.295H258.227V162.021H255.257V137.295Z" fill="#002142"/>
<path d="M240.631 137.295H243.601V162.021H240.631V137.295Z" fill="#002142"/>
<path d="M226.079 137.295H229.049V162.021H226.079V137.295Z" fill="#002142"/>
<path d="M211.452 137.295H214.422V162.021H211.452V137.295Z" fill="#002142"/>
<path d="M196.826 137.295H199.796V162.021H196.826V137.295Z" fill="#002142"/>
<path d="M182.274 137.295H185.244V162.021H182.274V137.295Z" fill="#002142"/>
<path d="M167.647 137.295H170.617V162.021H167.647V137.295Z" fill="#002142"/>
<path d="M153.021 137.295H155.991V162.021H153.021V137.295Z" fill="#002142"/>
<path d="M138.469 137.295H141.438V162.021H138.469V137.295Z" fill="#002142"/>
<path d="M123.842 137.295H126.812V162.021H123.842V137.295Z" fill="#002142"/>
<path d="M140.399 105.366H245.531V73.9564H140.399V105.366ZM242.858 102.693H143.072V76.6295H242.858V102.693Z" fill="#002142"/>
<path d="M236.993 75.293H239.666V104.772H236.993V75.293Z" fill="#002142"/>
<path d="M225.782 75.293H228.455V104.772H225.782V75.293Z" fill="#002142"/>
<path d="M214.497 75.293H217.169V104.772H214.497V75.293Z" fill="#002142"/>
<path d="M203.285 75.293H205.958V104.772H203.285V75.293Z" fill="#002142"/>
<path d="M192 75.293H194.673V104.772H192V75.293Z" fill="#002142"/>
<path d="M180.715 75.293H183.388V104.772H180.715V75.293Z" fill="#002142"/>
<path d="M169.504 75.293H172.177V104.772H169.504V75.293Z" fill="#002142"/>
<path d="M158.218 75.293H160.891V104.772H158.218V75.293Z" fill="#002142"/>
<path d="M147.007 75.293H149.68V104.772H147.007V75.293Z" fill="#002142"/>
<path d="M178.042 31.632L180.046 27.9936C181.086 26.063 183.165 24.8007 185.392 24.8007H186.06V18.9346H186.209C184.056 17.4496 182.645 14.925 182.645 12.1033V8.39065C182.645 3.78693 186.432 0 191.035 0C195.638 0 199.425 3.78693 199.425 8.39065V12.1033C199.425 14.925 198.014 17.3753 195.861 18.9346H196.009V24.8007H197.049C199.425 24.8007 201.652 26.2115 202.617 28.3648L204.102 31.5577C227.044 37.7208 240.037 55.7644 240.037 55.7644H192.965H189.253H142.181C142.107 55.7644 155.1 37.795 178.042 31.632Z" fill="#263F5C"/>
<path d="M199.425 8.39059V12.1033C199.425 14.9249 198.014 17.3753 195.861 18.9346H196.009V24.8006H197.049C199.425 24.8006 201.652 26.2114 202.617 28.3648L204.102 31.5577C227.044 37.7207 240.037 55.7643 240.037 55.7643H220.585C218.729 51.6804 211.601 38.092 195.415 33.117C195.415 33.117 196.009 25.9887 191.109 25.9887V19.4544C191.109 19.4544 194.227 18.4891 194.227 10.4697C194.227 2.37606 189.253 0.222708 189.253 0.222708L189.921 -5.25564e-05C190.292 -0.0743061 190.738 -0.14856 191.109 -0.14856C195.638 -5.25564e-05 199.425 3.78688 199.425 8.39059Z" fill="#002142"/>
<path d="M158.664 476.262H143.072L143.517 398.073L158.664 399.261V476.262Z" fill="#94A0AC"/>
<path d="M147.304 410.102H158.441V414.557H147.304V410.102Z" fill="#E0E1E5"/>
<path d="M147.304 459.258H158.441V463.713H147.304V459.258Z" fill="#E0E1E5"/>
<path d="M158.218 476.262H178.784V398.519C178.784 396.514 177.151 394.954 175.22 394.954H161.782C159.777 394.954 158.218 396.588 158.218 398.519V476.262Z" fill="#D0D2DE"/>
<path d="M151.981 476.262H182.793V483.39H151.981V476.262Z" fill="#FAF0EE"/>
<path d="M162.227 400.746H178.784V470.396H162.227V400.746Z" fill="#263F5C"/>
<path d="M167.647 400.301H169.429V470.841H167.647V400.301Z" fill="#E0E1E5"/>
<path d="M174.775 400.301H176.557V470.841H174.775V400.301Z" fill="#E0E1E5"/>
<path d="M162.227 416.042H179.675V417.824H162.227V416.042Z" fill="#E0E1E5"/>
<path d="M162.227 434.903H178.784V436.685H162.227V434.903Z" fill="#E0E1E5"/>
<path d="M162.227 453.392H179.081V455.174H162.227V453.392Z" fill="#E0E1E5"/>
<path d="M144.037 57.1009H238.107C239.22 57.1009 240.186 56.1356 240.186 55.0218C240.186 53.908 239.22 52.9427 238.107 52.9427H144.037C142.923 52.9427 141.958 53.908 141.958 55.0218C141.958 56.1356 142.923 57.1009 144.037 57.1009Z" fill="#002142"/>
<path d="M277.086 629.447L266.84 588.533L258.153 636.278L277.086 629.447Z" fill="#94A0AC"/>
<path d="M273.671 565.292H32.4456L9.15527e-05 635.907H258.153L273.671 565.292Z" fill="#263F5C"/>
<path d="M227.935 565.292H247.981V537.892C247.981 535.813 246.274 534.105 244.195 534.105H231.722C229.643 534.105 227.935 535.813 227.935 537.892V565.292Z" fill="#94A0AC"/>
<path d="M225.782 569.45H249.244C251.026 569.45 252.51 567.965 252.51 566.183V556.307C252.51 554.525 251.026 553.04 249.244 553.04H225.782C224 553.04 222.515 554.525 222.515 556.307V566.183C222.515 567.965 223.926 569.45 225.782 569.45Z" fill="#002142"/>
<path d="M102.385 633.308H165.197V751H102.385V633.308Z" fill="#94A0AC"/>
<path d="M108.102 735.704H159.48V743.872H108.102V735.704Z" fill="#E8E7E5"/>
<path d="M116.047 633.308H151.536V735.704H116.047V633.308Z" fill="#263F5C"/>
<path d="M170.617 636.056L132.381 596.478L94.2181 636.056H170.617Z" fill="#002142"/>
<path d="M94.2182 641.476C95.2576 641.476 96.3713 641.031 97.188 640.214L132.381 603.681L167.647 640.214C169.207 641.847 171.805 641.922 173.439 640.288C175.072 638.729 175.146 636.13 173.513 634.496L132.381 591.875L91.2483 634.496C89.6892 636.13 89.6892 638.729 91.3226 640.288C92.1393 641.105 93.1787 641.476 94.2182 641.476Z" fill="#94A0AC"/>
<path d="M133.123 635.907H134.459V735.704H133.123V635.907Z" fill="#94A0AC"/>
<path d="M126.961 685.88C127.332 685.88 127.629 685.583 127.629 685.211V672.96C127.629 672.588 127.332 672.291 126.961 672.291C126.589 672.291 126.292 672.588 126.292 672.96V685.211C126.292 685.583 126.589 685.88 126.961 685.88Z" fill="#94A0AC"/>
<path d="M140.622 685.88C140.993 685.88 141.29 685.583 141.29 685.211V672.96C141.29 672.588 140.993 672.291 140.622 672.291C140.251 672.291 139.954 672.588 139.954 672.96V685.211C139.879 685.583 140.251 685.88 140.622 685.88Z" fill="#94A0AC"/>
<path d="M178.784 476.262H194.45L194.005 398.073L178.784 399.261V476.262Z" fill="#94A0AC"/>
<path d="M178.858 410.028H190.144V414.483H178.858V410.028Z" fill="#E0E1E5"/>
<path d="M178.858 459.184H190.144V463.639H178.858V459.184Z" fill="#E0E1E5"/>
</g>
<defs>
<clipPath id="clip0_4_4">
<rect width="288" height="751" fill="white" transform="matrix(-1 0 0 1 288 0)"/>
</clipPath>
</defs>
</svg>
