<?xml version="1.0" standalone="no"?>
<!DOCTYPE svg PUBLIC "-//W3C//DTD SVG 1.1//EN" "http://www.w3.org/Graphics/SVG/1.1/DTD/svg11.dtd" >
<svg xmlns="http://www.w3.org/2000/svg" xmlns:xlink="http://www.w3.org/1999/xlink" version="1.1">
<metadata>
Created by FontForge 20200314 at Fri Sep  6 23:43:06 2019
 By Unknown
Copyright (c) 2018 by . All rights reserved.
</metadata>
<defs>
<font id="ALSGorizont-ExtraBoldExpanded" horiz-adv-x="500" >
  <font-face 
    font-family="ALS Gorizont ExtraBold Expanded"
    font-weight="800"
    font-stretch="expanded"
    units-per-em="1000"
    panose-1="2 0 5 3 0 0 0 2 0 4"
    ascent="750"
    descent="-250"
    x-height="528"
    cap-height="698"
    bbox="-566 -341 1563 945"
    underline-thickness="50"
    underline-position="-200"
    unicode-range="U+0020-25CA"
  />
<missing-glyph 
 />
    <glyph glyph-name=".notdef" 
 />
    <glyph glyph-name=".null" horiz-adv-x="0" 
 />
    <glyph glyph-name="nonmarkingreturn" horiz-adv-x="333" 
 />
    <glyph glyph-name="space" unicode=" " horiz-adv-x="270" 
 />
    <glyph glyph-name="exclam" unicode="!" horiz-adv-x="370" 
d="M94 369l-7 329h183l-3 -327q0 -21 -1 -37.5t-4.5 -32t-6 -23t-8.5 -25t-9 -25.5h-113q-3 7 -9.5 25t-9 25.5t-6 22.5t-5 31t-1.5 37zM182 167q107 0 107 -92t-107 -92q-110 0 -110 92t110 92z" />
    <glyph glyph-name="quotedbl" unicode="&#x22;" horiz-adv-x="491" 
d="M217 698h-143l23 -261h97zM417 698h-143l23 -261h97z" />
    <glyph glyph-name="numbersign" unicode="#" horiz-adv-x="630" 
d="M608 385h-105l-14 -125h97v-84h-106l-13 -120h-88l13 120h-175l-13 -120h-88l13 120h-97v84h107l13 125h-98v84h108l13 120h88l-13 -120h174l13 120h88l-13 -120h96v-84zM401 260l14 125h-175l-13 -125h174z" />
    <glyph glyph-name="dollar" unicode="$" horiz-adv-x="712" 
d="M414 439q140 -7 202 -56.5t62 -143.5q0 -106 -78 -165.5t-219 -62.5l-5 -71h-90l6 75q-111 12 -174 64t-88 151l191 -1q19 -57 81 -71l11 139q-132 7 -190.5 52.5t-58.5 136.5q0 93 76.5 151t202.5 63l5 61h90l-5 -65q212 -23 249 -196h-190q-18 43 -69 58zM235 497
q0 -26 18.5 -38t70.5 -16l9 122q-98 -7 -98 -68zM392 152q111 6 111 75q0 33 -21.5 47.5t-78.5 18.5z" />
    <glyph glyph-name="percent" unicode="%" horiz-adv-x="1077" 
d="M224 263q-115 0 -169 53.5t-54 166.5t54.5 166.5t168.5 53.5t168.5 -53.5t54.5 -166.5q0 -112 -54.5 -166t-168.5 -54zM272 0l321 698h123l-321 -698h-123zM224 370q45 0 61.5 25.5t16.5 87.5q0 63 -16.5 88.5t-61.5 25.5t-61.5 -25.5t-16.5 -88.5t16.5 -88t61.5 -25z
M855 -11q-115 0 -169 53.5t-54 166.5t54.5 166.5t168.5 53.5t168.5 -53.5t54.5 -166.5q0 -112 -54.5 -166t-168.5 -54zM855 96q45 0 61.5 25.5t16.5 87.5q0 63 -16.5 88.5t-61.5 25.5t-61.5 -25.5t-16.5 -88.5t16.5 -88t61.5 -25z" />
    <glyph glyph-name="ampersand" unicode="&#x26;" horiz-adv-x="880" 
d="M383 -20q-179 0 -254.5 44t-75.5 149q0 101 92 148q31 16 74 22q-58 40 -85 75.5t-27 90.5q0 69 39.5 114.5t97.5 64t132 18.5q251 0 274 -203h-165q-10 78 -109 78q-95 0 -95 -75q0 -14 6 -28.5t12.5 -24t22.5 -23t24.5 -19.5t29.5 -20.5t28 -19.5q75 -53 179 -127
q2 36 2 61h137q0 -92 -12 -153l211 -152h-225l-51 40q-74 -60 -262 -60zM383 111q91 0 133 18q-34 24 -101.5 74t-101.5 74q-77 -26 -77 -78q0 -47 35 -67.5t112 -20.5z" />
    <glyph glyph-name="quotesingle" unicode="'" horiz-adv-x="291" 
d="M217 698h-143l23 -261h97z" />
    <glyph glyph-name="parenleft" unicode="(" horiz-adv-x="428" 
d="M80 298v80q0 100 12 165t45.5 116.5t94 77.5t156.5 33v-124q-26 -4 -46 -13t-33.5 -19t-22 -28.5t-13 -32t-6.5 -40t-2 -41t0.5 -47t0.5 -47.5v-80q0 -15 -0.5 -42t-0.5 -42t1 -38t4 -36.5t8.5 -31.5t14.5 -28.5t22 -22t31.5 -18t41.5 -9.5v-125q-77 6 -131 25t-88.5 49
t-54 78.5t-27 104.5t-7.5 136z" />
    <glyph glyph-name="parenright" unicode=")" horiz-adv-x="428" 
d="M348 298q0 -80 -7.5 -136t-27 -104.5t-54 -78.5t-88.5 -49t-131 -25v125q23 3 41.5 9.5t31.5 18t22 22t14.5 28.5t8.5 31.5t4 36.5t1 38t-0.5 42t-0.5 42v80q0 15 0.5 47.5t0.5 47t-2 41t-6.5 40t-13 32t-22 28.5t-33.5 19t-46 13v124q96 -7 156.5 -33t94 -77.5
t45.5 -116.5t12 -165v-80z" />
    <glyph glyph-name="asterisk" unicode="*" horiz-adv-x="456" 
d="M199 382l-97 70q21 24 36.5 40t32.5 30.5t25 22.5q-12 2 -34 4t-43.5 5.5t-53.5 11.5l37 114q30 -13 50 -23.5t38 -21t30 -16.5q-2 11 -7 32.5t-8 43.5t-6 55h120q-3 -33 -7 -55t-8.5 -43t-6.5 -33q11 6 29.5 17t38.5 21t50 23l36 -114q-32 -8 -54 -11.5t-43 -5.5t-33 -4
q8 -8 24.5 -22.5t32.5 -30.5t37 -40l-97 -70q-17 28 -27 47t-20 41.5t-13 29.5q-4 -9 -13 -30.5t-19 -41t-27 -46.5z" />
    <glyph glyph-name="plus" unicode="+" horiz-adv-x="600" 
d="M83 254v118h158v150h118v-150h158v-118h-158v-150h-118v150h-158z" />
    <glyph glyph-name="comma" unicode="," horiz-adv-x="313" 
d="M20 -179q96 116 118 148q3 4 3 7t-1 4.5t-3 1.5q-28 1 -49 12q-43 22 -43 79q0 43 29 67t81 24q112 0 112 -114q0 -106 -135 -231z" />
    <glyph glyph-name="hyphen" unicode="-" horiz-adv-x="575" 
d="M80 362h415v-148h-415v148z" />
    <glyph glyph-name="period" unicode="." horiz-adv-x="309" 
d="M156 167q107 0 107 -92t-107 -92q-110 0 -110 92t110 92z" />
    <glyph glyph-name="slash" unicode="/" horiz-adv-x="374" 
d="M-35 0l321 698h123l-321 -698h-123z" />
    <glyph glyph-name="zero" unicode="0" horiz-adv-x="725" 
d="M35 348q0 189 79 277t248 88q170 0 249 -88t79 -277t-79.5 -277.5t-248.5 -88.5t-248 88.5t-79 277.5zM225 348q0 -124 30 -171.5t107 -47.5t107 47.5t30 171.5t-30 171.5t-107 47.5t-107 -47.5t-30 -171.5z" />
    <glyph glyph-name="one" unicode="1" horiz-adv-x="536" 
d="M301 698h155v-698h-182v562l-239 -84l-1 129z" />
    <glyph glyph-name="two" unicode="2" horiz-adv-x="716" 
d="M35 475q22 111 108.5 171t229.5 60q308 0 308 -244q0 -50 -12 -87.5t-32 -62t-54 -44.5t-70 -34.5t-88 -32.5q-2 0 -3.5 -0.5t-3.5 -1.5q-155 -53 -180 -65l3 -11q57 13 137.5 21t128.5 8h148v-152h-617q-4 27 -4 71q0 37 19 70.5t40 54t67.5 44.5t68 33t75.5 29
q6 2 9 3.5t8 3.5t9 3q12 5 39.5 14.5t39.5 14t31 16t27 23.5t15 32t7 46q0 101 -118 101q-121 0 -139 -84h-197z" />
    <glyph glyph-name="three" unicode="3" horiz-adv-x="725" 
d="M376 -16q-142 0 -218 40q-109 58 -132 195h201q12 -84 149 -84q58 0 90 22t32 62q0 45 -30 61.5t-98 16.5h-105l34 123h92q97 0 97 75q0 82 -111 82q-121 0 -141 -83h-193q45 217 335 217q147 0 222 -52.5t75 -145.5q0 -95 -100 -136v-10q59 -17 87 -63t28 -102
q0 -101 -82 -159.5t-232 -58.5z" />
    <glyph glyph-name="four" unicode="4" horiz-adv-x="714" 
d="M2 172v85l301 441h291v-406h128l-33 -120h-95v-172h-183v172h-409zM405 611l-214 -319h220v318z" />
    <glyph glyph-name="five" unicode="5" horiz-adv-x="722" 
d="M257 397q72 55 181 55q249 0 249 -226q0 -242 -314 -242q-133 0 -216 45q-110 58 -136 190h202q4 -39 35 -58q36 -24 113 -24q124 0 124 89t-124 89q-97 0 -153 -48l-146 90l94 341h516l-42 -146h-340l-50 -153z" />
    <glyph glyph-name="six" unicode="6" horiz-adv-x="717" 
d="M359 -16q-170 0 -247 84t-77 252q0 176 86 283t261 107q126 0 201 -45t97 -150h-192q-22 61 -104 61q-83 0 -125 -59.5t-46 -150.5l12 -2q65 88 199 88q258 0 258 -227q0 -123 -80.5 -182t-242.5 -59zM359 135q68 0 99.5 22t31.5 68q0 49 -31 71t-100 22q-131 0 -131 -93
q0 -90 131 -90z" />
    <glyph glyph-name="seven" unicode="7" horiz-adv-x="590" 
d="M15 556h328l-283 -556h212l335 696l-592 2v-142z" />
    <glyph glyph-name="eight" unicode="8" horiz-adv-x="714" 
d="M168 371q-56 21 -89.5 60t-33.5 87q0 101 85.5 148.5t226.5 47.5q146 0 229.5 -47.5t83.5 -148.5q0 -48 -33.5 -87.5t-90.5 -59.5v-6q141 -49 141 -186q0 -53 -27.5 -92.5t-75.5 -62t-105 -33t-122 -10.5q-88 0 -159 18t-121 64t-50 116q0 134 141 186v6zM357 412
q123 0 123 81q0 83 -123 83q-126 0 -126 -83q0 -81 126 -81zM357 126q133 0 133 88q0 42 -29.5 65t-103.5 23q-133 0 -133 -88t133 -88z" />
    <glyph glyph-name="nine" unicode="9" horiz-adv-x="717" 
d="M335 -16q-126 0 -201 45t-97 150h192q11 -32 34.5 -46.5t69.5 -14.5q84 0 125.5 60.5t45.5 149.5l-12 2q-65 -88 -199 -88q-258 0 -258 227q0 123 80.5 182t242.5 59q170 0 247 -84t77 -252q0 -180 -86 -285t-261 -105zM358 376q131 0 131 93q0 90 -131 90
q-68 0 -99.5 -22t-31.5 -68q0 -49 31 -71t100 -22z" />
    <glyph glyph-name="colon" unicode=":" horiz-adv-x="309" 
d="M156 557q107 0 107 -92t-107 -92q-110 0 -110 92t110 92zM156 167q107 0 107 -92t-107 -92q-110 0 -110 92t110 92z" />
    <glyph glyph-name="semicolon" unicode=";" horiz-adv-x="329" 
d="M150 557q107 0 107 -92t-107 -92q-110 0 -110 92t110 92zM36 -179q96 116 118 148q3 4 3 7t-1 4.5t-3 1.5q-28 1 -49 12q-43 22 -43 79q0 43 29 67t81 24q112 0 112 -114q0 -106 -135 -231z" />
    <glyph glyph-name="less" unicode="&#x3c;" horiz-adv-x="600" 
d="M495 49l-377 228v71l377 228l57 -127l-230 -136l230 -137z" />
    <glyph glyph-name="equal" unicode="=" horiz-adv-x="600" 
d="M83 359v118h433v-118h-433zM84 149v118h433v-118h-433z" />
    <glyph glyph-name="greater" unicode="&#x3e;" horiz-adv-x="600" 
d="M175 49l-57 127l230 137l-230 136l57 127l377 -228v-71z" />
    <glyph glyph-name="question" unicode="?" horiz-adv-x="675" 
d="M207 202v52q0 24 7 42.5t15 30.5t29 24.5t34 18.5t45 19q58 24 74 44q15 19 15 52q0 90 -101 90q-106 0 -134 -69h-185q30 102 106.5 153t209.5 51q139 0 213 -53.5t74 -160.5q0 -90 -52 -142q-32 -31 -93 -52q-29 -11 -44.5 -18t-29 -22.5t-13.5 -35.5v-24h-170z
M301 167q107 0 107 -92t-107 -92q-110 0 -110 92t110 92z" />
    <glyph glyph-name="at" unicode="@" horiz-adv-x="1116" 
d="M556 -122q-250 0 -378 113.5t-128 334.5t128 334t378 113q251 0 379 -112.5t128 -334.5q0 -131 -66 -195t-177 -64q-130 0 -143 102q-58 -58 -160 -58q-104 0 -159.5 56.5t-55.5 161.5q0 97 57 152.5t158 59.5q87 3 145 -47v41h130v-301q0 -35 10 -50t32 -15q75 0 75 157
q0 177 -84.5 254.5t-268.5 77.5q-181 0 -263.5 -78t-82.5 -254t82.5 -254t263.5 -78q115 0 240 19v-111q-120 -24 -240 -24zM551 225q55 0 85.5 27t30.5 77t-30 77t-86 27t-82 -25.5t-26 -78.5q0 -104 108 -104z" />
    <glyph glyph-name="A" unicode="A" horiz-adv-x="796" 
d="M587 0l-38 129h-304l-38 -129h-205l233 698h326l233 -698h-207zM286 267h222l-42 144q-14 52 -54 197h-29q-8 -32 -26.5 -97.5t-27.5 -99.5z" />
    <glyph glyph-name="B" unicode="B" horiz-adv-x="762" 
d="M602 368q56 -16 88 -57.5t32 -105.5q0 -44 -12 -79t-39.5 -64.5t-80 -45.5t-127.5 -16h-383l1 1v697h365q141 0 201 -40.5t60 -132.5q0 -49 -27.5 -87.5t-77.5 -59.5v-10zM438 562h-163v-139h163q40 0 57.5 17t17.5 52q0 37 -17 53.5t-58 16.5zM447 144q75 0 75 73
t-75 73h-172v-146h172z" />
    <glyph glyph-name="C" unicode="C" horiz-adv-x="880" 
d="M445 -14q-410 0 -410 362q0 184 105.5 273t304.5 89q345 0 399 -260l-209 1q-40 98 -190 98q-113 0 -159 -51.5t-46 -148.5q0 -98 46 -149.5t159 -51.5q150 0 191 103h209q-51 -265 -400 -265z" />
    <glyph glyph-name="D" unicode="D" horiz-adv-x="847" 
d="M407 698q209 0 307 -80t98 -269q0 -182 -99.5 -265.5t-307.5 -83.5h-325v698h327zM397 153q116 0 167.5 45t51.5 151q0 105 -51.5 150.5t-167.5 45.5h-123v-392h123z" />
    <glyph glyph-name="E" unicode="E" horiz-adv-x="714" 
d="M648 538h-374v-110h366v-151h-366v-117h374v-160h-568v698h568v-160z" />
    <glyph glyph-name="F" unicode="F" horiz-adv-x="688" 
d="M648 538h-374v-125h368v-153h-368v-260h-194v698h568v-160z" />
    <glyph glyph-name="G" unicode="G" horiz-adv-x="881" 
d="M844 359q2 -26 2 -39q0 -335 -402 -335q-200 0 -304.5 86.5t-104.5 273.5q0 365 409 365q346 0 400 -260h-210q-40 98 -190 98q-113 0 -158.5 -52.5t-45.5 -150.5q0 -97 45.5 -147t158.5 -50q183 0 204 110h-217l36 101h377z" />
    <glyph glyph-name="H" unicode="H" horiz-adv-x="845" 
d="M571 698h194v-698h-194v272h-297v-272h-194v698h194v-262h297v262z" />
    <glyph glyph-name="I" unicode="I" horiz-adv-x="354" 
d="M80 0v698h194v-698h-194z" />
    <glyph glyph-name="J" unicode="J" horiz-adv-x="677" 
d="M0 214h205q9 -75 101 -75q56 0 78 23t22 81v455h196v-430q0 -154 -72 -218.5t-224 -64.5q-279 0 -306 229z" />
    <glyph glyph-name="K" unicode="K" horiz-adv-x="756" 
d="M540 0l-181 263l-85 -97v-166h-194v698h194v-309q37 48 86 107l170 202h209l-256 -293l278 -405h-221z" />
    <glyph glyph-name="L" unicode="L" horiz-adv-x="638" 
d="M274 162h354v-162h-548v698h194v-536z" />
    <glyph glyph-name="M" unicode="M" horiz-adv-x="956" 
d="M80 0v698h328q12 -106 33.5 -326.5t27.5 -281.5h18q5 50 26.5 275t34.5 333h328v-698h-179v608h-22q-64 -509 -78 -608h-238q-14 99 -78 608h-22v-608h-179z" />
    <glyph glyph-name="N" unicode="N" horiz-adv-x="825" 
d="M80 0v698h330q93 -398 109 -461q18 -76 30 -147h23v608h173v-698h-329q-21 83 -57 237.5t-53 222.5q-17 73 -30 148h-23v-608h-173z" />
    <glyph glyph-name="O" unicode="O" horiz-adv-x="889" 
d="M35 348q0 184 105.5 273t303.5 89t304 -89t106 -273q0 -185 -106 -274t-304 -89t-303.5 89t-105.5 274zM240 348q0 -96 46 -148t158 -52q113 0 159 52t46 148q0 97 -46 148.5t-159 51.5t-158.5 -51.5t-45.5 -148.5z" />
    <glyph glyph-name="P" unicode="P" horiz-adv-x="768" 
d="M486 698q263 0 263 -236q0 -127 -70.5 -182t-211.5 -55h-193v-225h-194v698h406zM463 375q87 0 87 87q0 86 -87 86h-189v-173h189z" />
    <glyph glyph-name="Q" unicode="Q" horiz-adv-x="889" 
d="M854 348q0 -235 -175 -318l166 -160h-243l-122 116q-12 -1 -36 -1q-198 0 -303.5 89t-105.5 274q0 184 105.5 273t303.5 89t304 -89t106 -273zM240 348q0 -96 46 -148t158 -52q113 0 159 52t46 148q0 97 -46 148.5t-159 51.5t-158.5 -51.5t-45.5 -148.5z" />
    <glyph glyph-name="R" unicode="R" horiz-adv-x="783" 
d="M544 0l-134 239h-136v-239h-194v698h404q262 0 262 -236q0 -149 -136 -199l152 -263h-218zM274 548v-173h172q57 0 80 21.5t23 65.5q0 86 -87 86h-188z" />
    <glyph glyph-name="S" unicode="S" horiz-adv-x="737" 
d="M388 -13q-306 0 -355 229h216q12 -35 45.5 -52.5t101.5 -17.5q58 0 93.5 17.5t35.5 54.5t-28 49t-84 14q-24 1 -66 1q-47 0 -84.5 4.5t-77 17.5t-66 35t-43.5 59.5t-17 88.5q0 73 47 125t115 74t148 22q300 0 347 -215h-207q-26 67 -140 67q-54 0 -87.5 -18.5
t-33.5 -47.5q0 -34 31.5 -45.5t108.5 -11.5h46q62 0 110 -9.5t89 -32.5t63 -66t22 -105q0 -119 -92 -178t-238 -59z" />
    <glyph glyph-name="T" unicode="T" horiz-adv-x="688" 
d="M20 534v164h648v-164h-227v-534h-194v534h-227z" />
    <glyph glyph-name="U" unicode="U" horiz-adv-x="807" 
d="M70 276v422h194v-417q0 -73 30.5 -109.5t111.5 -36.5q80 0 109.5 37t29.5 111v415h192v-422q0 -152 -83 -222.5t-250 -70.5q-168 0 -251 70.5t-83 222.5z" />
    <glyph glyph-name="V" unicode="V" horiz-adv-x="784" 
d="M583 698h205l-233 -698h-326l-233 698h207l121 -411q14 -52 54 -197h29q8 32 26.5 97.5t27.5 99.5z" />
    <glyph glyph-name="W" unicode="W" horiz-adv-x="955" 
d="M121 0l-94 698h190q12 -96 21.5 -190.5t13.5 -136.5t12 -152t10 -129h19q3 27 17.5 169t27.5 261t22 178h240q9 -59 22 -178t27.5 -261t17.5 -169h19q5 54 13.5 168.5t18.5 216t25 223.5h190l-94 -698h-287l-63 608h-18l-63 -608h-287z" />
    <glyph glyph-name="X" unicode="X" horiz-adv-x="739" 
d="M742 0h-227l-153 215l-153 -215h-212l264 355l-254 343h224l147 -207l147 207h206l-255 -340z" />
    <glyph glyph-name="Y" unicode="Y" horiz-adv-x="713" 
d="M728 698l-273 -442v-256h-196v256l-273 442h204q100 -166 156 -273h21q25 48 64 116t66 113l27 44h204z" />
    <glyph glyph-name="Z" unicode="Z" horiz-adv-x="708" 
d="M63 0v116l220 255q82 95 156 165l-3 8q-70 -4 -247 -4h-141v158h616v-116l-220 -257q-71 -84 -159 -164l3 -7q90 4 230 4h154v-158h-609z" />
    <glyph glyph-name="bracketleft" unicode="[" horiz-adv-x="357" 
d="M80 -94h252v124l-93 1v615h93v124h-252v-864z" />
    <glyph glyph-name="backslash" unicode="\" horiz-adv-x="374" 
d="M286 0l-321 698h123l321 -698h-123z" />
    <glyph glyph-name="bracketright" unicode="]" horiz-adv-x="357" 
d="M277 -94v864h-252v-124h93v-615l-93 -1v-124h252z" />
    <glyph glyph-name="asciicircum" unicode="^" horiz-adv-x="600" 
d="M401 332l-101 172l-102 -172h-161l227 376h71l227 -376h-161z" />
    <glyph glyph-name="underscore" unicode="_" horiz-adv-x="631" 
d="M0 -179h631v-128h-631v128z" />
    <glyph glyph-name="grave" unicode="`" horiz-adv-x="600" 
d="M367 729h-125l-188 147h183z" />
    <glyph glyph-name="a" unicode="a" horiz-adv-x="735" 
d="M361 555q145 0 219.5 -55t74.5 -191v-309h-148l-9 56q-34 -38 -91.5 -57.5t-120.5 -19.5q-110 0 -172.5 45t-62.5 139q0 42 15 73.5t39.5 50t60.5 30t72 15t81 3.5h166q-1 51 -31 74t-94 23q-111 0 -131 -54h-170q52 177 302 177zM331 94q64 0 109 27.5t45 89.5v23h-128
q-70 0 -99 -15.5t-29 -53.5q0 -71 102 -71z" />
    <glyph glyph-name="b" unicode="b" horiz-adv-x="790" 
d="M456 557q291 0 291 -290q0 -289 -291 -289q-145 0 -227 89l-5 -67h-144v740h180v-249q81 66 196 66zM409 120q79 0 118.5 33.5t39.5 113.5t-39.5 113.5t-118.5 33.5t-120.5 -39t-41.5 -108t41.5 -108t120.5 -39z" />
    <glyph glyph-name="c" unicode="c" horiz-adv-x="763" 
d="M385 -23q-165 0 -253.5 71.5t-88.5 219.5t88.5 220t253.5 72q151 0 234.5 -54t105.5 -170h-185q-24 81 -155 81q-90 0 -126.5 -37t-36.5 -112t36.5 -111.5t126.5 -36.5q131 0 155 81h185q-22 -117 -105 -170.5t-235 -53.5z" />
    <glyph glyph-name="d" unicode="d" horiz-adv-x="795" 
d="M535 740h180v-740h-144l-7 79q-76 -102 -234 -102q-135 0 -211 74t-76 219q0 141 78.5 214t208.5 73q128 0 205 -68v251zM378 120q81 0 123.5 40t42.5 107t-42.5 106.5t-123.5 39.5q-156 0 -156 -146q0 -147 156 -147z" />
    <glyph glyph-name="e" unicode="e" horiz-adv-x="758" 
d="M383 555q173 0 256 -81.5t81 -248.5h-500q3 -59 44.5 -87.5t127.5 -28.5q121 0 143 46h178q-15 -80 -103 -128t-225 -48q-77 0 -137 14.5t-107.5 46.5t-72.5 89.5t-25 137.5q0 140 87 214t253 74zM223 329h316q-13 100 -156 100q-74 0 -113.5 -24t-46.5 -76z" />
    <glyph glyph-name="f" unicode="f" horiz-adv-x="553" 
d="M20 404v130h139q11 124 88 170t239 46h53v-136h-69q-75 0 -103.5 -19t-30.5 -61h203v-130h-203v-404h-180v404h-136z" />
    <glyph glyph-name="g" unicode="g" horiz-adv-x="799" 
d="M571 534h148v-455q0 -167 -70.5 -238t-257.5 -71q-139 0 -215.5 43t-108.5 141h183q37 -60 141 -60q84 0 117 31t33 103v19q-73 -53 -185 -53q-300 0 -300 280q0 281 300 281q133 0 211 -76zM392 133q83 0 121.5 38t38.5 102q0 139 -160 139q-158 0 -158 -138
q0 -141 158 -141z" />
    <glyph glyph-name="h" unicode="h" horiz-adv-x="791" 
d="M458 555q129 0 191 -61.5t62 -210.5v-283h-180v279q0 69 -32.5 98.5t-102.5 29.5q-136 0 -136 -125v-282h-180v740h180v-248q70 63 198 63z" />
    <glyph glyph-name="i" unicode="i" horiz-adv-x="338" 
d="M70 675q0 84 99 84t99 -84t-99 -84t-99 84zM80 0v534h180v-534h-180z" />
    <glyph glyph-name="j" unicode="j" horiz-adv-x="342" 
d="M171 588q-47 0 -73.5 22t-26.5 64t26.5 64t73.5 22q48 0 74.5 -22t26.5 -64t-26.5 -64t-74.5 -22zM-62 -200v129h11q87 0 109.5 19.5t22.5 92.5l1 493h180l-1 -497q0 -76 -14.5 -122.5t-50.5 -72t-84.5 -34t-129.5 -8.5h-44z" />
    <glyph glyph-name="k" unicode="k" horiz-adv-x="706" 
d="M500 0l-146 182l-94 -93v-89h-180v740h180v-454l82 81l163 161h198l-231 -229l234 -299h-206z" />
    <glyph glyph-name="l" unicode="l" horiz-adv-x="340" 
d="M80 0v740h180v-740h-180z" />
    <glyph glyph-name="m" unicode="m" horiz-adv-x="1120" 
d="M834 554q98 0 152 -50t54 -165v-339h-180v305q0 59 -24 82.5t-77 24.5q-58 0 -83.5 -27t-25.5 -80v-305h-180v305q0 59 -24 83t-77 24q-58 0 -83.5 -27t-25.5 -80v-305h-180v534h149l7 -64q74 84 208 84q133 0 180 -87q71 87 210 87z" />
    <glyph glyph-name="n" unicode="n" horiz-adv-x="791" 
d="M458 555q132 0 192.5 -61.5t60.5 -193.5v-300h-180v287q0 66 -32 95.5t-100 29.5q-136 0 -139 -113v-299h-180v534h151l5 -68q70 89 222 89z" />
    <glyph glyph-name="o" unicode="o" horiz-adv-x="772" 
d="M386 -23q-166 0 -254.5 71.5t-88.5 218.5t88.5 218.5t254.5 71.5t254.5 -71.5t88.5 -218.5t-88.5 -218.5t-254.5 -71.5zM386 120q89 0 126 36.5t37 110.5t-37 110.5t-126 36.5t-126 -36.5t-37 -110.5t37 -110.5t126 -36.5z" />
    <glyph glyph-name="p" unicode="p" horiz-adv-x="788" 
d="M454 557q147 0 219 -77.5t72 -212.5t-72 -212t-219 -77q-126 0 -194 47v-224h-180v733h153l2 -61q79 84 219 84zM407 120q158 0 158 147t-158 147q-79 0 -120.5 -39t-41.5 -108t41.5 -108t120.5 -39z" />
    <glyph glyph-name="q" unicode="q" horiz-adv-x="792" 
d="M562 534h150v-723h-182v222q-74 -54 -201 -54q-135 0 -210.5 73.5t-75.5 217.5q0 140 78 212.5t208 72.5q146 0 223 -69zM377 121q80 0 122 39.5t42 106.5q0 66 -42 105.5t-122 39.5q-155 0 -155 -145q0 -146 155 -146z" />
    <glyph glyph-name="r" unicode="r" horiz-adv-x="530" 
d="M486 551h33v-157h-40q-40 0 -69 -3t-59 -12t-48.5 -25.5t-30.5 -44.5t-12 -67v-242h-180v534h147l5 -89h5q40 66 91 86t158 20z" />
    <glyph glyph-name="s" unicode="s" horiz-adv-x="692" 
d="M355 -23q-133 0 -214 43.5t-111 144.5h183q27 -57 142 -57q124 0 124 55q0 31 -26.5 38.5t-98.5 7.5h-29q-46 0 -80 3t-69.5 13.5t-58 28t-37 48t-14.5 72.5q0 77 73.5 130t205.5 53q45 0 81.5 -4t75.5 -15.5t67.5 -31.5t52.5 -54.5t36 -80.5h-175q-16 39 -49.5 50.5
t-88.5 11.5q-113 0 -113 -54q0 -16 8 -25t29.5 -13t42.5 -5t65 -1h11q124 0 192.5 -37.5t68.5 -130.5q0 -67 -44 -111.5t-107.5 -61.5t-142.5 -17z" />
    <glyph glyph-name="t" unicode="t" horiz-adv-x="601" 
d="M425 0q-59 0 -100.5 6.5t-75.5 23t-54 45.5t-30.5 73.5t-10.5 108.5v144h-137v133h49q79 0 104.5 31.5t29.5 122.5h134v-154h241v-133h-241v-140q0 -75 26 -93.5t115 -18.5h102v-149h-152z" />
    <glyph glyph-name="u" unicode="u" horiz-adv-x="790" 
d="M530 528h180v-528h-148l-9 77q-35 -49 -85 -72t-130 -23q-127 0 -192.5 60.5t-65.5 203.5v282h180v-274q0 -69 33 -97.5t102 -28.5q63 0 99 30t36 88v282z" />
    <glyph glyph-name="v" unicode="v" horiz-adv-x="717" 
d="M511 534h199l-190 -534h-323l-190 534h199q24 -76 69.5 -226t65.5 -215h35q20 65 65.5 215t69.5 226z" />
    <glyph glyph-name="w" unicode="w" horiz-adv-x="855" 
d="M642 534h183l-68 -534h-278l-44 444h-20l-38 -444h-279l-68 534h184q21 -221 34 -444h22q4 42 21 214.5t23 228.5h229q9 -79 43 -443h22q13 223 34 444z" />
    <glyph glyph-name="x" unicode="x" horiz-adv-x="685" 
d="M682 0h-212l-133 156l-125 -156h-209l237 269l-233 265h210l132 -153l119 153h210l-232 -265z" />
    <glyph glyph-name="y" unicode="y" horiz-adv-x="724" 
d="M511 534h193l-166 -490q-21 -61 -36 -98.5t-36 -67t-38.5 -43.5t-51 -23t-64.5 -10.5t-88 -1.5h-122v134h127q63 0 87 14t36 52h-148l-194 534h199l136 -431h36z" />
    <glyph glyph-name="z" unicode="z" horiz-adv-x="673" 
d="M316 137q56 4 153 4h165v-141h-584v88l172 166q24 23 149 131l-2 12q-68 -4 -150 -4h-179v141h587v-88l-195 -193q-26 -26 -120 -104z" />
    <glyph glyph-name="braceleft" unicode="{" horiz-adv-x="378" 
d="M338 -95q-138 11 -189 59t-51 144v36q0 63 -7.5 92t-21 36t-44.5 7v117q31 0 44.5 7t21 36t7.5 92v36q0 96 51 144t189 59l-1 -104q-54 -16 -70.5 -38t-16.5 -73v-64q0 -30 -2.5 -51.5t-11 -35.5t-14.5 -22t-22 -12.5t-23 -6t-29 -4.5v-43q22 -3 29 -4.5t23 -6t22 -12.5
t14.5 -22t11 -35.5t2.5 -51.5v-64q0 -51 16.5 -73t70.5 -38z" />
    <glyph glyph-name="bar" unicode="|" horiz-adv-x="317" 
d="M80 0v698h157v-698h-157z" />
    <glyph glyph-name="braceright" unicode="}" horiz-adv-x="378" 
d="M40 -95l1 104q54 16 70.5 38t16.5 73v64q0 30 2.5 51.5t11 35.5t14.5 22t22 12.5t23 6t29 4.5v43q-22 3 -29 4.5t-23 6t-22 12.5t-14.5 22t-11 35.5t-2.5 51.5v64q0 51 -16.5 73t-70.5 38l-1 104q138 -11 189 -59t51 -144v-36q0 -63 7.5 -92t21 -36t44.5 -7v-117
q-31 0 -44.5 -7t-21 -36t-7.5 -92v-36q0 -96 -51 -144t-189 -59z" />
    <glyph glyph-name="asciitilde" unicode="~" horiz-adv-x="600" 
d="M97 214q-5 33 -5 58q0 134 128 134q38 0 68.5 -12.5t52.5 -25t41 -12.5q38 1 38 46q0 11 -3 29h114q5 -32 5 -57q0 -135 -129 -135q-53 0 -97.5 26t-64.5 24q-38 -4 -38 -46q0 -11 3 -29h-113z" />
    <glyph glyph-name="uni00A0" unicode="&#xa0;" horiz-adv-x="270" 
 />
    <glyph glyph-name="exclamdown" unicode="&#xa1;" horiz-adv-x="370" 
d="M182 376q-110 0 -110 92t110 92q107 0 107 -92t-107 -92zM94 174q0 21 1.5 37t5 31t6 22.5t9 25.5t9.5 25h113q3 -8 9 -25.5t8.5 -25t6 -23t4.5 -32t1 -37.5l3 -327h-183z" />
    <glyph glyph-name="cent" unicode="&#xa2;" horiz-adv-x="745" 
d="M418 123q85 10 107 78h178q-20 -107 -90 -161t-195 -62v-60h-90v61q-286 19 -286 289q-1 135 73.5 206.5t212.5 80.5v66h90v-65q125 -8 195 -62t90 -160h-179q-13 36 -38 54t-68 24v-289zM215 268q0 -65 26 -100.5t87 -44.5v288q-61 -9 -87 -44.5t-26 -98.5z" />
    <glyph glyph-name="sterling" unicode="&#xa3;" horiz-adv-x="701" 
d="M37 0v117l28 -1q39 1 50.5 29t11.5 80v91h-101v87h98v43q0 40 3.5 69.5t14 60.5t30.5 52t51.5 38t79.5 25.5t112 8.5h125v-134h-105q-59 0 -82.5 -9t-34 -39.5t-10.5 -103.5v-11h198v-87h-197v-43q0 -60 -20.5 -99.5t-54.5 -54.5v-6h199q57 0 88.5 20t41.5 86h119
q-14 -116 -72.5 -167.5t-175.5 -51.5h-397z" />
    <glyph glyph-name="currency" unicode="&#xa4;" horiz-adv-x="600" 
d="M525 341q0 -67 -27 -110l94 -95l-83 -80l-101 102q-46 -17 -105 -17q-55 0 -99 15l-99 -100l-83 80l89 90q-30 45 -30 115q0 66 30 115l-89 90l83 80l99 -100q44 15 99 15q59 0 105 -17l101 102l83 -80l-94 -95q27 -44 27 -110zM197 341q0 -107 106 -107t106 107
t-106 107t-106 -107z" />
    <glyph glyph-name="yen" unicode="&#xa5;" horiz-adv-x="736" 
d="M728 698l-171 -281h106v-89h-160l-38 -62h198v-90h-198v-176h-196v176h-198v90h198l-38 62h-160v89h106l-171 281h200q93 -164 149 -281h23q25 52 62.5 122t62.5 115l25 44h200z" />
    <glyph glyph-name="brokenbar" unicode="&#xa6;" horiz-adv-x="317" 
d="M80 389v309h157v-309h-157zM80 0v308h157v-308h-157z" />
    <glyph glyph-name="section" unicode="&#xa7;" horiz-adv-x="720" 
d="M652 309q0 -95 -118 -138q50 -17 77 -47.5t27 -88.5q0 -82 -68.5 -131.5t-188.5 -49.5q-260 0 -315 188h166q17 -40 50.5 -57t92.5 -17q46 0 75.5 16t29.5 45q0 20 -16 32.5t-32.5 17.5t-57.5 13q-9 2 -14 3q-34 7 -48 10t-44.5 10.5t-44.5 12.5t-38.5 14.5t-36.5 18
t-28 21.5t-23 27t-12.5 32.5t-5.5 39.5q0 95 118 138q-50 17 -77 47.5t-27 88.5q0 82 68.5 131.5t188.5 49.5q260 0 315 -188h-166q-17 40 -50.5 57t-92.5 17q-46 0 -75.5 -16t-29.5 -45q0 -20 16 -32.5t32.5 -17.5t57.5 -13q9 -2 14 -3q34 -7 48 -10t44.5 -10.5t44.5 -12.5
t38.5 -14.5t36.5 -18t28 -21.5t23 -27t12.5 -32.5t5.5 -39.5zM318 218q31 -9 93 -21q80 24 80 90q0 62 -78 85q-26 8 -92 21q-81 -24 -81 -90q0 -62 78 -85z" />
    <glyph glyph-name="dieresis" unicode="&#xa8;" horiz-adv-x="600" 
d="M37 818q0 79 100 79q99 0 99 -79t-99 -79q-100 0 -100 79zM317 818q0 79 100 79q99 0 99 -79t-99 -79q-100 0 -100 79z" />
    <glyph glyph-name="copyright" unicode="&#xa9;" horiz-adv-x="1118" 
d="M553 -122q-250 0 -378 113.5t-128 334.5t128 334t378 113t378 -113t128 -334t-128 -334.5t-378 -113.5zM553 -6q182 0 264 77.5t82 254.5t-82 254.5t-264 77.5t-264 -77.5t-82 -254.5t82 -254.5t264 -77.5zM551 90q-267 0 -267 238q0 237 267 237q229 0 262 -170h-137
q-27 64 -124 64q-74 0 -104 -33.5t-30 -97.5q0 -63 30 -97t104 -34q97 0 125 67h137q-33 -174 -263 -174z" />
    <glyph glyph-name="guillemotleft" unicode="&#xab;" horiz-adv-x="614" 
d="M189 293l160 221h-167l-151 -221l151 -221h167zM414 293l160 221h-167l-151 -221l151 -221h167z" />
    <glyph glyph-name="logicalnot" unicode="&#xac;" horiz-adv-x="600" 
d="M90 254v118h435v-280h-108v162h-327z" />
    <glyph glyph-name="registered" unicode="&#xae;" horiz-adv-x="725" 
d="M363 187q-158 0 -238.5 71t-80.5 211q0 139 80.5 210t238.5 71q157 0 237.5 -71t80.5 -210q0 -140 -80.5 -211t-237.5 -71zM363 246q122 0 177.5 52.5t55.5 170.5t-56.5 170t-176.5 52q-123 0 -178.5 -52t-55.5 -170t56 -170.5t178 -52.5zM228 334v285h181q107 0 107 -97
q0 -60 -56 -79l62 -109h-99l-55 100h-50v-100h-90zM318 487h73q35 0 35 35t-35 35h-73v-70z" />
    <glyph glyph-name="macron" unicode="&#xaf;" horiz-adv-x="600" 
d="M120 755v98h337v-98h-337z" />
    <glyph glyph-name="degree" unicode="&#xb0;" horiz-adv-x="600" 
d="M51 498q0 97 63 154t166 57t165.5 -57t62.5 -154q0 -98 -62.5 -155t-165.5 -57q-104 0 -166.5 57t-62.5 155zM179 498q0 -46 26 -73t75 -27q48 0 74 27t26 73t-26 72.5t-74 26.5q-49 0 -75 -26.5t-26 -72.5z" />
    <glyph glyph-name="plusminus" unicode="&#xb1;" horiz-adv-x="600" 
d="M83 313v118h158v133h118v-133h158v-118h-158v-74h-118v74h-158zM83 77v118h434v-118h-434z" />
    <glyph glyph-name="uni00B2" unicode="&#xb2;" 
d="M31 559q14 68 74 105.5t157 37.5q209 0 209 -153q0 -28 -8.5 -48.5t-19.5 -33t-37.5 -24.5t-45.5 -17.5t-61 -17.5q-77 -21 -116 -34l4 -10q71 18 190 18h76v-104h-421q-3 20 -3 48q0 31 16 55t52.5 42.5t57 26t67.5 21.5l9 3q8 2 27 6.5t27.5 8t20 10.5t16 18.5
t4.5 28.5q0 49 -66 49q-70 0 -80 -36h-149z" />
    <glyph glyph-name="uni00B3" unicode="&#xb3;" 
d="M263 268q-96 0 -144 21q-77 35 -95 123h153q7 -33 86 -33q70 0 70 35q0 21 -21 27.5t-61 6.5h-65l26 88h58q56 0 56 35q0 38 -63 38q-67 0 -80 -38h-147q30 134 228 134q101 0 152.5 -32.5t51.5 -86.5q0 -32 -17 -50.5t-51 -30.5v-7q79 -25 79 -99q0 -60 -56.5 -95.5
t-159.5 -35.5z" />
    <glyph glyph-name="acute" unicode="&#xb4;" horiz-adv-x="600" 
d="M151 729l130 146h181l-187 -146h-124z" />
    <glyph glyph-name="paragraph" unicode="&#xb6;" horiz-adv-x="600" 
d="M307 0v290h-32q-134 0 -195 46t-61 158t61 158t195 46h286v-698h-102v585h-50v-585h-102zM275 397h32v194h-32q-56 0 -78.5 -22.5t-22.5 -74.5q0 -51 22 -74t79 -23z" />
    <glyph glyph-name="periodcentered" unicode="&#xb7;" horiz-adv-x="345" 
d="M174 365q107 0 107 -92t-107 -92q-110 0 -110 92t110 92z" />
    <glyph glyph-name="cedilla" unicode="&#xb8;" horiz-adv-x="600" 
d="M399 -41q55 0 80.5 -23t25.5 -74q0 -113 -147 -113q-80 0 -113 13v77q44 -12 99 -12q27 0 38.5 8t11.5 28q0 18 -9.5 26t-33.5 8q-31 0 -56 -1l53 122h85z" />
    <glyph glyph-name="uni00B9" unicode="&#xb9;" horiz-adv-x="392" 
d="M206 698h121v-420h-138v329l-153 -47l-1 89z" />
    <glyph glyph-name="guillemotright" unicode="&#xbb;" horiz-adv-x="614" 
d="M200 293l-160 -221h167l151 221l-151 221h-167zM425 293l-160 -221h167l151 221l-151 221h-167z" />
    <glyph glyph-name="onequarter" unicode="&#xbc;" horiz-adv-x="1110" 
d="M327 278h-138v329l-153 -47l-1 89l171 49h121v-420zM690 698h113l-491 -698h-113zM1026 184h84l-23 -85h-61v-99h-140v99h-269v60l193 260h216v-235zM757 184h129v174z" />
    <glyph glyph-name="onehalf" unicode="&#xbd;" horiz-adv-x="1110" 
d="M327 278h-138v329l-153 -47l-1 89l171 49h121v-420zM690 698h113l-491 -698h-113zM797 86q71 18 190 18h76v-104h-421q-3 20 -3 48q0 31 16 55t52.5 42.5t57 26t67.5 21.5l3 1.5t3 1t3 0.5q8 2 27 6.5t27.5 8t20 10.5t16 18.5t4.5 28.5q0 49 -66 49q-70 0 -80 -36h-149
q14 68 74 105.5t157 37.5q209 0 209 -153q0 -28 -8.5 -48.5t-19.5 -33t-37.5 -24.5t-45.5 -17.5t-61 -17.5q-77 -21 -116 -34z" />
    <glyph glyph-name="threequarters" unicode="&#xbe;" horiz-adv-x="1218" 
d="M479 399q0 -60 -56.5 -95.5t-159.5 -35.5q-96 0 -144 21q-77 35 -95 123h153q7 -33 86 -33q70 0 70 35q0 21 -21 27.5t-61 6.5h-65l26 88h58q56 0 56 35q0 38 -63 38q-67 0 -80 -38h-147q30 134 228 134q101 0 152.5 -32.5t51.5 -86.5q0 -32 -17 -50.5t-51 -30.5v-7
q79 -25 79 -99zM798 698h113l-491 -698h-113zM1134 184h84l-23 -85h-61v-99h-140v99h-269v60l193 260h216v-235zM865 184h129v174z" />
    <glyph glyph-name="questiondown" unicode="&#xbf;" horiz-adv-x="675" 
d="M314 373q-107 0 -107 92t107 92q110 0 110 -92t-110 -92zM408 338v-52q0 -24 -7 -42.5t-15 -30.5t-29 -24.5t-34 -18.5t-45 -19q-58 -24 -74 -44q-15 -19 -15 -52q0 -90 101 -90q106 0 134 69h185q-30 -102 -106.5 -153t-209.5 -51q-139 0 -213 53.5t-74 160.5
q0 90 52 142q32 31 93 52q29 11 44.5 18t29 22.5t13.5 35.5v24h170z" />
    <glyph glyph-name="Agrave" unicode="&#xc0;" horiz-adv-x="796" 
d="M535 729h-125l-188 147h183zM587 0l-38 129h-304l-38 -129h-205l233 698h326l233 -698h-207zM286 267h222l-42 144q-14 52 -54 197h-29q-8 -32 -26.5 -97.5t-27.5 -99.5z" />
    <glyph glyph-name="Aacute" unicode="&#xc1;" horiz-adv-x="796" 
d="M586 875l-187 -146h-124l130 146h181zM587 0l-38 129h-304l-38 -129h-205l233 698h326l233 -698h-207zM286 267h222l-42 144q-14 52 -54 197h-29q-8 -32 -26.5 -97.5t-27.5 -99.5z" />
    <glyph glyph-name="Acircumflex" unicode="&#xc2;" horiz-adv-x="796" 
d="M392 803l-82 -75h-133l152 170h126l152 -170h-133zM587 0l-38 129h-304l-38 -129h-205l233 698h326l233 -698h-207zM286 267h222l-42 144q-14 52 -54 197h-29q-8 -32 -26.5 -97.5t-27.5 -99.5z" />
    <glyph glyph-name="Atilde" unicode="&#xc3;" horiz-adv-x="796" 
d="M281 728h-91q-5 69 29 108.5t109 39.5q44 0 81 -15t55 -15q27 0 39.5 11t11.5 38h90q5 -69 -29 -109t-108 -40q-43 0 -80 15t-57 15q-30 0 -40.5 -12t-9.5 -36zM587 0l-38 129h-304l-38 -129h-205l233 698h326l233 -698h-207zM286 267h222l-42 144q-14 52 -54 197h-29
q-8 -32 -26.5 -97.5t-27.5 -99.5z" />
    <glyph glyph-name="Adieresis" unicode="&#xc4;" horiz-adv-x="796" 
d="M258 739q-100 0 -100 79t100 79q99 0 99 -79t-99 -79zM538 739q-100 0 -100 79t100 79q99 0 99 -79t-99 -79zM587 0l-38 129h-304l-38 -129h-205l233 698h326l233 -698h-207zM286 267h222l-42 144q-14 52 -54 197h-29q-8 -32 -26.5 -97.5t-27.5 -99.5z" />
    <glyph glyph-name="Aring" unicode="&#xc5;" horiz-adv-x="796" 
d="M398 728q-154 0 -154 109q0 108 154 108q155 0 155 -108q0 -109 -155 -109zM398 886q-62 0 -62 -49q0 -51 62 -51t62 51q0 49 -62 49zM587 0l-38 129h-304l-38 -129h-205l233 698h326l233 -698h-207zM286 267h222l-42 144q-14 52 -54 197h-29q-8 -32 -26.5 -97.5
t-27.5 -99.5z" />
    <glyph glyph-name="AE" unicode="&#xc6;" horiz-adv-x="1149" 
d="M1083 538h-374v-110h366v-151h-366v-117h374v-160h-568v129h-251l-54 -129h-208l315 698h766v-160zM322 267h193v341h-59q-32 -99 -134 -341z" />
    <glyph glyph-name="Ccedilla" unicode="&#xc7;" horiz-adv-x="880" 
d="M845 251q-48 -250 -360 -264l-11 -20q55 0 80.5 -23t25.5 -74q0 -113 -147 -113q-80 0 -113 13v77q44 -12 99 -12q27 0 38.5 8t11.5 28q0 18 -9.5 26t-33.5 8q-31 0 -56 -1l36 83q-371 17 -371 361q0 184 105.5 273t304.5 89q345 0 399 -260l-209 1q-40 98 -190 98
q-113 0 -159 -51.5t-46 -148.5q0 -98 46 -149.5t159 -51.5q150 0 191 103h209z" />
    <glyph glyph-name="Egrave" unicode="&#xc8;" horiz-adv-x="714" 
d="M513 729h-125l-188 147h183zM648 538h-374v-110h366v-151h-366v-117h374v-160h-568v698h568v-160z" />
    <glyph glyph-name="Eacute" unicode="&#xc9;" horiz-adv-x="714" 
d="M564 875l-187 -146h-124l130 146h181zM648 538h-374v-110h366v-151h-366v-117h374v-160h-568v698h568v-160z" />
    <glyph glyph-name="Ecircumflex" unicode="&#xca;" horiz-adv-x="714" 
d="M370 803l-82 -75h-133l152 170h126l152 -170h-133zM648 538h-374v-110h366v-151h-366v-117h374v-160h-568v698h568v-160z" />
    <glyph glyph-name="Edieresis" unicode="&#xcb;" horiz-adv-x="714" 
d="M236 739q-100 0 -100 79t100 79q99 0 99 -79t-99 -79zM516 739q-100 0 -100 79t100 79q99 0 99 -79t-99 -79zM648 538h-374v-110h366v-151h-366v-117h374v-160h-568v698h568v-160z" />
    <glyph glyph-name="Igrave" unicode="&#xcc;" horiz-adv-x="354" 
d="M314 729h-125l-188 147h183zM80 0v698h194v-698h-194z" />
    <glyph glyph-name="Iacute" unicode="&#xcd;" horiz-adv-x="354" 
d="M54 729l130 146h181l-187 -146h-124zM80 0v698h194v-698h-194z" />
    <glyph glyph-name="Icircumflex" unicode="&#xce;" horiz-adv-x="354" 
d="M-44 728l152 170h126l152 -170h-133l-82 75l-82 -75h-133zM80 0v698h194v-698h-194z" />
    <glyph glyph-name="Idieresis" unicode="&#xcf;" horiz-adv-x="354" 
d="M-63 818q0 79 100 79q99 0 99 -79t-99 -79q-100 0 -100 79zM217 818q0 79 100 79q99 0 99 -79t-99 -79q-100 0 -100 79zM80 0v698h194v-698h-194z" />
    <glyph glyph-name="Eth" unicode="&#xd0;" horiz-adv-x="847" 
d="M407 698q209 0 307 -80t98 -269q0 -182 -99.5 -265.5t-307.5 -83.5h-325v291h-64v108h64v299h327zM397 153q116 0 167.5 45t51.5 151q0 105 -51.5 150.5t-167.5 45.5h-123v-146h255v-108h-255v-138h123z" />
    <glyph glyph-name="Ntilde" unicode="&#xd1;" horiz-adv-x="825" 
d="M224 728q-5 69 29 108.5t109 39.5q44 0 81 -15t55 -15q27 0 39.5 11t11.5 38h90q5 -69 -29 -109t-108 -40q-43 0 -80 15t-57 15q-30 0 -40.5 -12t-9.5 -36h-91zM80 0v698h330q93 -398 109 -461q18 -76 30 -147h23v608h173v-698h-329q-21 83 -57 237.5t-53 222.5
q-17 73 -30 148h-23v-608h-173z" />
    <glyph glyph-name="Ograve" unicode="&#xd2;" horiz-adv-x="889" 
d="M581 741h-125l-188 147h183zM35 348q0 184 105.5 273t303.5 89t304 -89t106 -273q0 -185 -106 -274t-304 -89t-303.5 89t-105.5 274zM240 348q0 -96 46 -148t158 -52q113 0 159 52t46 148q0 97 -46 148.5t-159 51.5t-158.5 -51.5t-45.5 -148.5z" />
    <glyph glyph-name="Oacute" unicode="&#xd3;" horiz-adv-x="889" 
d="M321 741l130 146h181l-187 -146h-124zM35 348q0 184 105.5 273t303.5 89t304 -89t106 -273q0 -185 -106 -274t-304 -89t-303.5 89t-105.5 274zM240 348q0 -96 46 -148t158 -52q113 0 159 52t46 148q0 97 -46 148.5t-159 51.5t-158.5 -51.5t-45.5 -148.5z" />
    <glyph glyph-name="Ocircumflex" unicode="&#xd4;" horiz-adv-x="889" 
d="M223 740l152 170h126l152 -170h-133l-82 75l-82 -75h-133zM35 348q0 184 105.5 273t303.5 89t304 -89t106 -273q0 -185 -106 -274t-304 -89t-303.5 89t-105.5 274zM240 348q0 -96 46 -148t158 -52q113 0 159 52t46 148q0 97 -46 148.5t-159 51.5t-158.5 -51.5
t-45.5 -148.5z" />
    <glyph glyph-name="Otilde" unicode="&#xd5;" horiz-adv-x="889" 
d="M236 740q-5 69 29 108.5t109 39.5q44 0 81 -15t55 -15q27 0 39.5 11t11.5 38h90q5 -69 -29 -109t-108 -40q-43 0 -80 15t-57 15q-30 0 -40.5 -12t-9.5 -36h-91zM35 348q0 184 105.5 273t303.5 89t304 -89t106 -273q0 -185 -106 -274t-304 -89t-303.5 89t-105.5 274z
M240 348q0 -96 46 -148t158 -52q113 0 159 52t46 148q0 97 -46 148.5t-159 51.5t-158.5 -51.5t-45.5 -148.5z" />
    <glyph glyph-name="Odieresis" unicode="&#xd6;" horiz-adv-x="889" 
d="M204 830q0 79 100 79q99 0 99 -79t-99 -79q-100 0 -100 79zM484 830q0 79 100 79q99 0 99 -79t-99 -79q-100 0 -100 79zM35 348q0 184 105.5 273t303.5 89t304 -89t106 -273q0 -185 -106 -274t-304 -89t-303.5 89t-105.5 274zM240 348q0 -96 46 -148t158 -52
q113 0 159 52t46 148q0 97 -46 148.5t-159 51.5t-158.5 -51.5t-45.5 -148.5z" />
    <glyph glyph-name="multiply" unicode="&#xd7;" horiz-adv-x="600" 
d="M188 116l-83 83l112 112l-112 112l83 83l112 -112l112 112l83 -83l-112 -112l112 -112l-83 -83l-112 112z" />
    <glyph glyph-name="Oslash" unicode="&#xd8;" horiz-adv-x="889" 
d="M746 623q108 -91 108 -275q0 -185 -106 -274t-304 -89q-116 0 -196 29l-34 -41h-111l65 80q-133 90 -133 295q0 184 105.5 273t303.5 89q137 0 228 -41l31 37h111zM240 348q0 -102 47 -150l270 330q-45 20 -113 20q-113 0 -158.5 -51.5t-45.5 -148.5zM444 148
q113 0 159 52t46 148q0 78 -27 123l-258 -314q34 -9 80 -9z" />
    <glyph glyph-name="Ugrave" unicode="&#xd9;" horiz-adv-x="807" 
d="M543 729h-125l-188 147h183zM70 276v422h194v-417q0 -73 30.5 -109.5t111.5 -36.5q80 0 109.5 37t29.5 111v415h192v-422q0 -152 -83 -222.5t-250 -70.5q-168 0 -251 70.5t-83 222.5z" />
    <glyph glyph-name="Uacute" unicode="&#xda;" horiz-adv-x="807" 
d="M283 729l130 146h181l-187 -146h-124zM70 276v422h194v-417q0 -73 30.5 -109.5t111.5 -36.5q80 0 109.5 37t29.5 111v415h192v-422q0 -152 -83 -222.5t-250 -70.5q-168 0 -251 70.5t-83 222.5z" />
    <glyph glyph-name="Ucircumflex" unicode="&#xdb;" horiz-adv-x="807" 
d="M185 728l152 170h126l152 -170h-133l-82 75l-82 -75h-133zM70 276v422h194v-417q0 -73 30.5 -109.5t111.5 -36.5q80 0 109.5 37t29.5 111v415h192v-422q0 -152 -83 -222.5t-250 -70.5q-168 0 -251 70.5t-83 222.5z" />
    <glyph glyph-name="Udieresis" unicode="&#xdc;" horiz-adv-x="807" 
d="M166 818q0 79 100 79q99 0 99 -79t-99 -79q-100 0 -100 79zM446 818q0 79 100 79q99 0 99 -79t-99 -79q-100 0 -100 79zM70 276v422h194v-417q0 -73 30.5 -109.5t111.5 -36.5q80 0 109.5 37t29.5 111v415h192v-422q0 -152 -83 -222.5t-250 -70.5q-168 0 -251 70.5
t-83 222.5z" />
    <glyph glyph-name="Yacute" unicode="&#xdd;" horiz-adv-x="713" 
d="M545 875l-187 -146h-124l130 146h181zM728 698l-273 -442v-256h-196v256l-273 442h204q100 -166 156 -273h21q25 48 64 116t66 113l27 44h204z" />
    <glyph glyph-name="Thorn" unicode="&#xde;" horiz-adv-x="771" 
d="M489 615q263 0 263 -236q0 -127 -70.5 -182t-211.5 -55h-196v-142h-194v698h194v-83h215zM466 292q87 0 87 87q0 86 -87 86h-192v-173h192z" />
    <glyph glyph-name="germandbls" unicode="&#xdf;" horiz-adv-x="752" 
d="M80 0v488q0 147 81.5 204.5t248.5 57.5q300 0 300 -221q0 -125 -132 -161q140 -36 140 -181q0 -103 -70.5 -151t-185.5 -48q-94 0 -173 25l34 124q54 -18 115 -18q110 0 110 85q0 84 -101 84h-95v126h47q73 0 105 21t32 76q0 56 -31 80.5t-95 24.5q-82 0 -116 -26
t-34 -93v-497h-180z" />
    <glyph glyph-name="agrave" unicode="&#xe0;" horiz-adv-x="735" 
d="M445 593h-136l-205 160h199zM361 555q145 0 219.5 -55t74.5 -191v-309h-148l-9 56q-34 -38 -91.5 -57.5t-120.5 -19.5q-110 0 -172.5 45t-62.5 139q0 42 15 73.5t39.5 50t60.5 30t72 15t81 3.5h166q-1 51 -31 74t-94 23q-111 0 -131 -54h-170q52 177 302 177zM331 94
q64 0 109 27.5t45 89.5v23h-128q-70 0 -99 -15.5t-29 -53.5q0 -71 102 -71z" />
    <glyph glyph-name="aacute" unicode="&#xe1;" horiz-adv-x="735" 
d="M578 753l-205 -160h-136l142 160h199zM361 555q145 0 219.5 -55t74.5 -191v-309h-148l-9 56q-34 -38 -91.5 -57.5t-120.5 -19.5q-110 0 -172.5 45t-62.5 139q0 42 15 73.5t39.5 50t60.5 30t72 15t81 3.5h166q-1 51 -31 74t-94 23q-111 0 -131 -54h-170q52 177 302 177z
M331 94q64 0 109 27.5t45 89.5v23h-128q-70 0 -99 -15.5t-29 -53.5q0 -71 102 -71z" />
    <glyph glyph-name="acircumflex" unicode="&#xe2;" horiz-adv-x="735" 
d="M360 668l-82 -75h-133l152 170h126l152 -170h-133zM361 555q145 0 219.5 -55t74.5 -191v-309h-148l-9 56q-34 -38 -91.5 -57.5t-120.5 -19.5q-110 0 -172.5 45t-62.5 139q0 42 15 73.5t39.5 50t60.5 30t72 15t81 3.5h166q-1 51 -31 74t-94 23q-111 0 -131 -54h-170
q52 177 302 177zM331 94q64 0 109 27.5t45 89.5v23h-128q-70 0 -99 -15.5t-29 -53.5q0 -71 102 -71z" />
    <glyph glyph-name="atilde" unicode="&#xe3;" horiz-adv-x="735" 
d="M243 637h-91q-5 69 29 108.5t109 39.5q44 0 81 -15t55 -15q27 0 39.5 11t11.5 38h90q5 -69 -29 -109t-108 -40q-43 0 -80 15t-57 15q-30 0 -40.5 -12t-9.5 -36zM361 555q145 0 219.5 -55t74.5 -191v-309h-148l-9 56q-34 -38 -91.5 -57.5t-120.5 -19.5q-110 0 -172.5 45
t-62.5 139q0 42 15 73.5t39.5 50t60.5 30t72 15t81 3.5h166q-1 51 -31 74t-94 23q-111 0 -131 -54h-170q52 177 302 177zM331 94q64 0 109 27.5t45 89.5v23h-128q-70 0 -99 -15.5t-29 -53.5q0 -71 102 -71z" />
    <glyph glyph-name="adieresis" unicode="&#xe4;" horiz-adv-x="735" 
d="M220 593q-100 0 -100 84t100 84q99 0 99 -84t-99 -84zM500 593q-100 0 -100 84t100 84q99 0 99 -84t-99 -84zM361 555q145 0 219.5 -55t74.5 -191v-309h-148l-9 56q-34 -38 -91.5 -57.5t-120.5 -19.5q-110 0 -172.5 45t-62.5 139q0 42 15 73.5t39.5 50t60.5 30t72 15
t81 3.5h166q-1 51 -31 74t-94 23q-111 0 -131 -54h-170q52 177 302 177zM331 94q64 0 109 27.5t45 89.5v23h-128q-70 0 -99 -15.5t-29 -53.5q0 -71 102 -71z" />
    <glyph glyph-name="aring" unicode="&#xe5;" horiz-adv-x="735" 
d="M360 593q-154 0 -154 127q0 125 154 125q155 0 155 -125q0 -127 -155 -127zM360 777q-33 0 -47.5 -14t-14.5 -43q0 -59 62 -59t62 59q0 29 -14.5 43t-47.5 14zM361 555q145 0 219.5 -55t74.5 -191v-309h-148l-9 56q-34 -38 -91.5 -57.5t-120.5 -19.5q-110 0 -172.5 45
t-62.5 139q0 42 15 73.5t39.5 50t60.5 30t72 15t81 3.5h166q-1 51 -31 74t-94 23q-111 0 -131 -54h-170q52 177 302 177zM331 94q64 0 109 27.5t45 89.5v23h-128q-70 0 -99 -15.5t-29 -53.5q0 -71 102 -71z" />
    <glyph glyph-name="ae" unicode="&#xe6;" horiz-adv-x="1179" 
d="M284 -18q-104 0 -168.5 45t-64.5 138q0 43 17.5 74t43.5 48t66.5 27t77 12.5t84.5 2.5h141v15q0 84 -125 84q-104 0 -131 -54h-170q52 177 302 177q147 0 218 -67q83 71 229 71q179 0 259 -84t78 -246h-500q7 -114 164 -114q115 0 142 44h182q-23 -87 -109 -131t-216 -44
q-180 0 -258 97q-36 -45 -105 -70t-157 -25zM644 329h316q-20 100 -156 100q-145 0 -160 -100zM327 94q65 0 109.5 27.5t44.5 89.5v23h-136q-66 0 -93 -15.5t-27 -53.5q0 -71 102 -71z" />
    <glyph glyph-name="ccedilla" unicode="&#xe7;" horiz-adv-x="763" 
d="M385 120q131 0 155 81h185q-21 -109 -94 -162.5t-205 -60.5l-11 -19q55 0 80.5 -23t25.5 -74q0 -113 -147 -113q-80 0 -113 13v77q44 -12 99 -12q27 0 38.5 8t11.5 28q0 18 -9.5 26t-33.5 8q-31 0 -56 -1l36 82q-304 16 -304 290q0 148 88.5 220t253.5 72
q151 0 234.5 -54t105.5 -170h-185q-24 81 -155 81q-90 0 -126.5 -37t-36.5 -112t36.5 -111.5t126.5 -36.5z" />
    <glyph glyph-name="egrave" unicode="&#xe8;" horiz-adv-x="758" 
d="M469 593h-136l-205 160h199zM383 555q173 0 256 -81.5t81 -248.5h-500q3 -59 44.5 -87.5t127.5 -28.5q121 0 143 46h178q-15 -80 -103 -128t-225 -48q-77 0 -137 14.5t-107.5 46.5t-72.5 89.5t-25 137.5q0 140 87 214t253 74zM223 329h316q-13 100 -156 100
q-74 0 -113.5 -24t-46.5 -76z" />
    <glyph glyph-name="eacute" unicode="&#xe9;" horiz-adv-x="758" 
d="M602 753l-205 -160h-136l142 160h199zM383 555q173 0 256 -81.5t81 -248.5h-500q3 -59 44.5 -87.5t127.5 -28.5q121 0 143 46h178q-15 -80 -103 -128t-225 -48q-77 0 -137 14.5t-107.5 46.5t-72.5 89.5t-25 137.5q0 140 87 214t253 74zM223 329h316q-13 100 -156 100
q-74 0 -113.5 -24t-46.5 -76z" />
    <glyph glyph-name="ecircumflex" unicode="&#xea;" horiz-adv-x="758" 
d="M384 668l-82 -75h-133l152 170h126l152 -170h-133zM383 555q173 0 256 -81.5t81 -248.5h-500q3 -59 44.5 -87.5t127.5 -28.5q121 0 143 46h178q-15 -80 -103 -128t-225 -48q-77 0 -137 14.5t-107.5 46.5t-72.5 89.5t-25 137.5q0 140 87 214t253 74zM223 329h316
q-13 100 -156 100q-74 0 -113.5 -24t-46.5 -76z" />
    <glyph glyph-name="edieresis" unicode="&#xeb;" horiz-adv-x="758" 
d="M244 593q-100 0 -100 84t100 84q99 0 99 -84t-99 -84zM524 593q-100 0 -100 84t100 84q99 0 99 -84t-99 -84zM383 555q173 0 256 -81.5t81 -248.5h-500q3 -59 44.5 -87.5t127.5 -28.5q121 0 143 46h178q-15 -80 -103 -128t-225 -48q-77 0 -137 14.5t-107.5 46.5
t-72.5 89.5t-25 137.5q0 140 87 214t253 74zM223 329h316q-13 100 -156 100q-74 0 -113.5 -24t-46.5 -76z" />
    <glyph glyph-name="igrave" unicode="&#xec;" horiz-adv-x="340" 
d="M255 593h-136l-205 160h199zM80 0v534h180v-534h-180z" />
    <glyph glyph-name="iacute" unicode="&#xed;" horiz-adv-x="340" 
d="M47 593l142 160h199l-205 -160h-136zM80 0v534h180v-534h-180z" />
    <glyph glyph-name="icircumflex" unicode="&#xee;" horiz-adv-x="340" 
d="M-45 593l152 170h126l152 -170h-133l-82 75l-82 -75h-133zM80 0v534h180v-534h-180z" />
    <glyph glyph-name="idieresis" unicode="&#xef;" horiz-adv-x="339" 
d="M-60 677q0 84 100 84q99 0 99 -84t-99 -84q-100 0 -100 84zM200 677q0 84 100 84q99 0 99 -84t-99 -84q-100 0 -100 84zM80 0v534h180v-534h-180z" />
    <glyph glyph-name="eth" unicode="&#xf0;" horiz-adv-x="764" 
d="M582 618q139 -141 139 -337q0 -88 -31.5 -150.5t-84.5 -94.5t-108.5 -45.5t-118.5 -13.5q-29 0 -50.5 1t-59 7t-65 17t-59.5 32.5t-52.5 51.5t-34.5 77.5t-14 106.5q0 137 87.5 206t216.5 69q23 0 43 -3t33 -5.5t28 -11t21 -11.5t19 -16t14 -14.5t14 -16.5l6 6
q-28 58 -107 128l-283 -30v86l185 20q-46 31 -99 63h212l62 -45l171 18v-86zM378 120q81 0 123.5 40t42.5 107t-42.5 106.5t-123.5 39.5q-156 0 -156 -146q0 -147 156 -147z" />
    <glyph glyph-name="ntilde" unicode="&#xf1;" horiz-adv-x="791" 
d="M279 637h-91q-5 69 29 108.5t109 39.5q44 0 81 -15t55 -15q27 0 39.5 11t11.5 38h90q5 -69 -29 -109t-108 -40q-43 0 -80 15t-57 15q-30 0 -40.5 -12t-9.5 -36zM458 555q132 0 192.5 -61.5t60.5 -193.5v-300h-180v287q0 66 -32 95.5t-100 29.5q-136 0 -139 -113v-299
h-180v534h151l5 -68q70 89 222 89z" />
    <glyph glyph-name="ograve" unicode="&#xf2;" horiz-adv-x="772" 
d="M471 593h-136l-205 160h199zM386 -23q-166 0 -254.5 71.5t-88.5 218.5t88.5 218.5t254.5 71.5t254.5 -71.5t88.5 -218.5t-88.5 -218.5t-254.5 -71.5zM386 120q89 0 126 36.5t37 110.5t-37 110.5t-126 36.5t-126 -36.5t-37 -110.5t37 -110.5t126 -36.5z" />
    <glyph glyph-name="oacute" unicode="&#xf3;" horiz-adv-x="772" 
d="M263 593l142 160h199l-205 -160h-136zM386 -23q-166 0 -254.5 71.5t-88.5 218.5t88.5 218.5t254.5 71.5t254.5 -71.5t88.5 -218.5t-88.5 -218.5t-254.5 -71.5zM386 120q89 0 126 36.5t37 110.5t-37 110.5t-126 36.5t-126 -36.5t-37 -110.5t37 -110.5t126 -36.5z" />
    <glyph glyph-name="ocircumflex" unicode="&#xf4;" horiz-adv-x="772" 
d="M171 593l152 170h126l152 -170h-133l-82 75l-82 -75h-133zM386 -23q-166 0 -254.5 71.5t-88.5 218.5t88.5 218.5t254.5 71.5t254.5 -71.5t88.5 -218.5t-88.5 -218.5t-254.5 -71.5zM386 120q89 0 126 36.5t37 110.5t-37 110.5t-126 36.5t-126 -36.5t-37 -110.5t37 -110.5
t126 -36.5z" />
    <glyph glyph-name="otilde" unicode="&#xf5;" horiz-adv-x="772" 
d="M178 637q-5 69 29 108.5t109 39.5q44 0 81 -15t55 -15q27 0 39.5 11t11.5 38h90q5 -69 -29 -109t-108 -40q-43 0 -80 15t-57 15q-30 0 -40.5 -12t-9.5 -36h-91zM386 -23q-166 0 -254.5 71.5t-88.5 218.5t88.5 218.5t254.5 71.5t254.5 -71.5t88.5 -218.5t-88.5 -218.5
t-254.5 -71.5zM386 120q89 0 126 36.5t37 110.5t-37 110.5t-126 36.5t-126 -36.5t-37 -110.5t37 -110.5t126 -36.5z" />
    <glyph glyph-name="odieresis" unicode="&#xf6;" horiz-adv-x="772" 
d="M146 677q0 84 100 84q99 0 99 -84t-99 -84q-100 0 -100 84zM426 677q0 84 100 84q99 0 99 -84t-99 -84q-100 0 -100 84zM386 -23q-166 0 -254.5 71.5t-88.5 218.5t88.5 218.5t254.5 71.5t254.5 -71.5t88.5 -218.5t-88.5 -218.5t-254.5 -71.5zM386 120q89 0 126 36.5
t37 110.5t-37 110.5t-126 36.5t-126 -36.5t-37 -110.5t37 -110.5t126 -36.5z" />
    <glyph glyph-name="divide" unicode="&#xf7;" horiz-adv-x="600" 
d="M302 429q-101 0 -101 84q0 85 101 85q98 0 98 -85q0 -84 -98 -84zM83 254v118h434v-118h-434zM302 28q-101 0 -101 85q0 84 101 84q98 0 98 -84q0 -85 -98 -85z" />
    <glyph glyph-name="oslash" unicode="&#xf8;" horiz-adv-x="772" 
d="M638 488q91 -74 91 -221t-88.5 -218.5t-254.5 -71.5q-89 0 -153 19l-19 -23h-111l49 60q-109 73 -109 234q0 147 88.5 218.5t254.5 71.5q101 0 176 -27l21 26h111zM223 267q0 -73 34 -107l202 246q-32 8 -73 8q-89 0 -126 -36.5t-37 -110.5zM386 120q89 0 126 36.5
t37 110.5q0 56 -20 89l-191 -233q21 -3 48 -3z" />
    <glyph glyph-name="ugrave" unicode="&#xf9;" horiz-adv-x="790" 
d="M481 593h-136l-205 160h199zM530 528h180v-528h-148l-9 77q-35 -49 -85 -72t-130 -23q-127 0 -192.5 60.5t-65.5 203.5v282h180v-274q0 -69 33 -97.5t102 -28.5q63 0 99 30t36 88v282z" />
    <glyph glyph-name="uacute" unicode="&#xfa;" horiz-adv-x="790" 
d="M614 753l-205 -160h-136l142 160h199zM530 528h180v-528h-148l-9 77q-35 -49 -85 -72t-130 -23q-127 0 -192.5 60.5t-65.5 203.5v282h180v-274q0 -69 33 -97.5t102 -28.5q63 0 99 30t36 88v282z" />
    <glyph glyph-name="ucircumflex" unicode="&#xfb;" horiz-adv-x="790" 
d="M396 668l-82 -75h-133l152 170h126l152 -170h-133zM530 528h180v-528h-148l-9 77q-35 -49 -85 -72t-130 -23q-127 0 -192.5 60.5t-65.5 203.5v282h180v-274q0 -69 33 -97.5t102 -28.5q63 0 99 30t36 88v282z" />
    <glyph glyph-name="udieresis" unicode="&#xfc;" horiz-adv-x="790" 
d="M256 593q-100 0 -100 84t100 84q99 0 99 -84t-99 -84zM536 593q-100 0 -100 84t100 84q99 0 99 -84t-99 -84zM530 528h180v-528h-148l-9 77q-35 -49 -85 -72t-130 -23q-127 0 -192.5 60.5t-65.5 203.5v282h180v-274q0 -69 33 -97.5t102 -28.5q63 0 99 30t36 88v282z" />
    <glyph glyph-name="yacute" unicode="&#xfd;" horiz-adv-x="724" 
d="M593 753l-205 -160h-136l142 160h199zM511 534h193l-166 -490q-21 -61 -36 -98.5t-36 -67t-38.5 -43.5t-51 -23t-64.5 -10.5t-88 -1.5h-122v134h127q63 0 87 14t36 52h-148l-194 534h199l136 -431h36z" />
    <glyph glyph-name="thorn" unicode="&#xfe;" horiz-adv-x="788" 
d="M454 557q147 0 219 -77.5t72 -212.5t-72 -212t-219 -77q-125 0 -195 47v-224h-179v949h179l1 -254q76 61 194 61zM407 120q158 0 158 147t-158 147q-79 0 -120.5 -39t-41.5 -108t41.5 -108t120.5 -39z" />
    <glyph glyph-name="ydieresis" unicode="&#xff;" horiz-adv-x="724" 
d="M235 593q-100 0 -100 84t100 84q99 0 99 -84t-99 -84zM515 593q-100 0 -100 84t100 84q99 0 99 -84t-99 -84zM511 534h193l-166 -490q-21 -61 -36 -98.5t-36 -67t-38.5 -43.5t-51 -23t-64.5 -10.5t-88 -1.5h-122v134h127q63 0 87 14t36 52h-148l-194 534h199l136 -431h36
z" />
    <glyph glyph-name="Amacron" unicode="&#x100;" horiz-adv-x="796" 
d="M567 853v-98h-337v98h337zM587 0l-38 129h-304l-38 -129h-205l233 698h326l233 -698h-207zM286 267h222l-42 144q-14 52 -54 197h-29q-8 -32 -26.5 -97.5t-27.5 -99.5z" />
    <glyph glyph-name="amacron" unicode="&#x101;" horiz-adv-x="735" 
d="M529 708v-98h-337v98h337zM361 555q145 0 219.5 -55t74.5 -191v-309h-148l-9 56q-34 -38 -91.5 -57.5t-120.5 -19.5q-110 0 -172.5 45t-62.5 139q0 42 15 73.5t39.5 50t60.5 30t72 15t81 3.5h166q-1 51 -31 74t-94 23q-111 0 -131 -54h-170q52 177 302 177zM331 94
q64 0 109 27.5t45 89.5v23h-128q-70 0 -99 -15.5t-29 -53.5q0 -71 102 -71z" />
    <glyph glyph-name="Abreve" unicode="&#x102;" horiz-adv-x="796" 
d="M394 725q-103 0 -144.5 40.5t-39.5 116.5h102q0 -37 20 -54t62 -17t62 17t20 54h102q0 -77 -40.5 -117t-143.5 -40zM587 0l-38 129h-304l-38 -129h-205l233 698h326l233 -698h-207zM286 267h222l-42 144q-14 52 -54 197h-29q-8 -32 -26.5 -97.5t-27.5 -99.5z" />
    <glyph glyph-name="abreve" unicode="&#x103;" horiz-adv-x="735" 
d="M360 595q-105 0 -150 40t-45 115h109q0 -37 20.5 -54t65.5 -17q44 0 64.5 17t20.5 54h109q0 -75 -44.5 -115t-149.5 -40zM361 555q145 0 219.5 -55t74.5 -191v-309h-148l-9 56q-34 -38 -91.5 -57.5t-120.5 -19.5q-110 0 -172.5 45t-62.5 139q0 42 15 73.5t39.5 50
t60.5 30t72 15t81 3.5h166q-1 51 -31 74t-94 23q-111 0 -131 -54h-170q52 177 302 177zM331 94q64 0 109 27.5t45 89.5v23h-128q-70 0 -99 -15.5t-29 -53.5q0 -71 102 -71z" />
    <glyph glyph-name="Aogonek" unicode="&#x104;" horiz-adv-x="796" 
d="M772 -151q39 0 81 9v-77q-47 -13 -131 -13q-75 0 -106.5 23.5t-31.5 78.5q0 94 136 130h-133l-38 129h-304l-38 -129h-205l233 698h326l233 -698q-84 -26 -84 -100q0 -28 14 -39.5t48 -11.5zM286 267h222l-42 144q-14 52 -54 197h-29q-8 -32 -26.5 -97.5t-27.5 -99.5z
" />
    <glyph glyph-name="aogonek" unicode="&#x105;" horiz-adv-x="735" 
d="M633 -151q39 0 81 9v-77q-47 -13 -131 -13q-75 0 -106.5 23.5t-31.5 78.5q0 94 136 130h-74l-9 56q-34 -38 -91.5 -57.5t-120.5 -19.5q-110 0 -172.5 45t-62.5 139q0 42 15 73.5t39.5 50t60.5 30t72 15t81 3.5h166q-1 51 -31 74t-94 23q-111 0 -131 -54h-170
q52 177 302 177q145 0 219.5 -55t74.5 -191v-309q-84 -26 -84 -100q0 -28 14 -39.5t48 -11.5zM331 94q64 0 109 27.5t45 89.5v23h-128q-70 0 -99 -15.5t-29 -53.5q0 -71 102 -71z" />
    <glyph glyph-name="Cacute" unicode="&#x106;" horiz-adv-x="880" 
d="M320 741l130 146h181l-187 -146h-124zM445 -14q-410 0 -410 362q0 184 105.5 273t304.5 89q345 0 399 -260l-209 1q-40 98 -190 98q-113 0 -159 -51.5t-46 -148.5q0 -98 46 -149.5t159 -51.5q150 0 191 103h209q-51 -265 -400 -265z" />
    <glyph glyph-name="cacute" unicode="&#x107;" horiz-adv-x="763" 
d="M262 593l142 160h199l-205 -160h-136zM385 -23q-165 0 -253.5 71.5t-88.5 219.5t88.5 220t253.5 72q151 0 234.5 -54t105.5 -170h-185q-24 81 -155 81q-90 0 -126.5 -37t-36.5 -112t36.5 -111.5t126.5 -36.5q131 0 155 81h185q-22 -117 -105 -170.5t-235 -53.5z" />
    <glyph glyph-name="Cdotaccent" unicode="&#x10a;" horiz-adv-x="880" 
d="M344 830q0 78 99 78t99 -78q0 -79 -99 -79t-99 79zM445 -14q-410 0 -410 362q0 184 105.5 273t304.5 89q345 0 399 -260l-209 1q-40 98 -190 98q-113 0 -159 -51.5t-46 -148.5q0 -98 46 -149.5t159 -51.5q150 0 191 103h209q-51 -265 -400 -265z" />
    <glyph glyph-name="cdotaccent" unicode="&#x10b;" horiz-adv-x="763" 
d="M286 675q0 84 99 84t99 -84t-99 -84t-99 84zM385 -23q-165 0 -253.5 71.5t-88.5 219.5t88.5 220t253.5 72q151 0 234.5 -54t105.5 -170h-185q-24 81 -155 81q-90 0 -126.5 -37t-36.5 -112t36.5 -111.5t126.5 -36.5q131 0 155 81h185q-22 -117 -105 -170.5t-235 -53.5z
" />
    <glyph glyph-name="Ccaron" unicode="&#x10c;" horiz-adv-x="880" 
d="M383 750l-152 146h133l82 -64l82 64h133l-152 -146h-126zM445 -14q-410 0 -410 362q0 184 105.5 273t304.5 89q345 0 399 -260l-209 1q-40 98 -190 98q-113 0 -159 -51.5t-46 -148.5q0 -98 46 -149.5t159 -51.5q150 0 191 103h209q-51 -265 -400 -265z" />
    <glyph glyph-name="ccaron" unicode="&#x10d;" horiz-adv-x="763" 
d="M322 593l-152 170h133l82 -75l82 75h133l-152 -170h-126zM385 -23q-165 0 -253.5 71.5t-88.5 219.5t88.5 220t253.5 72q151 0 234.5 -54t105.5 -170h-185q-24 81 -155 81q-90 0 -126.5 -37t-36.5 -112t36.5 -111.5t126.5 -36.5q131 0 155 81h185q-22 -117 -105 -170.5
t-235 -53.5z" />
    <glyph glyph-name="Dcaron" unicode="&#x10e;" horiz-adv-x="847" 
d="M449 738h-126l-152 146h133l82 -64l82 64h133zM407 698q209 0 307 -80t98 -269q0 -182 -99.5 -265.5t-307.5 -83.5h-325v698h327zM397 153q116 0 167.5 45t51.5 151q0 105 -51.5 150.5t-167.5 45.5h-123v-392h123z" />
    <glyph glyph-name="dcaron" unicode="&#x10f;" horiz-adv-x="1016" 
d="M535 489v251h180v-740h-144l-7 79q-76 -102 -234 -102q-135 0 -211 74t-76 219q0 141 78.5 214t208.5 73q128 0 205 -68zM893 736q50 0 76.5 -24.5t26.5 -69.5q0 -34 -20.5 -70.5t-41 -57.5t-53.5 -50l-102 2q76 78 100 111q8 11 -2 11q-35 2 -58.5 19.5t-23.5 54.5
q0 35 26 54.5t72 19.5zM378 120q81 0 123.5 40t42.5 107t-42.5 106.5t-123.5 39.5q-156 0 -156 -146q0 -147 156 -147z" />
    <glyph glyph-name="Dcroat" unicode="&#x110;" horiz-adv-x="847" 
d="M407 698q209 0 307 -80t98 -269q0 -182 -99.5 -265.5t-307.5 -83.5h-325v291h-64v108h64v299h327zM397 153q116 0 167.5 45t51.5 151q0 105 -51.5 150.5t-167.5 45.5h-123v-146h255v-108h-255v-138h123z" />
    <glyph glyph-name="dcroat" unicode="&#x111;" horiz-adv-x="791" 
d="M784 698v-88h-69v-610h-144l-7 79q-76 -102 -234 -102q-135 0 -211 74t-76 219q0 141 78.5 214t208.5 73q128 0 205 -68v121h-293v88h293v42h180v-42h69zM378 120q81 0 123.5 40t42.5 107t-42.5 106.5t-123.5 39.5q-156 0 -156 -146q0 -147 156 -147z" />
    <glyph glyph-name="Emacron" unicode="&#x112;" horiz-adv-x="714" 
d="M545 853v-98h-337v98h337zM648 538h-374v-110h366v-151h-366v-117h374v-160h-568v698h568v-160z" />
    <glyph glyph-name="emacron" unicode="&#x113;" horiz-adv-x="758" 
d="M553 708v-98h-337v98h337zM383 555q173 0 256 -81.5t81 -248.5h-500q3 -59 44.5 -87.5t127.5 -28.5q121 0 143 46h178q-15 -80 -103 -128t-225 -48q-77 0 -137 14.5t-107.5 46.5t-72.5 89.5t-25 137.5q0 140 87 214t253 74zM223 329h316q-13 100 -156 100
q-74 0 -113.5 -24t-46.5 -76z" />
    <glyph glyph-name="Edotaccent" unicode="&#x116;" horiz-adv-x="714" 
d="M376 739q-99 0 -99 79q0 78 99 78t99 -78q0 -79 -99 -79zM648 538h-374v-110h366v-151h-366v-117h374v-160h-568v698h568v-160z" />
    <glyph glyph-name="edotaccent" unicode="&#x117;" horiz-adv-x="758" 
d="M384 591q-99 0 -99 84t99 84t99 -84t-99 -84zM383 555q173 0 256 -81.5t81 -248.5h-500q3 -59 44.5 -87.5t127.5 -28.5q121 0 143 46h178q-15 -80 -103 -128t-225 -48q-77 0 -137 14.5t-107.5 46.5t-72.5 89.5t-25 137.5q0 140 87 214t253 74zM223 329h316
q-13 100 -156 100q-74 0 -113.5 -24t-46.5 -76z" />
    <glyph glyph-name="Eogonek" unicode="&#x118;" horiz-adv-x="714" 
d="M626 -153q39 0 81 9v-77q-47 -13 -131 -13q-75 0 -106.5 23.5t-31.5 78.5q0 96 143 132h-501v698h568v-160h-374v-110h366v-151h-366v-117h374v-160h-1l1 -2q-84 -26 -84 -100q0 -28 14 -39.5t48 -11.5z" />
    <glyph glyph-name="eogonek" unicode="&#x119;" horiz-adv-x="758" 
d="M383 555q173 0 256 -81.5t81 -248.5h-500q3 -59 44.5 -87.5t127.5 -28.5q121 0 143 46h178q-20 -104 -156 -151q-84 -26 -84 -100q0 -28 14 -39.5t48 -11.5q39 0 81 9v-77q-47 -13 -131 -13q-75 0 -106.5 23.5t-31.5 78.5q0 69 71 106q-11 -1 -33 -1q-77 0 -137 14.5
t-107.5 46.5t-72.5 89.5t-25 137.5q0 140 87 214t253 74zM223 329h316q-13 100 -156 100q-74 0 -113.5 -24t-46.5 -76z" />
    <glyph glyph-name="Ecaron" unicode="&#x11a;" horiz-adv-x="714" 
d="M442 738h-126l-152 146h133l82 -64l82 64h133zM648 538h-374v-110h366v-151h-366v-117h374v-160h-568v698h568v-160z" />
    <glyph glyph-name="ecaron" unicode="&#x11b;" horiz-adv-x="758" 
d="M447 593h-126l-152 170h133l82 -75l82 75h133zM383 555q173 0 256 -81.5t81 -248.5h-500q3 -59 44.5 -87.5t127.5 -28.5q121 0 143 46h178q-15 -80 -103 -128t-225 -48q-77 0 -137 14.5t-107.5 46.5t-72.5 89.5t-25 137.5q0 140 87 214t253 74zM223 329h316
q-13 100 -156 100q-74 0 -113.5 -24t-46.5 -76z" />
    <glyph glyph-name="Gbreve" unicode="&#x11e;" horiz-adv-x="881" 
d="M439 725q-103 0 -144.5 40.5t-39.5 116.5h102q0 -37 20 -54t62 -17t62 17t20 54h102q0 -77 -40.5 -117t-143.5 -40zM844 359q2 -26 2 -39q0 -335 -402 -335q-200 0 -304.5 86.5t-104.5 273.5q0 365 409 365q346 0 400 -260h-210q-40 98 -190 98q-113 0 -158.5 -52.5
t-45.5 -150.5q0 -97 45.5 -147t158.5 -50q183 0 204 110h-217l36 101h377z" />
    <glyph glyph-name="gbreve" unicode="&#x11f;" horiz-adv-x="799" 
d="M356 595q-105 0 -150 40t-45 115h109q0 -37 20.5 -54t65.5 -17q44 0 64.5 17t20.5 54h109q0 -75 -44.5 -115t-149.5 -40zM571 534h148v-455q0 -167 -70.5 -238t-257.5 -71q-139 0 -215.5 43t-108.5 141h183q37 -60 141 -60q84 0 117 31t33 103v19q-73 -53 -185 -53
q-300 0 -300 280q0 281 300 281q133 0 211 -76zM392 133q83 0 121.5 38t38.5 102q0 139 -160 139q-158 0 -158 -138q0 -141 158 -141z" />
    <glyph glyph-name="Gdotaccent" unicode="&#x120;" horiz-adv-x="881" 
d="M443 739q-99 0 -99 79q0 78 99 78t99 -78q0 -79 -99 -79zM844 359q2 -26 2 -39q0 -335 -402 -335q-200 0 -304.5 86.5t-104.5 273.5q0 365 409 365q346 0 400 -260h-210q-40 98 -190 98q-113 0 -158.5 -52.5t-45.5 -150.5q0 -97 45.5 -147t158.5 -50q183 0 204 110h-217
l36 101h377z" />
    <glyph glyph-name="gdotaccent" unicode="&#x121;" horiz-adv-x="799" 
d="M356 591q-99 0 -99 84t99 84t99 -84t-99 -84zM571 534h148v-455q0 -167 -70.5 -238t-257.5 -71q-139 0 -215.5 43t-108.5 141h183q37 -60 141 -60q84 0 117 31t33 103v19q-73 -53 -185 -53q-300 0 -300 280q0 281 300 281q133 0 211 -76zM392 133q83 0 121.5 38t38.5 102
q0 139 -160 139q-158 0 -158 -138q0 -141 158 -141z" />
    <glyph glyph-name="uni0122" unicode="&#x122;" horiz-adv-x="881" 
d="M844 359q2 -26 2 -39q0 -335 -402 -335q-200 0 -304.5 86.5t-104.5 273.5q0 365 409 365q346 0 400 -260h-210q-40 98 -190 98q-113 0 -158.5 -52.5t-45.5 -150.5q0 -97 45.5 -147t158.5 -50q183 0 204 110h-217l36 101h377zM444 -88q101 0 101 -88q0 -78 -110 -165h-100
q63 60 95 103q8 11 -2 11q-80 0 -80 69q0 32 24.5 51t71.5 19z" />
    <glyph glyph-name="uni0123" unicode="&#x123;" horiz-adv-x="799" 
d="M356 602q-101 0 -101 88q0 78 110 165h100q-63 -60 -95 -103q-8 -11 2 -11q80 0 80 -69q0 -32 -24.5 -51t-71.5 -19zM571 534h148v-455q0 -167 -70.5 -238t-257.5 -71q-139 0 -215.5 43t-108.5 141h183q37 -60 141 -60q84 0 117 31t33 103v19q-73 -53 -185 -53
q-300 0 -300 280q0 281 300 281q133 0 211 -76zM392 133q83 0 121.5 38t38.5 102q0 139 -160 139q-158 0 -158 -138q0 -141 158 -141z" />
    <glyph glyph-name="Hbar" unicode="&#x126;" horiz-adv-x="845" 
d="M829 629v-108h-64v-521h-194v272h-297v-272h-194v521h-64v108h64v69h194v-69h297v69h194v-69h64zM571 436v85h-297v-85h297z" />
    <glyph glyph-name="hbar" unicode="&#x127;" horiz-adv-x="791" 
d="M458 555q129 0 191 -61.5t62 -210.5v-283h-180v279q0 69 -32.5 98.5t-102.5 29.5q-136 0 -136 -125v-282h-180v610h-64v88h64v42h180v-42h314v-88h-314v-118q70 63 198 63z" />
    <glyph glyph-name="Imacron" unicode="&#x12a;" horiz-adv-x="354" 
d="M9 755v98h337v-98h-337zM80 0v698h194v-698h-194z" />
    <glyph glyph-name="imacron" unicode="&#x12b;" horiz-adv-x="340" 
d="M2 610v98h337v-98h-337zM80 0v534h180v-534h-180z" />
    <glyph glyph-name="Iogonek" unicode="&#x12e;" horiz-adv-x="354" 
d="M254 -155q39 0 81 9v-77q-47 -13 -131 -13q-75 0 -106.5 23.5t-31.5 78.5q0 98 151 134h-137v698h194v-697l2 -5q-84 -26 -84 -100q0 -28 14 -39.5t48 -11.5z" />
    <glyph glyph-name="iogonek" unicode="&#x12f;" horiz-adv-x="340" 
d="M170 591q-99 0 -99 84t99 84t99 -84t-99 -84zM238 -151q39 0 81 9v-77q-47 -13 -131 -13q-75 0 -106.5 23.5t-31.5 78.5q0 94 136 130h-106v534h180v-534q-84 -26 -84 -100q0 -28 14 -39.5t48 -11.5z" />
    <glyph glyph-name="Idotaccent" unicode="&#x130;" horiz-adv-x="354" 
d="M78 818q0 78 99 78t99 -78q0 -79 -99 -79t-99 79zM80 0v698h194v-698h-194z" />
    <glyph glyph-name="dotlessi" unicode="&#x131;" horiz-adv-x="340" 
d="M80 0v534h180v-534h-180z" />
    <glyph glyph-name="uni0136" unicode="&#x136;" horiz-adv-x="756" 
d="M483 405l278 -405h-221l-181 263l-85 -97v-166h-194v698h194v-309q37 48 86 107l170 202h209zM378 -73q101 0 101 -88q0 -78 -110 -165h-100q63 60 95 103q8 11 -2 11q-80 0 -80 69q0 32 24.5 51t71.5 19z" />
    <glyph glyph-name="uni0137" unicode="&#x137;" horiz-adv-x="706" 
d="M472 299l234 -299h-206l-146 182l-94 -93v-89h-180v740h180v-454l82 81l163 161h198zM347 -73q101 0 101 -88q0 -78 -110 -165h-100q63 60 95 103q8 11 -2 11q-80 0 -80 69q0 32 24.5 51t71.5 19z" />
    <glyph glyph-name="Lacute" unicode="&#x139;" horiz-adv-x="638" 
d="M367 875l-187 -146h-124l130 146h181zM274 162h354v-162h-548v698h194v-536z" />
    <glyph glyph-name="lacute" unicode="&#x13a;" horiz-adv-x="340" 
d="M49 774l142 160h199l-205 -160h-136zM80 0v740h180v-740h-180z" />
    <glyph glyph-name="uni013B" unicode="&#x13b;" horiz-adv-x="638" 
d="M274 162h354v-162h-548v698h194v-536zM359 -58q101 0 101 -88q0 -78 -110 -165h-100q63 60 95 103q8 11 -2 11q-80 0 -80 69q0 32 24.5 51t71.5 19z" />
    <glyph glyph-name="uni013C" unicode="&#x13c;" horiz-adv-x="340" 
d="M80 0v740h180v-740h-180zM63 -326q63 60 95 103q8 11 -2 11q-80 0 -80 69q0 32 24.5 51t71.5 19q101 0 101 -88q0 -78 -110 -165h-100z" />
    <glyph glyph-name="Lcaron" unicode="&#x13d;" horiz-adv-x="638" 
d="M410 435q76 78 100 111q8 11 -2 11q-34 0 -58 18.5t-24 55.5q0 35 26 54.5t72 19.5q50 0 76.5 -24.5t26.5 -69.5q0 -80 -115 -176h-102zM274 162h354v-162h-548v698h194v-536z" />
    <glyph glyph-name="lcaron" unicode="&#x13e;" horiz-adv-x="556" 
d="M80 0v740h180v-740h-180zM319 466q76 78 100 111q8 11 -2 11q-35 2 -58.5 19.5t-23.5 54.5q0 35 26 54.5t72 19.5q50 0 76.5 -24.5t26.5 -69.5q0 -34 -20.5 -70.5t-41 -57.5t-53.5 -50z" />
    <glyph glyph-name="Lslash" unicode="&#x141;" horiz-adv-x="638" 
d="M274 162h354v-162h-548v300l-66 -7v108l66 7v290h194v-268l259 29v-108l-259 -29v-160z" />
    <glyph glyph-name="lslash" unicode="&#x142;" horiz-adv-x="343" 
d="M339 444v-78l-79 -24v-342h-180v287l-75 -23v78l75 23v375h180v-320z" />
    <glyph glyph-name="Nacute" unicode="&#x143;" horiz-adv-x="825" 
d="M309 729l130 146h181l-187 -146h-124zM80 0v698h330q93 -398 109 -461q18 -76 30 -147h23v608h173v-698h-329q-21 83 -57 237.5t-53 222.5q-17 73 -30 148h-23v-608h-173z" />
    <glyph glyph-name="nacute" unicode="&#x144;" horiz-adv-x="791" 
d="M614 753l-205 -160h-136l142 160h199zM458 555q132 0 192.5 -61.5t60.5 -193.5v-300h-180v287q0 66 -32 95.5t-100 29.5q-136 0 -139 -113v-299h-180v534h151l5 -68q70 89 222 89z" />
    <glyph glyph-name="uni0145" unicode="&#x145;" horiz-adv-x="825" 
d="M80 0v698h330q93 -398 109 -461q18 -76 30 -147h23v608h173v-698h-329q-21 83 -57 237.5t-53 222.5q-17 73 -30 148h-23v-608h-173zM352 -326q63 60 95 103q8 11 -2 11q-80 0 -80 69q0 32 24.5 51t71.5 19q101 0 101 -88q0 -78 -110 -165h-100z" />
    <glyph glyph-name="uni0146" unicode="&#x146;" horiz-adv-x="791" 
d="M458 555q132 0 192.5 -61.5t60.5 -193.5v-300h-180v287q0 66 -32 95.5t-100 29.5q-136 0 -139 -113v-299h-180v534h151l5 -68q70 89 222 89zM396 -73q101 0 101 -88q0 -78 -110 -165h-100q63 60 95 103q8 11 -2 11q-80 0 -80 69q0 32 24.5 51t71.5 19z" />
    <glyph glyph-name="Ncaron" unicode="&#x147;" horiz-adv-x="825" 
d="M372 738l-152 146h133l82 -64l82 64h133l-152 -146h-126zM80 0v698h330q93 -398 109 -461q18 -76 30 -147h23v608h173v-698h-329q-21 83 -57 237.5t-53 222.5q-17 73 -30 148h-23v-608h-173z" />
    <glyph glyph-name="ncaron" unicode="&#x148;" horiz-adv-x="791" 
d="M459 593h-126l-152 170h133l82 -75l82 75h133zM458 555q132 0 192.5 -61.5t60.5 -193.5v-300h-180v287q0 66 -32 95.5t-100 29.5q-136 0 -139 -113v-299h-180v534h151l5 -68q70 89 222 89z" />
    <glyph glyph-name="Omacron" unicode="&#x14c;" horiz-adv-x="889" 
d="M276 767v98h337v-98h-337zM35 348q0 184 105.5 273t303.5 89t304 -89t106 -273q0 -185 -106 -274t-304 -89t-303.5 89t-105.5 274zM240 348q0 -96 46 -148t158 -52q113 0 159 52t46 148q0 97 -46 148.5t-159 51.5t-158.5 -51.5t-45.5 -148.5z" />
    <glyph glyph-name="omacron" unicode="&#x14d;" horiz-adv-x="772" 
d="M218 610v98h337v-98h-337zM386 -23q-166 0 -254.5 71.5t-88.5 218.5t88.5 218.5t254.5 71.5t254.5 -71.5t88.5 -218.5t-88.5 -218.5t-254.5 -71.5zM386 120q89 0 126 36.5t37 110.5t-37 110.5t-126 36.5t-126 -36.5t-37 -110.5t37 -110.5t126 -36.5z" />
    <glyph glyph-name="Ohungarumlaut" unicode="&#x150;" horiz-adv-x="889" 
d="M294 741l105 146h158l-149 -146h-114zM485 741l137 146h175l-192 -146h-120zM35 348q0 184 105.5 273t303.5 89t304 -89t106 -273q0 -185 -106 -274t-304 -89t-303.5 89t-105.5 274zM240 348q0 -96 46 -148t158 -52q113 0 159 52t46 148q0 97 -46 148.5t-159 51.5
t-158.5 -51.5t-45.5 -148.5z" />
    <glyph glyph-name="ohungarumlaut" unicode="&#x151;" horiz-adv-x="772" 
d="M207 603l102 170h184l-155 -170h-131zM423 603l152 170h199l-215 -170h-136zM386 -23q-166 0 -254.5 71.5t-88.5 218.5t88.5 218.5t254.5 71.5t254.5 -71.5t88.5 -218.5t-88.5 -218.5t-254.5 -71.5zM386 120q89 0 126 36.5t37 110.5t-37 110.5t-126 36.5t-126 -36.5
t-37 -110.5t37 -110.5t126 -36.5z" />
    <glyph glyph-name="OE" unicode="&#x152;" horiz-adv-x="1174" 
d="M444 -15q-198 0 -303.5 89t-105.5 274q0 184 105.5 273t303.5 89q77 0 122 -13l542 1v-159h-350v-111h344v-153h-344v-116h350v-159h-520q-52 -15 -144 -15zM444 148q74 0 122 24v352q-48 24 -122 24q-113 0 -158.5 -51.5t-45.5 -148.5q0 -96 46 -148t158 -52z" />
    <glyph glyph-name="oe" unicode="&#x153;" horiz-adv-x="1264" 
d="M386 -23q-166 0 -254.5 71.5t-88.5 218.5t88.5 218.5t254.5 71.5q178 0 255 -81q46 44 105.5 61.5t142.5 17.5q179 0 259 -84t78 -246h-500q10 -114 164 -114q115 0 142 44h182q-23 -87 -109 -131.5t-216 -44.5q-165 0 -249 72q-52 -41 -108 -57.5t-146 -16.5zM729 329
h316q-21 100 -156 100q-145 0 -160 -100zM386 120q89 0 126 36.5t37 110.5t-37 110.5t-126 36.5t-126 -36.5t-37 -110.5t37 -110.5t126 -36.5z" />
    <glyph glyph-name="Racute" unicode="&#x154;" horiz-adv-x="783" 
d="M555 875l-187 -146h-124l130 146h181zM544 0l-134 239h-136v-239h-194v698h404q262 0 262 -236q0 -149 -136 -199l152 -263h-218zM274 548v-173h172q57 0 80 21.5t23 65.5q0 86 -87 86h-188z" />
    <glyph glyph-name="racute" unicode="&#x155;" horiz-adv-x="530" 
d="M483 753l-205 -160h-136l142 160h199zM486 551h33v-157h-40q-40 0 -69 -3t-59 -12t-48.5 -25.5t-30.5 -44.5t-12 -67v-242h-180v534h147l5 -89h5q40 66 91 86t158 20z" />
    <glyph glyph-name="uni0156" unicode="&#x156;" horiz-adv-x="783" 
d="M610 263l152 -263h-218l-134 239h-136v-239h-194v698h404q262 0 262 -236q0 -149 -136 -199zM274 548v-173h172q57 0 80 21.5t23 65.5q0 86 -87 86h-188zM385 -73q101 0 101 -88q0 -78 -110 -165h-100q63 60 95 103q8 11 -2 11q-80 0 -80 69q0 32 24.5 51t71.5 19z" />
    <glyph glyph-name="uni0157" unicode="&#x157;" horiz-adv-x="530" 
d="M486 551h33v-157h-40q-40 0 -69 -3t-59 -12t-48.5 -25.5t-30.5 -44.5t-12 -67v-242h-180v534h147l5 -89h5q40 66 91 86t158 20zM173 -73q101 0 101 -88q0 -78 -110 -165h-100q63 60 95 103q8 11 -2 11q-80 0 -80 69q0 32 24.5 51t71.5 19z" />
    <glyph glyph-name="Rcaron" unicode="&#x158;" horiz-adv-x="783" 
d="M433 738h-126l-152 146h133l82 -64l82 64h133zM544 0l-134 239h-136v-239h-194v698h404q262 0 262 -236q0 -149 -136 -199l152 -263h-218zM274 548v-173h172q57 0 80 21.5t23 65.5q0 86 -87 86h-188z" />
    <glyph glyph-name="rcaron" unicode="&#x159;" horiz-adv-x="530" 
d="M328 593h-126l-152 170h133l82 -75l82 75h133zM486 551h33v-157h-40q-40 0 -69 -3t-59 -12t-48.5 -25.5t-30.5 -44.5t-12 -67v-242h-180v534h147l5 -89h5q40 66 91 86t158 20z" />
    <glyph glyph-name="Sacute" unicode="&#x15a;" horiz-adv-x="737" 
d="M248 724l130 146h181l-187 -146h-124zM388 -13q-306 0 -355 229h216q12 -35 45.5 -52.5t101.5 -17.5q58 0 93.5 17.5t35.5 54.5t-28 49t-84 14q-24 1 -66 1q-47 0 -84.5 4.5t-77 17.5t-66 35t-43.5 59.5t-17 88.5q0 73 47 125t115 74t148 22q300 0 347 -215h-207
q-26 67 -140 67q-54 0 -87.5 -18.5t-33.5 -47.5q0 -34 31.5 -45.5t108.5 -11.5h46q62 0 110 -9.5t89 -32.5t63 -66t22 -105q0 -119 -92 -178t-238 -59z" />
    <glyph glyph-name="sacute" unicode="&#x15b;" horiz-adv-x="692" 
d="M222 620l142 160h199l-205 -160h-136zM355 -23q-133 0 -214 43.5t-111 144.5h183q27 -57 142 -57q124 0 124 55q0 31 -26.5 38.5t-98.5 7.5h-29q-46 0 -80 3t-69.5 13.5t-58 28t-37 48t-14.5 72.5q0 77 73.5 130t205.5 53q45 0 81.5 -4t75.5 -15.5t67.5 -31.5t52.5 -54.5
t36 -80.5h-175q-16 39 -49.5 50.5t-88.5 11.5q-113 0 -113 -54q0 -16 8 -25t29.5 -13t42.5 -5t65 -1h11q124 0 192.5 -37.5t68.5 -130.5q0 -67 -44 -111.5t-107.5 -61.5t-142.5 -17z" />
    <glyph glyph-name="Scedilla" unicode="&#x15e;" horiz-adv-x="737" 
d="M718 224q0 -112 -81.5 -171t-214.5 -65l-16 -28q55 0 80.5 -23t25.5 -74q0 -113 -147 -113q-80 0 -113 13v77q44 -12 99 -12q27 0 38.5 8t11.5 28q0 18 -9.5 26t-33.5 8q-31 0 -56 -1l40 91q-264 16 -309 228h216q12 -35 45.5 -52.5t101.5 -17.5q58 0 93.5 17.5
t35.5 54.5t-28 49t-84 14q-24 1 -66 1q-47 0 -84.5 4.5t-77 17.5t-66 35t-43.5 59.5t-17 88.5q0 73 47 125t115 74t148 22q300 0 347 -215h-207q-26 67 -140 67q-54 0 -87.5 -18.5t-33.5 -47.5q0 -34 31.5 -45.5t108.5 -11.5h46q62 0 110 -9.5t89 -32.5t63 -66t22 -105z" />
    <glyph glyph-name="scedilla" unicode="&#x15f;" horiz-adv-x="692" 
d="M388 335q124 0 192.5 -37.5t68.5 -130.5q0 -90 -71 -135.5t-181 -53.5l-11 -19q55 0 80.5 -23t25.5 -74q0 -113 -147 -113q-80 0 -113 13v77q44 -12 99 -12q27 0 38.5 8t11.5 28q0 18 -9.5 26t-33.5 8q-31 0 -56 -1l36 82q-117 5 -188.5 49.5t-99.5 137.5h183
q27 -57 142 -57q124 0 124 55q0 31 -26.5 38.5t-98.5 7.5h-29q-46 0 -80 3t-69.5 13.5t-58 28t-37 48t-14.5 72.5q0 77 73.5 130t205.5 53q45 0 81.5 -4t75.5 -15.5t67.5 -31.5t52.5 -54.5t36 -80.5h-175q-16 39 -49.5 50.5t-88.5 11.5q-113 0 -113 -54q0 -16 8 -25
t29.5 -13t42.5 -5t65 -1h11z" />
    <glyph glyph-name="Scaron" unicode="&#x160;" horiz-adv-x="737" 
d="M311 733l-152 146h133l82 -64l82 64h133l-152 -146h-126zM388 -13q-306 0 -355 229h216q12 -35 45.5 -52.5t101.5 -17.5q58 0 93.5 17.5t35.5 54.5t-28 49t-84 14q-24 1 -66 1q-47 0 -84.5 4.5t-77 17.5t-66 35t-43.5 59.5t-17 88.5q0 73 47 125t115 74t148 22
q300 0 347 -215h-207q-26 67 -140 67q-54 0 -87.5 -18.5t-33.5 -47.5q0 -34 31.5 -45.5t108.5 -11.5h46q62 0 110 -9.5t89 -32.5t63 -66t22 -105q0 -119 -92 -178t-238 -59z" />
    <glyph glyph-name="scaron" unicode="&#x161;" horiz-adv-x="692" 
d="M282 620l-152 170h133l82 -75l82 75h133l-152 -170h-126zM355 -23q-133 0 -214 43.5t-111 144.5h183q27 -57 142 -57q124 0 124 55q0 31 -26.5 38.5t-98.5 7.5h-29q-46 0 -80 3t-69.5 13.5t-58 28t-37 48t-14.5 72.5q0 77 73.5 130t205.5 53q45 0 81.5 -4t75.5 -15.5
t67.5 -31.5t52.5 -54.5t36 -80.5h-175q-16 39 -49.5 50.5t-88.5 11.5q-113 0 -113 -54q0 -16 8 -25t29.5 -13t42.5 -5t65 -1h11q124 0 192.5 -37.5t68.5 -130.5q0 -67 -44 -111.5t-107.5 -61.5t-142.5 -17z" />
    <glyph glyph-name="uni0162" unicode="&#x162;" horiz-adv-x="688" 
d="M441 0h-34l-28 -41q53 -1 78 -24t25 -73q0 -113 -147 -113q-80 0 -113 13v77q44 -12 99 -12q27 0 38.5 8t11.5 28q0 18 -9.5 26t-33.5 8q-31 0 -56 -1l25 51l-2 1q2 0 2 1l25 51h-75v534h-227v164h648v-164h-227v-534z" />
    <glyph glyph-name="uni0163" unicode="&#x163;" horiz-adv-x="601" 
d="M425 0q-37 0 -68 3l-25 -44q55 0 80.5 -23t25.5 -74q0 -113 -147 -113q-80 0 -113 13v77q44 -12 99 -12q27 0 38.5 8t11.5 28q0 18 -9.5 26t-33.5 8q-31 0 -56 -1l52 120q-66 21 -96 77t-30 164v144h-137v133h49q79 0 104.5 31.5t29.5 122.5h134v-154h241v-133h-241v-140
q0 -75 26 -93.5t115 -18.5h102v-149h-152z" />
    <glyph glyph-name="Tcaron" unicode="&#x164;" horiz-adv-x="688" 
d="M285 739l-152 146h133l82 -64l82 64h133l-152 -146h-126zM20 534v164h648v-164h-227v-534h-194v534h-227z" />
    <glyph glyph-name="tcaron" unicode="&#x165;" horiz-adv-x="695" 
d="M458 563q72 72 100 111q8 11 -2 11q-35 2 -58.5 19.5t-23.5 54.5q0 35 26 54.5t72 19.5q50 0 76.5 -24.5t26.5 -69.5q0 -75 -115 -176h-102zM425 0q-59 0 -100.5 6.5t-75.5 23t-54 45.5t-30.5 73.5t-10.5 108.5v144h-137v133h49q79 0 104.5 31.5t29.5 122.5h134v-154h241
v-133h-241v-140q0 -75 26 -93.5t115 -18.5h102v-149h-152z" />
    <glyph glyph-name="Tbar" unicode="&#x166;" horiz-adv-x="688" 
d="M668 534h-227v-135h164v-108h-164v-291h-194v291h-164v108h164v135h-227v164h648v-164z" />
    <glyph glyph-name="tbar" unicode="&#x167;" horiz-adv-x="601" 
d="M475 149h102v-149h-152q-73 0 -120.5 10t-83 37t-51 76t-16.5 125h-136v94h136v59h-137v133h49q79 0 104.5 31.5t29.5 122.5h134v-154h241v-133h-241v-59h240v-94h-240q2 -66 28.5 -82.5t112.5 -16.5z" />
    <glyph glyph-name="Umacron" unicode="&#x16a;" horiz-adv-x="807" 
d="M238 755v98h337v-98h-337zM70 276v422h194v-417q0 -73 30.5 -109.5t111.5 -36.5q80 0 109.5 37t29.5 111v415h192v-422q0 -152 -83 -222.5t-250 -70.5q-168 0 -251 70.5t-83 222.5z" />
    <glyph glyph-name="umacron" unicode="&#x16b;" horiz-adv-x="790" 
d="M565 708v-98h-337v98h337zM530 528h180v-528h-148l-9 77q-35 -49 -85 -72t-130 -23q-127 0 -192.5 60.5t-65.5 203.5v282h180v-274q0 -69 33 -97.5t102 -28.5q63 0 99 30t36 88v282z" />
    <glyph glyph-name="Uring" unicode="&#x16e;" horiz-adv-x="807" 
d="M406 728q-154 0 -154 109q0 108 154 108q155 0 155 -108q0 -109 -155 -109zM406 786q62 0 62 51q0 49 -62 49t-62 -49q0 -51 62 -51zM70 276v422h194v-417q0 -73 30.5 -109.5t111.5 -36.5q80 0 109.5 37t29.5 111v415h192v-422q0 -152 -83 -222.5t-250 -70.5
q-168 0 -251 70.5t-83 222.5z" />
    <glyph glyph-name="uring" unicode="&#x16f;" horiz-adv-x="790" 
d="M396 593q-154 0 -154 127q0 125 154 125q155 0 155 -125q0 -127 -155 -127zM396 777q-33 0 -47.5 -14t-14.5 -43q0 -59 62 -59t62 59q0 29 -14.5 43t-47.5 14zM530 528h180v-528h-148l-9 77q-35 -49 -85 -72t-130 -23q-127 0 -192.5 60.5t-65.5 203.5v282h180v-274
q0 -69 33 -97.5t102 -28.5q63 0 99 30t36 88v282z" />
    <glyph glyph-name="Uhungarumlaut" unicode="&#x170;" horiz-adv-x="807" 
d="M256 729l105 146h158l-149 -146h-114zM447 729l137 146h175l-192 -146h-120zM70 276v422h194v-417q0 -73 30.5 -109.5t111.5 -36.5q80 0 109.5 37t29.5 111v415h192v-422q0 -152 -83 -222.5t-250 -70.5q-168 0 -251 70.5t-83 222.5z" />
    <glyph glyph-name="uhungarumlaut" unicode="&#x171;" horiz-adv-x="790" 
d="M503 773l-155 -170h-131l102 170h184zM569 603h-136l152 170h199zM530 528h180v-528h-148l-9 77q-35 -49 -85 -72t-130 -23q-127 0 -192.5 60.5t-65.5 203.5v282h180v-274q0 -69 33 -97.5t102 -28.5q63 0 99 30t36 88v282z" />
    <glyph glyph-name="Uogonek" unicode="&#x172;" horiz-adv-x="807" 
d="M545 698h192v-422q0 -211 -167 -269q-58 -31 -58 -90q0 -28 14 -39.5t48 -11.5q39 0 81 9v-77q-47 -13 -131 -13q-75 0 -106.5 23.5t-31.5 78.5q0 62 56 97q-13 -1 -38 -1q-168 0 -251 70.5t-83 222.5v422h194v-417q0 -73 30.5 -109.5t111.5 -36.5q80 0 109.5 37
t29.5 111v415z" />
    <glyph glyph-name="uogonek" unicode="&#x173;" horiz-adv-x="790" 
d="M688 -151q39 0 81 9v-77q-47 -13 -131 -13q-75 0 -106.5 23.5t-31.5 78.5q0 94 136 130h-74l-9 77q-35 -49 -85 -72t-130 -23q-127 0 -192.5 60.5t-65.5 203.5v282h180v-274q0 -69 33 -97.5t102 -28.5q63 0 99 30t36 88v282h180v-528q-84 -26 -84 -100q0 -28 14 -39.5
t48 -11.5z" />
    <glyph glyph-name="Wcircumflex" unicode="&#x174;" horiz-adv-x="955" 
d="M259 728l152 170h126l152 -170h-133l-82 75l-82 -75h-133zM121 0l-94 698h190q12 -96 21.5 -190.5t13.5 -136.5t12 -152t10 -129h19q3 27 17.5 169t27.5 261t22 178h240q9 -59 22 -178t27.5 -261t17.5 -169h19q5 54 13.5 168.5t18.5 216t25 223.5h190l-94 -698h-287
l-63 608h-18l-63 -608h-287z" />
    <glyph glyph-name="wcircumflex" unicode="&#x175;" horiz-adv-x="855" 
d="M424 670l-82 -75h-133l152 170h126l152 -170h-133zM642 534h183l-68 -534h-278l-44 444h-20l-38 -444h-279l-68 534h184q21 -221 34 -444h22q4 42 21 214.5t23 228.5h229q9 -79 43 -443h22q13 223 34 444z" />
    <glyph glyph-name="Ycircumflex" unicode="&#x176;" horiz-adv-x="713" 
d="M351 803l-82 -75h-133l152 170h126l152 -170h-133zM728 698l-273 -442v-256h-196v256l-273 442h204q100 -166 156 -273h21q25 48 64 116t66 113l27 44h204z" />
    <glyph glyph-name="ycircumflex" unicode="&#x177;" horiz-adv-x="724" 
d="M375 668l-82 -75h-133l152 170h126l152 -170h-133zM511 534h193l-166 -490q-21 -61 -36 -98.5t-36 -67t-38.5 -43.5t-51 -23t-64.5 -10.5t-88 -1.5h-122v134h127q63 0 87 14t36 52h-148l-194 534h199l136 -431h36z" />
    <glyph glyph-name="Ydieresis" unicode="&#x178;" horiz-adv-x="713" 
d="M217 739q-100 0 -100 79t100 79q99 0 99 -79t-99 -79zM497 739q-100 0 -100 79t100 79q99 0 99 -79t-99 -79zM728 698l-273 -442v-256h-196v256l-273 442h204q100 -166 156 -273h21q25 48 64 116t66 113l27 44h204z" />
    <glyph glyph-name="Zacute" unicode="&#x179;" horiz-adv-x="708" 
d="M222 729l130 146h181l-187 -146h-124zM63 0v116l220 255q82 95 156 165l-3 8q-70 -4 -247 -4h-141v158h616v-116l-220 -257q-71 -84 -159 -164l3 -7q90 4 230 4h154v-158h-609z" />
    <glyph glyph-name="zacute" unicode="&#x17a;" horiz-adv-x="673" 
d="M209 593l142 160h199l-205 -160h-136zM316 137q56 4 153 4h165v-141h-584v88l172 166q24 23 149 131l-2 12q-68 -4 -150 -4h-179v141h587v-88l-195 -193q-26 -26 -120 -104z" />
    <glyph glyph-name="Zdotaccent" unicode="&#x17b;" horiz-adv-x="708" 
d="M246 818q0 78 99 78t99 -78q0 -79 -99 -79t-99 79zM63 0v116l220 255q82 95 156 165l-3 8q-70 -4 -247 -4h-141v158h616v-116l-220 -257q-71 -84 -159 -164l3 -7q90 4 230 4h154v-158h-609z" />
    <glyph glyph-name="zdotaccent" unicode="&#x17c;" horiz-adv-x="673" 
d="M233 675q0 84 99 84t99 -84t-99 -84t-99 84zM316 137q56 4 153 4h165v-141h-584v88l172 166q24 23 149 131l-2 12q-68 -4 -150 -4h-179v141h587v-88l-195 -193q-26 -26 -120 -104z" />
    <glyph glyph-name="Zcaron" unicode="&#x17d;" horiz-adv-x="708" 
d="M285 738l-152 146h133l82 -64l82 64h133l-152 -146h-126zM63 0v116l220 255q82 95 156 165l-3 8q-70 -4 -247 -4h-141v158h616v-116l-220 -257q-71 -84 -159 -164l3 -7q90 4 230 4h154v-158h-609z" />
    <glyph glyph-name="zcaron" unicode="&#x17e;" horiz-adv-x="673" 
d="M269 593l-152 170h133l82 -75l82 75h133l-152 -170h-126zM316 137q56 4 153 4h165v-141h-584v88l172 166q24 23 149 131l-2 12q-68 -4 -150 -4h-179v141h587v-88l-195 -193q-26 -26 -120 -104z" />
    <glyph glyph-name="uni0218" unicode="&#x218;" horiz-adv-x="737" 
d="M388 -13q-306 0 -355 229h216q12 -35 45.5 -52.5t101.5 -17.5q58 0 93.5 17.5t35.5 54.5t-28 49t-84 14q-24 1 -66 1q-47 0 -84.5 4.5t-77 17.5t-66 35t-43.5 59.5t-17 88.5q0 73 47 125t115 74t148 22q300 0 347 -215h-207q-26 67 -140 67q-54 0 -87.5 -18.5
t-33.5 -47.5q0 -34 31.5 -45.5t108.5 -11.5h46q62 0 110 -9.5t89 -32.5t63 -66t22 -105q0 -119 -92 -178t-238 -59zM266 -325q63 60 95 103q8 11 -2 11q-80 0 -80 69q0 32 24.5 51t71.5 19q101 0 101 -88q0 -78 -110 -165h-100z" />
    <glyph glyph-name="uni0219" unicode="&#x219;" horiz-adv-x="692" 
d="M355 -23q-133 0 -214 43.5t-111 144.5h183q27 -57 142 -57q124 0 124 55q0 31 -26.5 38.5t-98.5 7.5h-29q-46 0 -80 3t-69.5 13.5t-58 28t-37 48t-14.5 72.5q0 77 73.5 130t205.5 53q45 0 81.5 -4t75.5 -15.5t67.5 -31.5t52.5 -54.5t36 -80.5h-175q-16 39 -49.5 50.5
t-88.5 11.5q-113 0 -113 -54q0 -16 8 -25t29.5 -13t42.5 -5t65 -1h11q124 0 192.5 -37.5t68.5 -130.5q0 -67 -44 -111.5t-107.5 -61.5t-142.5 -17zM246 -326q63 60 95 103q8 11 -2 11q-80 0 -80 69q0 32 24.5 51t71.5 19q101 0 101 -88q0 -78 -110 -165h-100z" />
    <glyph glyph-name="uni021A" unicode="&#x21a;" horiz-adv-x="688" 
d="M20 534v164h648v-164h-227v-534h-194v534h-227zM236 -326q63 60 95 103q8 11 -2 11q-80 0 -80 69q0 32 24.5 51t71.5 19q101 0 101 -88q0 -78 -110 -165h-100z" />
    <glyph glyph-name="uni021B" unicode="&#x21b;" horiz-adv-x="601" 
d="M425 0q-59 0 -100.5 6.5t-75.5 23t-54 45.5t-30.5 73.5t-10.5 108.5v144h-137v133h49q79 0 104.5 31.5t29.5 122.5h134v-154h241v-133h-241v-140q0 -75 26 -93.5t115 -18.5h102v-149h-152zM192 -326q63 60 95 103q8 11 -2 11q-80 0 -80 69q0 32 24.5 51t71.5 19
q101 0 101 -88q0 -78 -110 -165h-100z" />
    <glyph glyph-name="uni02BC" unicode="&#x2bc;" horiz-adv-x="272" 
d="M70 518l73 190h179l-136 -190h-116z" />
    <glyph glyph-name="circumflex" unicode="&#x2c6;" horiz-adv-x="600" 
d="M95 728l152 170h126l152 -170h-133l-82 75l-82 -75h-133z" />
    <glyph glyph-name="caron" unicode="&#x2c7;" horiz-adv-x="600" 
d="M227 738l-152 146h133l82 -64l82 64h133l-152 -146h-126z" />
    <glyph glyph-name="breve" unicode="&#x2d8;" horiz-adv-x="588" 
d="M243 725q-103 0 -144.5 40.5t-39.5 116.5h102q0 -37 20 -54t62 -17t62 17t20 54h102q0 -77 -40.5 -117t-143.5 -40z" />
    <glyph glyph-name="dotaccent" unicode="&#x2d9;" horiz-adv-x="600" 
d="M176 789q0 78 99 78t99 -78q0 -79 -99 -79t-99 79z" />
    <glyph glyph-name="ring" unicode="&#x2da;" horiz-adv-x="600" 
d="M305 728q-154 0 -154 109q0 108 154 108q155 0 155 -108q0 -109 -155 -109zM305 786q62 0 62 51q0 49 -62 49t-62 -49q0 -51 62 -51z" />
    <glyph glyph-name="ogonek" unicode="&#x2db;" horiz-adv-x="600" 
d="M189 -130q0 53 42 87t132 52l-14 32l30 5l20 -46q-84 -26 -84 -100q0 -28 14 -39.5t48 -11.5q39 0 81 9v-77q-47 -13 -131 -13q-75 0 -106.5 23.5t-31.5 78.5z" />
    <glyph glyph-name="tilde" unicode="&#x2dc;" horiz-adv-x="600" 
d="M8 728q-5 69 29 108.5t109 39.5q44 0 81 -15t55 -15q27 0 39.5 11t11.5 38h90q5 -69 -29 -109t-108 -40q-43 0 -80 15t-57 15q-30 0 -40.5 -12t-9.5 -36h-91z" />
    <glyph glyph-name="hungarumlaut" unicode="&#x2dd;" horiz-adv-x="600" 
d="M195 729l105 146h158l-149 -146h-114zM386 729l137 146h175l-192 -146h-120z" />
    <glyph glyph-name="gravecomb" unicode="&#x300;" horiz-adv-x="0" 
d="M-205 593h-136l-205 160h199z" />
    <glyph glyph-name="acutecomb" unicode="&#x301;" horiz-adv-x="0" 
d="M-395 593l142 160h199l-205 -160h-136z" />
    <glyph glyph-name="uni0302" unicode="&#x302;" horiz-adv-x="0" 
d="M-505 593l152 170h126l152 -170h-133l-82 75l-82 -75h-133z" />
    <glyph glyph-name="tildecomb" unicode="&#x303;" horiz-adv-x="0" 
d="M-533 632q-5 69 29 108.5t109 39.5q44 0 81 -15t55 -15q27 0 39.5 11t11.5 38h90q5 -69 -29 -109t-108 -40q-43 0 -80 15t-57 15q-30 0 -40.5 -12t-9.5 -36h-91z" />
    <glyph glyph-name="uni0304" unicode="&#x304;" horiz-adv-x="0" 
d="M-455 610v98h337v-98h-337z" />
    <glyph glyph-name="uni0306" unicode="&#x306;" horiz-adv-x="0" 
d="M-371 604q-105 0 -150 40t-45 115h109q0 -37 20.5 -54t65.5 -17q44 0 64.5 17t20.5 54h109q0 -75 -44.5 -115t-149.5 -40z" />
    <glyph glyph-name="uni0307" unicode="&#x307;" horiz-adv-x="0" 
d="M-427 675q0 84 99 84t99 -84t-99 -84t-99 84z" />
    <glyph glyph-name="uni0308" unicode="&#x308;" horiz-adv-x="0" 
d="M-515 677q0 84 100 84q99 0 99 -84t-99 -84q-100 0 -100 84zM-235 677q0 84 100 84q99 0 99 -84t-99 -84q-100 0 -100 84z" />
    <glyph glyph-name="uni030A" unicode="&#x30a;" horiz-adv-x="0" 
d="M-294 593q-154 0 -154 127q0 125 154 125q155 0 155 -125q0 -127 -155 -127zM-294 661q62 0 62 59q0 29 -14.5 43t-47.5 14t-47.5 -14t-14.5 -43q0 -59 62 -59z" />
    <glyph glyph-name="uni030B" unicode="&#x30b;" horiz-adv-x="0" 
d="M-405 603l102 170h184l-155 -170h-131zM-189 603l152 170h199l-215 -170h-136z" />
    <glyph glyph-name="uni030C" unicode="&#x30c;" horiz-adv-x="0" 
d="M-373 593l-152 170h133l82 -75l82 75h133l-152 -170h-126z" />
    <glyph glyph-name="uni0326" unicode="&#x326;" horiz-adv-x="0" 
d="M-407 -280q63 60 95 103q8 11 -2 11q-80 0 -80 69q0 32 24.5 51t71.5 19q101 0 101 -88q0 -78 -110 -165h-100z" />
    <glyph glyph-name="uni0327" unicode="&#x327;" horiz-adv-x="0" 
d="M-201 -41q55 0 80.5 -23t25.5 -74q0 -113 -147 -113q-80 0 -113 13v77q44 -12 99 -12q27 0 38.5 8t11.5 28q0 18 -9.5 26t-33.5 8q-31 0 -56 -1l53 122h85z" />
    <glyph glyph-name="uni0328" unicode="&#x328;" horiz-adv-x="0" 
d="M-142 -216q-45 -13 -131 -13q-76 0 -107 23.5t-31 78.5q0 64 55 97t155 48v-15q-41 -13 -68 -42.5t-27 -64.5q0 -25 13 -34.5t46 -9.5q54 0 95 9v-77z" />
    <glyph glyph-name="uni0401" unicode="&#x401;" horiz-adv-x="714" 
d="M236 739q-100 0 -100 79t100 79q99 0 99 -79t-99 -79zM516 739q-100 0 -100 79t100 79q99 0 99 -79t-99 -79zM648 538h-374v-110h366v-151h-366v-117h374v-160h-568v698h568v-160z" />
    <glyph glyph-name="uni0402" unicode="&#x402;" horiz-adv-x="947" 
d="M610 -92v156h31q47 0 67 22.5t20 75.5v36q0 60 -32.5 80t-87.5 20q-82 0 -121 -29.5t-39 -95.5v-172h-194v534h-227v164h648v-164h-227v-152q29 37 89 58.5t138 21.5q128 0 189 -58.5t61 -184.5v-51q0 -140 -58 -200.5t-187 -60.5h-70z" />
    <glyph glyph-name="uni0403" unicode="&#x403;" horiz-adv-x="628" 
d="M241 730l130 146h181l-187 -146h-124zM80 0v698h538v-164h-342v-534h-196z" />
    <glyph glyph-name="uni0404" unicode="&#x404;" horiz-adv-x="880" 
d="M636 251h209q-51 -265 -400 -265q-410 0 -410 362q0 184 105.5 273t304.5 89q345 0 399 -260l-209 1q-40 98 -190 98q-164 0 -196 -120h338v-150h-340q28 -131 198 -131q150 0 191 103z" />
    <glyph glyph-name="uni0405" unicode="&#x405;" horiz-adv-x="737" 
d="M388 -13q-306 0 -355 229h216q12 -35 45.5 -52.5t101.5 -17.5q58 0 93.5 17.5t35.5 54.5t-28 49t-84 14q-24 1 -66 1q-47 0 -84.5 4.5t-77 17.5t-66 35t-43.5 59.5t-17 88.5q0 73 47 125t115 74t148 22q300 0 347 -215h-207q-26 67 -140 67q-54 0 -87.5 -18.5
t-33.5 -47.5q0 -34 31.5 -45.5t108.5 -11.5h46q62 0 110 -9.5t89 -32.5t63 -66t22 -105q0 -119 -92 -178t-238 -59z" />
    <glyph glyph-name="uni0406" unicode="&#x406;" horiz-adv-x="354" 
d="M80 0v698h194v-698h-194z" />
    <glyph glyph-name="uni0407" unicode="&#x407;" horiz-adv-x="354" 
d="M-63 818q0 79 100 79q99 0 99 -79t-99 -79q-100 0 -100 79zM217 818q0 79 100 79q99 0 99 -79t-99 -79q-100 0 -100 79zM80 0v698h194v-698h-194z" />
    <glyph glyph-name="uni0408" unicode="&#x408;" horiz-adv-x="677" 
d="M0 214h205q9 -75 101 -75q56 0 78 23t22 81v455h196v-430q0 -154 -72 -218.5t-224 -64.5q-279 0 -306 229z" />
    <glyph glyph-name="uni0409" unicode="&#x409;" horiz-adv-x="1235" 
d="M953 473q263 0 263 -236q0 -127 -70.5 -182t-211.5 -55h-387v548h-226q-1 -26 -3 -89.5t-2 -72.5q-6 -94 -13 -151.5t-22.5 -109t-40.5 -77.5t-64 -40.5t-97 -14.5q-21 0 -42.5 1t-24.5 1v156h12q65 0 85 45t28 190q4 64 5.5 176t2.5 136h598v-225h210zM930 150
q87 0 87 87q0 86 -87 86h-187v-173h187z" />
    <glyph glyph-name="uni040A" unicode="&#x40a;" horiz-adv-x="1246" 
d="M964 473q263 0 263 -236q0 -127 -70.5 -182t-211.5 -55h-374v272h-297v-272h-194v698h194v-262h297v262h194v-225h199zM941 150q87 0 87 87q0 86 -87 86h-176v-173h176z" />
    <glyph glyph-name="uni040B" unicode="&#x40b;" horiz-adv-x="960" 
d="M647 462q132 0 196.5 -65.5t64.5 -220.5v-176h-196v166q0 70 -32.5 100.5t-102.5 30.5q-136 0 -136 -125v-172h-194v534h-227v164h648v-164h-227v-147q72 75 206 75z" />
    <glyph glyph-name="uni040C" unicode="&#x40c;" horiz-adv-x="754" 
d="M576 875l-187 -146h-124l130 146h181zM482 368l277 -368h-232l-213 281h-40v-281h-194v698h194v-264h48l214 264h217z" />
    <glyph glyph-name="uni040E" unicode="&#x40e;" horiz-adv-x="766" 
d="M395 740q-117 0 -178.5 35.5t-61.5 119.5h159q0 -38 16.5 -55.5t64.5 -17.5t64 17.5t16 55.5h161q0 -84 -61.5 -119.5t-179.5 -35.5zM562 698h203l-182 -422q-28 -65 -47.5 -104t-44.5 -73.5t-48 -51t-60.5 -29t-79 -15.5t-105.5 -3h-61v153h100h15l-248 545h202
l123 -292l55 -132h19q9 26 27 76z" />
    <glyph glyph-name="uni040F" unicode="&#x40f;" horiz-adv-x="832" 
d="M752 698v-698h-250v-161h-172v161h-250v698h196v-538h280v538h196z" />
    <glyph glyph-name="uni0410" unicode="&#x410;" horiz-adv-x="796" 
d="M587 0l-38 129h-304l-38 -129h-205l233 698h326l233 -698h-207zM286 267h222l-42 144q-14 52 -54 197h-29q-8 -32 -26.5 -97.5t-27.5 -99.5z" />
    <glyph glyph-name="uni0411" unicode="&#x411;" horiz-adv-x="762" 
d="M479 442q135 0 199.5 -51t64.5 -170q0 -114 -66.5 -167.5t-201.5 -53.5h-395v698h589v-156h-394l-1 1v-101h205zM465 140q82 0 82 81t-82 81h-191v-162h191z" />
    <glyph glyph-name="uni0412" unicode="&#x412;" horiz-adv-x="762" 
d="M602 368q56 -16 88 -57.5t32 -105.5q0 -44 -12 -79t-39.5 -64.5t-80 -45.5t-127.5 -16h-383l1 1v697h365q141 0 201 -40.5t60 -132.5q0 -49 -27.5 -87.5t-77.5 -59.5v-10zM438 562h-163v-139h163q40 0 57.5 17t17.5 52q0 37 -17 53.5t-58 16.5zM447 144q75 0 75 73
t-75 73h-172v-146h172z" />
    <glyph glyph-name="uni0413" unicode="&#x413;" horiz-adv-x="628" 
d="M80 0v698h538v-164h-342v-534h-196z" />
    <glyph glyph-name="uni0414" unicode="&#x414;" horiz-adv-x="869" 
d="M-2 -161l-3 312h18q70 0 92 45t33 184q4 45 5.5 97t2.5 126.5t1 94.5h597v-543h110q-3 -45 -5 -109l-4 -207h-172v161h-503v-161h-172zM267 155h281v393h-224q-1 -12 -3.5 -72.5t-4.5 -98.5q-13 -175 -49 -222z" />
    <glyph glyph-name="uni0415" unicode="&#x415;" horiz-adv-x="714" 
d="M648 538h-374v-110h366v-151h-366v-117h374v-160h-568v698h568v-160z" />
    <glyph glyph-name="uni0416" unicode="&#x416;" horiz-adv-x="1088" 
d="M6 0l266 362l-273 336h213l214 -264h26v264h184v-264h26l214 264h213l-273 -336l266 -362h-219l-208 281h-19v-281h-184v281h-19l-208 -281h-219z" />
    <glyph glyph-name="uni0417" unicode="&#x417;" horiz-adv-x="739" 
d="M577 364q122 -36 122 -163q0 -109 -86.5 -162t-231.5 -53q-90 0 -158 19t-108.5 53.5t-63 74.5t-29.5 88h212q13 -81 145 -81q113 0 113 77q0 38 -20.5 53.5t-65.5 15.5h-126l12 133h101q94 0 94 68q0 84 -108 84q-118 0 -137 -78h-196q31 217 333 217q301 0 301 -202
q0 -48 -28 -82.5t-75 -51.5v-10z" />
    <glyph glyph-name="uni0418" unicode="&#x418;" horiz-adv-x="861" 
d="M80 0v698h192v-608h22q5 27 36 147l114 461h337v-698h-192v608h-22q-5 -27 -18.5 -81l-15.5 -62q-26 -112 -55 -228.5t-45 -176.5l-16 -60h-337z" />
    <glyph glyph-name="uni0419" unicode="&#x419;" horiz-adv-x="861" 
d="M462 740q-117 0 -178.5 35.5t-61.5 119.5h159q0 -38 16.5 -55.5t64.5 -17.5t64 17.5t16 55.5h161q0 -84 -61.5 -119.5t-179.5 -35.5zM80 0v698h192v-608h22q5 27 36 147l114 461h337v-698h-192v608h-22q-5 -27 -18.5 -81l-15.5 -62q-26 -112 -55 -228.5t-45 -176.5
l-16 -60h-337z" />
    <glyph glyph-name="uni041A" unicode="&#x41a;" horiz-adv-x="754" 
d="M482 368l277 -368h-232l-213 281h-40v-281h-194v698h194v-264h48l214 264h217z" />
    <glyph glyph-name="uni041B" unicode="&#x41b;" horiz-adv-x="823" 
d="M79 -7q-21 0 -42.5 1t-24.5 1v156h12q65 0 85 45t28 190q4 64 5.5 176t2.5 136h598v-698h-196v548h-226q-1 -26 -3 -89.5t-2 -72.5q-6 -94 -13 -151.5t-22.5 -109t-40.5 -77.5t-64 -40.5t-97 -14.5z" />
    <glyph glyph-name="uni041C" unicode="&#x41c;" horiz-adv-x="956" 
d="M80 0v698h328q12 -106 33.5 -326.5t27.5 -281.5h18q5 50 26.5 275t34.5 333h328v-698h-179v608h-22q-64 -509 -78 -608h-238q-14 99 -78 608h-22v-608h-179z" />
    <glyph glyph-name="uni041D" unicode="&#x41d;" horiz-adv-x="845" 
d="M571 698h194v-698h-194v272h-297v-272h-194v698h194v-262h297v262z" />
    <glyph glyph-name="uni041E" unicode="&#x41e;" horiz-adv-x="889" 
d="M35 348q0 184 105.5 273t303.5 89t304 -89t106 -273q0 -185 -106 -274t-304 -89t-303.5 89t-105.5 274zM240 348q0 -96 46 -148t158 -52q113 0 159 52t46 148q0 97 -46 148.5t-159 51.5t-158.5 -51.5t-45.5 -148.5z" />
    <glyph glyph-name="uni041F" unicode="&#x41f;" horiz-adv-x="840" 
d="M80 0v698h680v-698h-196v536h-288v-536h-196z" />
    <glyph glyph-name="uni0420" unicode="&#x420;" horiz-adv-x="768" 
d="M486 698q263 0 263 -236q0 -127 -70.5 -182t-211.5 -55h-193v-225h-194v698h406zM463 375q87 0 87 87q0 86 -87 86h-189v-173h189z" />
    <glyph glyph-name="uni0421" unicode="&#x421;" horiz-adv-x="880" 
d="M445 -14q-410 0 -410 362q0 184 105.5 273t304.5 89q345 0 399 -260l-209 1q-40 98 -190 98q-113 0 -159 -51.5t-46 -148.5q0 -98 46 -149.5t159 -51.5q150 0 191 103h209q-51 -265 -400 -265z" />
    <glyph glyph-name="uni0422" unicode="&#x422;" horiz-adv-x="688" 
d="M20 534v164h648v-164h-227v-534h-194v534h-227z" />
    <glyph glyph-name="uni0423" unicode="&#x423;" horiz-adv-x="766" 
d="M562 698h203l-182 -422q-28 -65 -47.5 -104t-44.5 -73.5t-48 -51t-60.5 -29t-79 -15.5t-105.5 -3h-61v153h100h15l-248 545h202l123 -292l55 -132h19q9 26 27 76z" />
    <glyph glyph-name="uni0424" unicode="&#x424;" horiz-adv-x="912" 
d="M877 371q0 -153 -75.5 -228t-255.5 -81v-62h-180v62q-180 6 -255.5 81t-75.5 228q0 151 75.5 226.5t255.5 81.5v85h180v-85q180 -6 255.5 -81.5t75.5 -226.5zM208 371q0 -90 32 -131.5t126 -45.5v355q-94 -3 -126 -44.5t-32 -133.5zM546 194q92 4 125 45.5t33 131.5
q0 91 -32.5 132.5t-125.5 45.5v-355z" />
    <glyph glyph-name="uni0425" unicode="&#x425;" horiz-adv-x="739" 
d="M742 0h-227l-153 215l-153 -215h-212l264 355l-254 343h224l147 -207l147 207h206l-255 -340z" />
    <glyph glyph-name="uni0426" unicode="&#x426;" horiz-adv-x="879" 
d="M749 160h107q-3 -43 -5 -114l-4 -207h-172v161h-595v698h196v-538h277v538h196v-538z" />
    <glyph glyph-name="uni0427" unicode="&#x427;" horiz-adv-x="774" 
d="M35 528v170h194v-171q0 -69 32.5 -99.5t101.5 -30.5t102 27.5t33 97.5v176h196v-698h-196v288q-63 -45 -174 -45q-156 0 -222.5 67t-66.5 218z" />
    <glyph glyph-name="uni0428" unicode="&#x428;" horiz-adv-x="1072" 
d="M80 0v698h186v-538h177v538h186v-538h177v538h186v-698h-912z" />
    <glyph glyph-name="uni0429" unicode="&#x429;" horiz-adv-x="1132" 
d="M992 160h107q-3 -43 -5 -114l-4 -207h-172v161h-838v698h186v-538h177v538h186v-538h177v538h186v-538z" />
    <glyph glyph-name="uni042A" unicode="&#x42a;" horiz-adv-x="878" 
d="M596 473q263 0 263 -236q0 -127 -70.5 -182t-211.5 -55h-375v536h-234v162h428v-225h200zM573 150q87 0 87 87q0 86 -87 86h-177v-173h177z" />
    <glyph glyph-name="uni042B" unicode="&#x42b;" horiz-adv-x="1071" 
d="M464 473q263 0 263 -236q0 -127 -70.5 -182t-211.5 -55h-365v698h194v-225h190zM795 698h196v-698h-196v698zM441 150q87 0 87 87q0 86 -87 86h-167v-173h167z" />
    <glyph glyph-name="uni042C" unicode="&#x42c;" horiz-adv-x="756" 
d="M474 473q263 0 263 -236q0 -127 -70.5 -182t-211.5 -55h-375v698h194v-225h200zM451 150q87 0 87 87q0 86 -87 86h-177v-173h177z" />
    <glyph glyph-name="uni042D" unicode="&#x42d;" horiz-adv-x="880" 
d="M437 710q408 0 408 -362q0 -363 -408 -363q-351 0 -402 266h210q38 -103 191 -103q92 0 138.5 33.5t59.5 98.5h-293v129h294q-11 68 -57.5 103.5t-141.5 35.5q-154 0 -190 -98h-210q54 260 401 260z" />
    <glyph glyph-name="uni042E" unicode="&#x42e;" horiz-adv-x="1148" 
d="M731 710q185 0 283.5 -89t98.5 -273q0 -185 -98.5 -274t-283.5 -89q-334 0 -374 280h-83v-265h-194v698h194v-271h82q41 283 375 283zM731 148q105 0 148 52t43 148q0 97 -43 148.5t-148 51.5q-106 0 -148 -51t-42 -149q0 -96 42.5 -148t147.5 -52z" />
    <glyph glyph-name="uni042F" unicode="&#x42f;" horiz-adv-x="782" 
d="M310 698h392v-698h-194v231h-112l-125 -231h-207l144 249q-160 43 -160 212q0 237 262 237zM508 375v173h-178q-87 0 -87 -86q0 -87 87 -87h178z" />
    <glyph glyph-name="uni0430" unicode="&#x430;" horiz-adv-x="735" 
d="M361 555q145 0 219.5 -55t74.5 -191v-309h-148l-9 56q-34 -38 -91.5 -57.5t-120.5 -19.5q-110 0 -172.5 45t-62.5 139q0 42 15 73.5t39.5 50t60.5 30t72 15t81 3.5h166q-1 51 -31 74t-94 23q-111 0 -131 -54h-170q52 177 302 177zM331 94q64 0 109 27.5t45 89.5v23h-128
q-70 0 -99 -15.5t-29 -53.5q0 -71 102 -71z" />
    <glyph glyph-name="uni0431" unicode="&#x431;" horiz-adv-x="776" 
d="M394 -18q-336 0 -336 294v77q0 91 17 156.5t46 105t77 62t101 30t128 7.5h13q56 0 81 5t25 21h172q0 -87 -59 -124t-202 -37h-36q-120 0 -162.5 -32.5t-48.5 -125.5h5q27 54 78 80t141 26q299 0 299 -268q0 -141 -88 -209t-251 -68zM393 123q154 0 154 137
q0 133 -154 133t-154 -133q0 -137 154 -137z" />
    <glyph glyph-name="uni0432" unicode="&#x432;" horiz-adv-x="705" 
d="M574 282q39 -9 66 -43.5t27 -79.5q0 -83 -51 -121t-157 -38h-379v534h375q98 0 148.5 -32t50.5 -105q0 -76 -80 -110v-5zM421 422h-161v-96h161q52 0 52 47q0 49 -52 49zM425 118q28 0 42 13.5t14 35.5q0 51 -55 51h-166v-100h165z" />
    <glyph glyph-name="uni0433" unicode="&#x433;" horiz-adv-x="579" 
d="M80 0v534h478v-148h-298v-386h-180z" />
    <glyph glyph-name="uni0434" unicode="&#x434;" horiz-adv-x="798" 
d="M17 -144l-3 287h19q32 0 54.5 14t33.5 42t16 52t9 61q7 70 7 222h534v-391h90q-4 -42 -5 -101l-4 -186h-153v144h-445v-144h-153zM248 143h259v252h-201q0 -2 -2 -38.5t-4 -55.5q-11 -114 -52 -158z" />
    <glyph glyph-name="uni0435" unicode="&#x435;" horiz-adv-x="758" 
d="M383 555q173 0 256 -81.5t81 -248.5h-500q3 -59 44.5 -87.5t127.5 -28.5q121 0 143 46h178q-15 -80 -103 -128t-225 -48q-77 0 -137 14.5t-107.5 46.5t-72.5 89.5t-25 137.5q0 140 87 214t253 74zM223 329h316q-13 100 -156 100q-74 0 -113.5 -24t-46.5 -76z" />
    <glyph glyph-name="uni0436" unicode="&#x436;" horiz-adv-x="994" 
d="M-4 0l253 280l-246 254h202l193 -206h11v206h176v-206h11l193 206h202l-246 -254l253 -280h-218l-171 198h-24v-198h-176v198h-24l-171 -198h-218z" />
    <glyph glyph-name="uni0437" unicode="&#x437;" horiz-adv-x="671" 
d="M345 -23q-279 0 -323 186h183q19 -55 140 -55q102 0 102 59q0 50 -66 50h-129v108h127q60 0 60 46q0 57 -95 57q-98 0 -127 -48h-173q34 174 300 174q276 0 276 -156q0 -80 -80 -111v-7q93 -30 93 -123q0 -89 -69 -134.5t-219 -45.5z" />
    <glyph glyph-name="uni0438" unicode="&#x438;" horiz-adv-x="810" 
d="M80 0v534h176v-447h16q117 338 161 447h297v-534h-176v447h-16q-119 -340 -161 -447h-297z" />
    <glyph glyph-name="uni0439" unicode="&#x439;" horiz-adv-x="810" 
d="M407 614q-121 0 -185.5 34.5t-64.5 120.5h169q0 -38 16.5 -55.5t64.5 -17.5t64 17.5t16 55.5h171q0 -86 -65 -120.5t-186 -34.5zM80 0v534h176v-447h16q117 338 161 447h297v-534h-176v447h-16q-119 -340 -161 -447h-297z" />
    <glyph glyph-name="uni043A" unicode="&#x43a;" horiz-adv-x="700" 
d="M435 278l269 -278h-230l-188 198h-26v-198h-180v534h180v-206h14l207 206h219z" />
    <glyph glyph-name="uni043B" unicode="&#x43b;" horiz-adv-x="759" 
d="M136 534h543v-534h-180v395h-209q0 -52 -3 -110q-9 -166 -56 -228t-163 -62h-52v148h26q51 0 68.5 28t22.5 114q3 58 3 249z" />
    <glyph glyph-name="uni043C" unicode="&#x43c;" horiz-adv-x="892" 
d="M80 0v534h294l40 -263q4 -29 11.5 -88t11.5 -89h18l24 177l39 263h294v-534h-162v444h-21q-44 -285 -78 -444h-210q-34 159 -78 444h-21v-444h-162z" />
    <glyph glyph-name="uni043D" unicode="&#x43d;" horiz-adv-x="773" 
d="M513 534h180v-534h-180v194h-253v-194h-180v534h180v-192h253v192z" />
    <glyph glyph-name="uni043E" unicode="&#x43e;" horiz-adv-x="772" 
d="M386 -23q-166 0 -254.5 71.5t-88.5 218.5t88.5 218.5t254.5 71.5t254.5 -71.5t88.5 -218.5t-88.5 -218.5t-254.5 -71.5zM386 120q89 0 126 36.5t37 110.5t-37 110.5t-126 36.5t-126 -36.5t-37 -110.5t37 -110.5t126 -36.5z" />
    <glyph glyph-name="uni043F" unicode="&#x43f;" horiz-adv-x="769" 
d="M80 0v534h609v-534h-180v386h-249v-386h-180z" />
    <glyph glyph-name="uni0440" unicode="&#x440;" horiz-adv-x="788" 
d="M454 557q147 0 219 -77.5t72 -212.5t-72 -212t-219 -77q-126 0 -194 47v-224h-180v733h153l2 -61q79 84 219 84zM407 120q158 0 158 147t-158 147q-79 0 -120.5 -39t-41.5 -108t41.5 -108t120.5 -39z" />
    <glyph glyph-name="uni0441" unicode="&#x441;" horiz-adv-x="763" 
d="M385 -23q-165 0 -253.5 71.5t-88.5 219.5t88.5 220t253.5 72q151 0 234.5 -54t105.5 -170h-185q-24 81 -155 81q-90 0 -126.5 -37t-36.5 -112t36.5 -111.5t126.5 -36.5q131 0 155 81h185q-22 -117 -105 -170.5t-235 -53.5z" />
    <glyph glyph-name="uni0442" unicode="&#x442;" horiz-adv-x="634" 
d="M22 386v148h591v-148h-205v-386h-181v386h-205z" />
    <glyph glyph-name="uni0443" unicode="&#x443;" horiz-adv-x="724" 
d="M511 534h193l-166 -490q-21 -61 -36 -98.5t-36 -67t-38.5 -43.5t-51 -23t-64.5 -10.5t-88 -1.5h-122v134h127q63 0 87 14t36 52h-148l-194 534h199l136 -431h36z" />
    <glyph glyph-name="uni0444" unicode="&#x444;" horiz-adv-x="874" 
d="M352 -197v177q-155 2 -236 74t-81 214q0 281 317 290v194h170v-194q317 -9 317 -290q0 -142 -80.5 -214t-236.5 -74v-177h-170zM354 111v314q-84 -2 -115.5 -40.5t-31.5 -116.5q0 -80 31 -117.5t116 -39.5zM520 111q85 2 116 39.5t31 117.5q0 78 -31.5 116.5t-115.5 40.5
v-314z" />
    <glyph glyph-name="uni0445" unicode="&#x445;" horiz-adv-x="685" 
d="M682 0h-212l-133 156l-125 -156h-209l237 269l-233 265h210l132 -153l119 153h210l-232 -265z" />
    <glyph glyph-name="uni0446" unicode="&#x446;" horiz-adv-x="792" 
d="M676 143h106q-4 -42 -5 -101l-4 -186h-157v144h-536v534h180v-391h236v391h180v-391z" />
    <glyph glyph-name="uni0447" unicode="&#x447;" horiz-adv-x="735" 
d="M53 395v139h177v-140q0 -63 29.5 -91t92.5 -28q123 0 123 95v164h180v-534h-180v176q-57 -41 -159 -41q-142 0 -202.5 61t-60.5 199z" />
    <glyph glyph-name="uni0448" unicode="&#x448;" horiz-adv-x="1012" 
d="M80 0v534h180v-391h156v391h180v-391h156v391h180v-534h-852z" />
    <glyph glyph-name="uni0449" unicode="&#x449;" horiz-adv-x="1048" 
d="M932 143h106q-4 -42 -5 -101l-4 -186h-157v144h-792v534h180v-391h156v391h180v-391h156v391h180v-391z" />
    <glyph glyph-name="uni044A" unicode="&#x44a;" horiz-adv-x="799" 
d="M547 399q238 0 238 -199q0 -200 -238 -200h-353v386h-205v148h385v-135h173zM531 131q76 0 76 69q0 68 -76 68h-157v-137h157z" />
    <glyph glyph-name="uni044B" unicode="&#x44b;" horiz-adv-x="983" 
d="M425 399q238 0 238 -199q0 -200 -238 -200h-345v534h180v-135h165zM723 534h180v-534h-180v534zM407 131q76 0 76 69q0 68 -76 68h-147v-137h147z" />
    <glyph glyph-name="uni044C" unicode="&#x44c;" horiz-adv-x="695" 
d="M443 399q238 0 238 -199q0 -200 -238 -200h-363v534h180v-135h183zM427 131q76 0 76 69q0 68 -76 68h-167v-137h167z" />
    <glyph glyph-name="uni044D" unicode="&#x44d;" horiz-adv-x="758" 
d="M373 559q342 0 342 -291t-342 -291q-138 0 -228 50.5t-107 149.5h182q34 -65 153 -65q153 0 166 107h-246v105h244q-16 100 -164 100q-119 0 -153 -65h-182q42 200 335 200z" />
    <glyph glyph-name="uni044E" unicode="&#x44e;" horiz-adv-x="1054" 
d="M675 555q162 0 249 -71t87 -217t-87 -217t-249 -71q-287 0 -328 215h-87v-194h-180v534h180v-195h87q39 216 328 216zM675 120q86 0 123 37t37 110t-36.5 109.5t-123.5 36.5q-86 0 -122.5 -36.5t-36.5 -109.5t36.5 -110t122.5 -37z" />
    <glyph glyph-name="uni044F" unicode="&#x44f;" horiz-adv-x="750" 
d="M670 534v-534h-180v139h-144l-113 -139h-194l128 157q-115 40 -115 178q0 199 238 199h380zM303 266h187v137h-187q-76 0 -76 -68q0 -69 76 -69z" />
    <glyph glyph-name="uni0451" unicode="&#x451;" horiz-adv-x="758" 
d="M237 593q-100 0 -100 84t100 84q99 0 99 -84t-99 -84zM517 593q-100 0 -100 84t100 84q99 0 99 -84t-99 -84zM383 555q173 0 256 -81.5t81 -248.5h-500q3 -59 44.5 -87.5t127.5 -28.5q121 0 143 46h178q-15 -80 -103 -128t-225 -48q-77 0 -137 14.5t-107.5 46.5
t-72.5 89.5t-25 137.5q0 140 87 214t253 74zM223 329h316q-13 100 -156 100q-74 0 -113.5 -24t-46.5 -76z" />
    <glyph glyph-name="uni0452" unicode="&#x452;" horiz-adv-x="791" 
d="M458 555q128 0 190.5 -63.5t62.5 -212.5v-242q0 -76 -14.5 -122.5t-51 -72t-84.5 -34t-129 -8.5h-44v129h8q89 0 111.5 19t23.5 93v235q0 70 -32.5 100.5t-102.5 30.5q-136 0 -136 -123v-284h-180v604h-64v94h64v42h180v-42h337v-94h-337v-115q69 66 198 66z" />
    <glyph glyph-name="uni0453" unicode="&#x453;" horiz-adv-x="579" 
d="M203 593l142 160h199l-205 -160h-136zM80 0v534h478v-148h-298v-386h-180z" />
    <glyph glyph-name="uni0454" unicode="&#x454;" horiz-adv-x="763" 
d="M385 120q131 0 155 81h185q-22 -117 -105 -170.5t-235 -53.5q-165 0 -253.5 71.5t-88.5 219.5t88.5 220t253.5 72q151 0 234.5 -54t105.5 -170h-185q-24 81 -155 81q-134 0 -157 -93h246v-105h-248q10 -50 47.5 -74.5t111.5 -24.5z" />
    <glyph glyph-name="uni0455" unicode="&#x455;" horiz-adv-x="692" 
d="M355 -23q-133 0 -214 43.5t-111 144.5h183q27 -57 142 -57q124 0 124 55q0 31 -26.5 38.5t-98.5 7.5h-29q-46 0 -80 3t-69.5 13.5t-58 28t-37 48t-14.5 72.5q0 77 73.5 130t205.5 53q45 0 81.5 -4t75.5 -15.5t67.5 -31.5t52.5 -54.5t36 -80.5h-175q-16 39 -49.5 50.5
t-88.5 11.5q-113 0 -113 -54q0 -16 8 -25t29.5 -13t42.5 -5t65 -1h11q124 0 192.5 -37.5t68.5 -130.5q0 -67 -44 -111.5t-107.5 -61.5t-142.5 -17z" />
    <glyph glyph-name="uni0456" unicode="&#x456;" horiz-adv-x="338" 
d="M70 675q0 84 99 84t99 -84t-99 -84t-99 84zM80 0v534h180v-534h-180z" />
    <glyph glyph-name="uni0457" unicode="&#x457;" horiz-adv-x="339" 
d="M-70 677q0 84 100 84q99 0 99 -84t-99 -84q-100 0 -100 84zM210 677q0 84 100 84q99 0 99 -84t-99 -84q-100 0 -100 84zM80 0v534h180v-534h-180z" />
    <glyph glyph-name="uni0458" unicode="&#x458;" horiz-adv-x="342" 
d="M171 588q-47 0 -73.5 22t-26.5 64t26.5 64t73.5 22q48 0 74.5 -22t26.5 -64t-26.5 -64t-74.5 -22zM-62 -200v129h11q87 0 109.5 19.5t22.5 92.5l1 493h180l-1 -497q0 -76 -14.5 -122.5t-50.5 -72t-84.5 -34t-129.5 -8.5h-44z" />
    <glyph glyph-name="uni0459" unicode="&#x459;" horiz-adv-x="1118" 
d="M857 390q123 0 185 -47t62 -148q0 -195 -232 -195h-373v395h-209q0 -52 -3 -110q-9 -166 -56 -228t-163 -62h-52v148h26q51 0 68.5 28t22.5 114q3 58 3 249h543v-144h178zM858 128q74 0 74 67t-74 67h-179v-134h179z" />
    <glyph glyph-name="uni045A" unicode="&#x45a;" horiz-adv-x="1118" 
d="M857 390q123 0 185 -47t62 -148q0 -195 -232 -195h-359v194h-253v-194h-180v534h180v-192h253v192h180v-144h164zM858 128q74 0 74 67t-74 67h-165v-134h165z" />
    <glyph glyph-name="uni045B" unicode="&#x45b;" horiz-adv-x="791" 
d="M458 555q129 0 191 -61.5t62 -210.5v-283h-180v279q0 69 -32.5 98.5t-102.5 29.5q-136 0 -136 -125v-282h-180v604h-64v94h64v42h180v-42h337v-94h-337v-112q70 63 198 63z" />
    <glyph glyph-name="uni045C" unicode="&#x45c;" horiz-adv-x="700" 
d="M568 753l-205 -160h-136l142 160h199zM435 278l269 -278h-230l-188 198h-26v-198h-180v534h180v-206h14l207 206h219z" />
    <glyph glyph-name="uni045E" unicode="&#x45e;" horiz-adv-x="724" 
d="M377 614q-121 0 -185.5 34.5t-64.5 120.5h169q0 -38 16.5 -55.5t64.5 -17.5t64 17.5t16 55.5h171q0 -86 -65 -120.5t-186 -34.5zM511 534h193l-166 -490q-21 -61 -36 -98.5t-36 -67t-38.5 -43.5t-51 -23t-64.5 -10.5t-88 -1.5h-122v134h127q63 0 87 14t36 52h-148
l-194 534h199l136 -431h36z" />
    <glyph glyph-name="uni045F" unicode="&#x45f;" horiz-adv-x="773" 
d="M693 534v-534h-201v-161h-172v161h-240v534h180v-386h253v386h180z" />
    <glyph glyph-name="uni0462" unicode="&#x462;" horiz-adv-x="756" 
d="M474 473q263 0 263 -236q0 -127 -70.5 -182t-211.5 -55h-375v519h-107v124h107v55h194v-55h314v-124h-314v-46h200zM451 150q87 0 87 87q0 86 -87 86h-177v-173h177z" />
    <glyph glyph-name="uni0490" unicode="&#x490;" horiz-adv-x="656" 
d="M80 0v698h392v160h166v-322h-362v-536h-196z" />
    <glyph glyph-name="uni0491" unicode="&#x491;" horiz-adv-x="579" 
d="M80 0v534h322v159h156v-307h-298v-386h-180z" />
    <glyph glyph-name="uni049A" unicode="&#x49a;" horiz-adv-x="808" 
d="M642 155h154q-6 -82 -7 -150l-2 -166h-172v161h-88l-213 281h-40v-281h-194v698h194v-264h48l214 264h217l-271 -330z" />
    <glyph glyph-name="uni04BA" unicode="&#x4ba;" horiz-adv-x="791" 
d="M80 0v698h194v-312q72 75 206 75q132 0 196.5 -65.5t64.5 -220.5v-176h-196v166q0 70 -32.5 100.5t-102.5 30.5q-136 0 -136 -125v-171h-194z" />
    <glyph glyph-name="uni04E8" unicode="&#x4e8;" horiz-adv-x="889" 
d="M444 710q198 0 304 -89t106 -273q0 -185 -106 -274t-304 -89t-303.5 89t-105.5 274q0 184 105.5 273t303.5 89zM444 548q-179 0 -200 -146h401q-21 146 -201 146zM444 148q175 0 200 140h-399q25 -140 199 -140z" />
    <glyph glyph-name="Wgrave" unicode="&#x1e80;" horiz-adv-x="955" 
d="M617 729h-125l-188 147h183zM121 0l-94 698h190q12 -96 21.5 -190.5t13.5 -136.5t12 -152t10 -129h19q3 27 17.5 169t27.5 261t22 178h240q9 -59 22 -178t27.5 -261t17.5 -169h19q5 54 13.5 168.5t18.5 216t25 223.5h190l-94 -698h-287l-63 608h-18l-63 -608h-287z" />
    <glyph glyph-name="wgrave" unicode="&#x1e81;" horiz-adv-x="855" 
d="M509 595h-136l-205 160h199zM642 534h183l-68 -534h-278l-44 444h-20l-38 -444h-279l-68 534h184q21 -221 34 -444h22q4 42 21 214.5t23 228.5h229q9 -79 43 -443h22q13 223 34 444z" />
    <glyph glyph-name="Wacute" unicode="&#x1e82;" horiz-adv-x="955" 
d="M357 729l130 146h181l-187 -146h-124zM121 0l-94 698h190q12 -96 21.5 -190.5t13.5 -136.5t12 -152t10 -129h19q3 27 17.5 169t27.5 261t22 178h240q9 -59 22 -178t27.5 -261t17.5 -169h19q5 54 13.5 168.5t18.5 216t25 223.5h190l-94 -698h-287l-63 608h-18l-63 -608
h-287z" />
    <glyph glyph-name="wacute" unicode="&#x1e83;" horiz-adv-x="855" 
d="M642 755l-205 -160h-136l142 160h199zM642 534h183l-68 -534h-278l-44 444h-20l-38 -444h-279l-68 534h184q21 -221 34 -444h22q4 42 21 214.5t23 228.5h229q9 -79 43 -443h22q13 223 34 444z" />
    <glyph glyph-name="Wdieresis" unicode="&#x1e84;" horiz-adv-x="955" 
d="M240 818q0 79 100 79q99 0 99 -79t-99 -79q-100 0 -100 79zM520 818q0 79 100 79q99 0 99 -79t-99 -79q-100 0 -100 79zM121 0l-94 698h190q12 -96 21.5 -190.5t13.5 -136.5t12 -152t10 -129h19q3 27 17.5 169t27.5 261t22 178h240q9 -59 22 -178t27.5 -261t17.5 -169h19
q5 54 13.5 168.5t18.5 216t25 223.5h190l-94 -698h-287l-63 608h-18l-63 -608h-287z" />
    <glyph glyph-name="wdieresis" unicode="&#x1e85;" horiz-adv-x="855" 
d="M284 595q-100 0 -100 84t100 84q99 0 99 -84t-99 -84zM564 595q-100 0 -100 84t100 84q99 0 99 -84t-99 -84zM642 534h183l-68 -534h-278l-44 444h-20l-38 -444h-279l-68 534h184q21 -221 34 -444h22q4 42 21 214.5t23 228.5h229q9 -79 43 -443h22q13 223 34 444z" />
    <glyph glyph-name="Ygrave" unicode="&#x1ef2;" horiz-adv-x="713" 
d="M494 729h-125l-188 147h183zM728 698l-273 -442v-256h-196v256l-273 442h204q100 -166 156 -273h21q25 48 64 116t66 113l27 44h204z" />
    <glyph glyph-name="ygrave" unicode="&#x1ef3;" horiz-adv-x="724" 
d="M460 593h-136l-205 160h199zM511 534h193l-166 -490q-21 -61 -36 -98.5t-36 -67t-38.5 -43.5t-51 -23t-64.5 -10.5t-88 -1.5h-122v134h127q63 0 87 14t36 52h-148l-194 534h199l136 -431h36z" />
    <glyph glyph-name="uni200A" unicode="&#x200a;" horiz-adv-x="143" 
 />
    <glyph glyph-name="uni200B" unicode="&#x200b;" horiz-adv-x="0" 
 />
    <glyph glyph-name="endash" unicode="&#x2013;" horiz-adv-x="731" 
d="M50 362h631v-148h-631v148z" />
    <glyph glyph-name="emdash" unicode="&#x2014;" horiz-adv-x="1060" 
d="M50 362h960v-148h-960v148z" />
    <glyph glyph-name="quoteleft" unicode="&#x2018;" horiz-adv-x="300" 
d="M280 686q-76 -85 -118 -148q-9 -13 2 -13q25 0 49 -12q43 -21 43 -79q0 -44 -29 -68t-81 -24q-116 0 -116 112q0 62 34.5 116.5t100.5 115.5h115z" />
    <glyph glyph-name="quoteright" unicode="&#x2019;" horiz-adv-x="300" 
d="M20 366q76 85 118 148q9 13 -2 13q-25 0 -49 12q-43 21 -43 79q0 44 29 68t81 24q116 0 116 -112q0 -62 -34.5 -116.5t-100.5 -115.5h-115z" />
    <glyph glyph-name="quotesinglbase" unicode="&#x201a;" horiz-adv-x="313" 
d="M20 -179q96 116 118 148q3 4 3 7t-1 4.5t-3 1.5q-28 1 -49 12q-43 22 -43 79q0 43 29 67t81 24q112 0 112 -114q0 -106 -135 -231z" />
    <glyph glyph-name="quotedblleft" unicode="&#x201c;" horiz-adv-x="562" 
d="M280 686q-76 -85 -118 -148q-9 -13 2 -13q25 0 49 -12q43 -21 43 -79q0 -44 -29 -68t-81 -24q-116 0 -116 112q0 62 34.5 116.5t100.5 115.5h115zM542 686q-76 -85 -118 -148q-9 -13 2 -13q25 0 49 -12q43 -21 43 -79q0 -44 -29 -68t-81 -24q-116 0 -116 112
q0 62 34.5 116.5t100.5 115.5h115z" />
    <glyph glyph-name="quotedblright" unicode="&#x201d;" horiz-adv-x="573" 
d="M20 366q76 85 118 148q9 13 -2 13q-25 0 -49 12q-43 21 -43 79q0 44 29 68t81 24q116 0 116 -112q0 -62 -34.5 -116.5t-100.5 -115.5h-115zM293 366q76 85 118 148q9 13 -2 13q-25 0 -49 12q-43 21 -43 79q0 44 29 68t81 24q116 0 116 -112q0 -62 -34.5 -116.5
t-100.5 -115.5h-115z" />
    <glyph glyph-name="quotedblbase" unicode="&#x201e;" horiz-adv-x="313" 
d="M155 164q112 0 112 -114q0 -106 -135 -231l-112 2q96 116 118 148q3 4 3 7t-1 4.5t-3 1.5q-28 1 -49 12q-43 22 -43 79q0 43 29 67t81 24z" />
    <glyph glyph-name="bullet" unicode="&#x2022;" horiz-adv-x="600" 
d="M297 385q140 0 140 -120q0 -121 -140 -121q-144 0 -144 121q0 120 144 120z" />
    <glyph glyph-name="ellipsis" unicode="&#x2026;" horiz-adv-x="969" 
d="M156 167q107 0 107 -92t-107 -92q-110 0 -110 92t110 92zM496 167q107 0 107 -92t-107 -92q-110 0 -110 92t110 92zM816 167q107 0 107 -92t-107 -92q-110 0 -110 92t110 92z" />
    <glyph glyph-name="perthousand" unicode="&#x2030;" horiz-adv-x="1562" 
d="M224 263q-115 0 -169 53.5t-54 166.5t54.5 166.5t168.5 53.5t168.5 -53.5t54.5 -166.5q0 -112 -54.5 -166t-168.5 -54zM272 0l321 698h123l-321 -698h-123zM224 370q45 0 61.5 25.5t16.5 87.5q0 63 -16.5 88.5t-61.5 25.5t-61.5 -25.5t-16.5 -88.5t16.5 -88t61.5 -25z
M855 -11q-115 0 -169 53.5t-54 166.5t54.5 166.5t168.5 53.5t168.5 -53.5t54.5 -166.5q0 -112 -54.5 -166t-168.5 -54zM1340 -11q-115 0 -169 53.5t-54 166.5t54.5 166.5t168.5 53.5t168.5 -53.5t54.5 -166.5q0 -112 -54.5 -166t-168.5 -54zM855 96q45 0 61.5 25.5
t16.5 87.5q0 63 -16.5 88.5t-61.5 25.5t-61.5 -25.5t-16.5 -88.5t16.5 -88t61.5 -25zM1340 96q45 0 61.5 25.5t16.5 87.5q0 63 -16.5 88.5t-61.5 25.5t-61.5 -25.5t-16.5 -88.5t16.5 -88t61.5 -25z" />
    <glyph glyph-name="guilsinglleft" unicode="&#x2039;" horiz-adv-x="389" 
d="M189 293l160 221h-167l-151 -221l151 -221h167z" />
    <glyph glyph-name="guilsinglright" unicode="&#x203a;" horiz-adv-x="389" 
d="M200 293l-160 -221h167l151 221l-151 221h-167z" />
    <glyph glyph-name="fraction" unicode="&#x2044;" horiz-adv-x="218" 
d="M-193 0l491 698h113l-491 -698h-113z" />
    <glyph glyph-name="uni2070" unicode="&#x2070;" 
d="M27 487q0 113 54.5 166.5t168.5 53.5t168.5 -53.5t54.5 -166.5q0 -112 -54.5 -166t-168.5 -54q-115 0 -169 53.5t-54 166.5zM172 487q0 -63 16.5 -88t61.5 -25t61.5 25.5t16.5 87.5q0 63 -16.5 88.5t-61.5 25.5t-61.5 -25.5t-16.5 -88.5z" />
    <glyph glyph-name="uni2074" unicode="&#x2074;" 
d="M416 462h84l-23 -85h-61v-99h-140v99h-269v60l193 260h216v-235zM147 462h129v174z" />
    <glyph glyph-name="uni2075" unicode="&#x2075;" 
d="M199 520q21 15 53 23.5t55 8.5q83 0 128.5 -30.5t45.5 -105.5q0 -66 -49.5 -107t-165.5 -41q-206 0 -242 144h154q5 -36 87 -36q70 0 70 40t-72 40q-59 0 -95 -24l-108 64l62 201h353l-32 -105h-218l-33 -67z" />
    <glyph glyph-name="uni2076" unicode="&#x2076;" 
d="M249 268q-220 0 -220 206q0 95 60 163t177 68q178 0 205 -120h-146q-13 24 -58 24q-49 0 -75 -32t-28 -74l9 -2q18 21 51 36t72 15q176 0 176 -137q0 -76 -56 -111.5t-167 -35.5zM249 376q77 0 77 39q0 41 -77 41q-75 0 -75 -41q0 -39 75 -39z" />
    <glyph glyph-name="uni2077" unicode="&#x2077;" horiz-adv-x="423" 
d="M20 596h207l-180 -318h163l218 419l-408 1v-102z" />
    <glyph glyph-name="uni2078" unicode="&#x2078;" 
d="M122 500q-39 12 -62.5 35.5t-23.5 52.5q0 60 59.5 88.5t154.5 28.5q99 0 157 -28.5t58 -88.5q0 -29 -24 -52.5t-63 -35.5v-4q98 -30 98 -113q0 -60 -65.5 -88t-160.5 -28q-43 0 -81.5 6t-72 19t-53 36.5t-19.5 54.5q0 83 98 113v4zM250 530q70 0 70 36q0 39 -70 39
q-73 0 -73 -39q0 -36 73 -36zM250 372q75 0 75 41q0 38 -75 38q-76 0 -76 -38q0 -41 76 -41z" />
    <glyph glyph-name="uni2079" unicode="&#x2079;" 
d="M234 268q-86 0 -138 26.5t-67 93.5h146q14 -24 57 -24q49 0 74.5 31.5t29.5 73.5l-9 2q-44 -50 -126 -50q-173 0 -173 136q0 77 55.5 112t166.5 35q221 0 221 -207q0 -102 -60 -165.5t-177 -63.5zM251 517q75 0 75 41q0 39 -75 39q-77 0 -77 -39q0 -41 77 -41z" />
    <glyph glyph-name="uni2080" unicode="&#x2080;" 
d="M27 209q0 113 54.5 166.5t168.5 53.5t168.5 -53.5t54.5 -166.5q0 -112 -54.5 -166t-168.5 -54q-115 0 -169 53.5t-54 166.5zM172 209q0 -63 16.5 -88t61.5 -25t61.5 25.5t16.5 87.5q0 63 -16.5 88.5t-61.5 25.5t-61.5 -25.5t-16.5 -88.5z" />
    <glyph glyph-name="uni2081" unicode="&#x2081;" horiz-adv-x="392" 
d="M206 420h121v-420h-138v329l-153 -47l-1 89z" />
    <glyph glyph-name="uni2082" unicode="&#x2082;" 
d="M31 281q14 68 74 105.5t157 37.5q209 0 209 -153q0 -28 -8.5 -48.5t-19.5 -33t-37.5 -24.5t-45.5 -17.5t-61 -17.5q-77 -21 -116 -34l4 -10q71 18 190 18h76v-104h-421q-3 20 -3 48q0 31 16 55t52.5 42.5t57 26t67.5 21.5l3 1.5t3 1t3 0.5q8 2 27 6.5t27.5 8t20 10.5
t16 18.5t4.5 28.5q0 49 -66 49q-70 0 -80 -36h-149z" />
    <glyph glyph-name="uni2083" unicode="&#x2083;" 
d="M263 -10q-96 0 -144 21q-77 35 -95 123h153q7 -33 86 -33q70 0 70 35q0 21 -21 27.5t-61 6.5h-65l26 88h58q56 0 56 35q0 38 -63 38q-67 0 -80 -38h-147q30 134 228 134q101 0 152.5 -32.5t51.5 -86.5q0 -32 -17 -50.5t-51 -30.5v-7q79 -25 79 -99q0 -60 -56.5 -95.5
t-159.5 -35.5z" />
    <glyph glyph-name="uni2084" unicode="&#x2084;" 
d="M416 184h84l-23 -85h-61v-99h-140v99h-269v60l193 260h216v-235zM147 184h129v174z" />
    <glyph glyph-name="uni2085" unicode="&#x2085;" 
d="M199 242q21 15 53 23.5t55 8.5q83 0 128.5 -30.5t45.5 -105.5q0 -66 -49.5 -107t-165.5 -41q-206 0 -242 144h154q5 -36 87 -36q70 0 70 40t-72 40q-59 0 -95 -24l-108 64l62 201h353l-32 -105h-218l-33 -67z" />
    <glyph glyph-name="uni2086" unicode="&#x2086;" 
d="M249 -10q-220 0 -220 206q0 95 60 163t177 68q178 0 205 -120h-146q-13 24 -58 24q-49 0 -75 -32t-28 -74l9 -2q18 21 51 36t72 15q176 0 176 -137q0 -76 -56 -111.5t-167 -35.5zM249 98q77 0 77 39q0 41 -77 41q-75 0 -75 -41q0 -39 75 -39z" />
    <glyph glyph-name="uni2087" unicode="&#x2087;" horiz-adv-x="423" 
d="M20 318h207l-180 -318h163l218 419l-408 1v-102z" />
    <glyph glyph-name="uni2088" unicode="&#x2088;" 
d="M122 222q-39 12 -62.5 35.5t-23.5 52.5q0 60 59.5 88.5t154.5 28.5q99 0 157 -28.5t58 -88.5q0 -29 -24 -52.5t-63 -35.5v-4q98 -30 98 -113q0 -60 -65.5 -88t-160.5 -28q-43 0 -81.5 6t-72 19t-53 36.5t-19.5 54.5q0 83 98 113v4zM250 252q70 0 70 36q0 39 -70 39
q-73 0 -73 -39q0 -36 73 -36zM250 94q75 0 75 41q0 38 -75 38q-76 0 -76 -38q0 -41 76 -41z" />
    <glyph glyph-name="uni2089" unicode="&#x2089;" 
d="M234 -10q-86 0 -138 26.5t-67 93.5h146q14 -24 57 -24q49 0 74.5 31.5t29.5 73.5l-9 2q-44 -50 -126 -50q-173 0 -173 136q0 77 55.5 112t166.5 35q221 0 221 -207q0 -102 -60 -165.5t-177 -63.5zM251 239q75 0 75 41q0 39 -75 39q-77 0 -77 -39q0 -41 77 -41z" />
    <glyph glyph-name="Euro" unicode="&#x20ac;" horiz-adv-x="755" 
d="M548 195h193q-46 -210 -310 -210q-271 0 -324 233h-96v90h85q-1 10 -1 30q0 22 1 32h-85v90h96q26 123 108.5 186.5t216.5 63.5q268 0 308 -211h-191q-11 39 -38.5 56.5t-78.5 17.5q-105 0 -133 -113h211l-44 -90h-178q-1 -10 -1 -32q0 -20 1 -30h161l-43 -90h-104
q31 -95 130 -95q55 0 79 15t37 57z" />
    <glyph glyph-name="uni20B4" unicode="&#x20b4;" horiz-adv-x="753" 
d="M692 459v-80h-658v80h431q24 11 24 45q0 71 -97 71q-64 0 -94.5 -15.5t-45.5 -45.5h-193q32 104 113 151t220 47q124 2 199.5 -44t75.5 -139q0 -37 -31 -70h56zM502 189h195q-25 -101 -100.5 -153t-235.5 -52q-152 0 -221 45t-69 132q0 43 26 76h-63v80h660v-80h-423
q-17 -15 -17 -45q0 -66 109 -66q131 0 139 63z" />
    <glyph glyph-name="uni20BD" unicode="&#x20bd;" horiz-adv-x="770" 
d="M464 251h-151v-62h291v-90h-291v-99h-184v99h-102v90h102v62h-102v90h102v357h352q122 0 185 -53.5t63 -172.5q0 -123 -68.5 -172t-196.5 -49zM460 558h-147v-172h147q82 0 82 86t-82 86z" />
    <glyph glyph-name="uni20BF" unicode="&#x20bf;" horiz-adv-x="714" 
d="M681 204q0 -189 -213 -203v-79h-90v78h-62v-78h-90v78h-150v684h150v78h90v-78h62v78h90v-79q106 -7 152.5 -47.5t46.5 -122.5q0 -98 -100 -143v-9q114 -36 114 -157zM488 482q0 36 -16.5 52.5t-54.5 16.5h-161v-136h161q38 0 54.5 16.5t16.5 50.5zM425 141q72 0 72 72
q0 34 -16 52.5t-56 18.5h-169v-143h169z" />
    <glyph glyph-name="uni2116" unicode="&#x2116;" horiz-adv-x="1317" 
d="M811 492q0 113 54.5 166.5t168.5 53.5t168.5 -53.5t54.5 -166.5q0 -112 -54.5 -166t-168.5 -54q-115 0 -169 53.5t-54 166.5zM80 0v698h330q93 -398 109 -461q18 -76 30 -147h23v608h173v-698h-329q-21 83 -57 237.5t-53 222.5q-17 73 -30 148h-23v-608h-173zM956 492
q0 -63 16.5 -88t61.5 -25t61.5 25.5t16.5 87.5q0 63 -17 88.5t-61 25.5q-45 0 -61.5 -25.5t-16.5 -88.5z" />
    <glyph glyph-name="trademark" unicode="&#x2122;" horiz-adv-x="794" 
d="M0 623v75h293v-75h-95v-220h-102v220h-96zM332 403v295h174q5 -39 30 -252h15q4 28 14.5 117.5t16.5 134.5h173v-295h-90v252h-13q-1 -6 -6 -49t-12.5 -98.5t-16.5 -104.5h-147q-30 182 -35 252h-13v-252h-90z" />
    <glyph glyph-name="oneeighth" unicode="&#x215b;" horiz-adv-x="1110" 
d="M327 278h-138v329l-153 -47l-1 89l171 49h121v-420zM690 698h113l-491 -698h-113zM988 218q98 -30 98 -113q0 -60 -65.5 -88t-160.5 -28q-43 0 -81.5 6t-72 19t-53 36.5t-19.5 54.5q0 83 98 113v4q-39 12 -62.5 35.5t-23.5 52.5q0 60 59.5 88.5t154.5 28.5
q99 0 157 -28.5t58 -88.5q0 -29 -24 -52.5t-63 -35.5v-4zM860 327q-73 0 -73 -39q0 -36 73 -36q70 0 70 36q0 39 -70 39zM860 94q75 0 75 41q0 38 -75 38q-76 0 -76 -38q0 -41 76 -41z" />
    <glyph glyph-name="threeeighths" unicode="&#x215c;" horiz-adv-x="1218" 
d="M263 268q-96 0 -144 21q-77 35 -95 123h153q7 -33 86 -33q70 0 70 35q0 21 -21 27.5t-61 6.5h-65l26 88h58q56 0 56 35q0 38 -63 38q-67 0 -80 -38h-147q30 134 228 134q101 0 152.5 -32.5t51.5 -86.5q0 -32 -17 -50.5t-51 -30.5v-7q79 -25 79 -99q0 -60 -56.5 -95.5
t-159.5 -35.5zM307 0l491 698h113l-491 -698h-113zM840 222q-39 12 -62.5 35.5t-23.5 52.5q0 60 59.5 88.5t154.5 28.5q99 0 157 -28.5t58 -88.5q0 -29 -24 -52.5t-63 -35.5v-4q98 -30 98 -113q0 -60 -65.5 -88t-160.5 -28q-43 0 -81.5 6t-72 19t-53 36.5t-19.5 54.5
q0 83 98 113v4zM968 252q70 0 70 36q0 39 -70 39q-73 0 -73 -39q0 -36 73 -36zM968 94q75 0 75 41q0 38 -75 38q-76 0 -76 -38q0 -41 76 -41z" />
    <glyph glyph-name="fiveeighths" unicode="&#x215d;" horiz-adv-x="1218" 
d="M307 0l491 698h113l-491 -698h-113zM199 520q21 15 53 23.5t55 8.5q83 0 128.5 -30.5t45.5 -105.5q0 -66 -49.5 -107t-165.5 -41q-206 0 -242 144h154q5 -36 87 -36q70 0 70 40t-72 40q-59 0 -95 -24l-108 64l62 201h353l-32 -105h-218l-33 -67zM840 222
q-39 12 -62.5 35.5t-23.5 52.5q0 60 59.5 88.5t154.5 28.5q99 0 157 -28.5t58 -88.5q0 -29 -24 -52.5t-63 -35.5v-4q98 -30 98 -113q0 -60 -65.5 -88t-160.5 -28q-43 0 -81.5 6t-72 19t-53 36.5t-19.5 54.5q0 83 98 113v4zM968 252q70 0 70 36q0 39 -70 39q-73 0 -73 -39
q0 -36 73 -36zM968 94q75 0 75 41q0 38 -75 38q-76 0 -76 -38q0 -41 76 -41z" />
    <glyph glyph-name="seveneighths" unicode="&#x215e;" horiz-adv-x="1141" 
d="M20 596h207l-180 -318h163l218 419l-408 1v-102zM230 0l491 698h113l-491 -698h-113zM763 222q-39 12 -62.5 35.5t-23.5 52.5q0 60 59.5 88.5t154.5 28.5q99 0 157 -28.5t58 -88.5q0 -29 -24 -52.5t-63 -35.5v-4q98 -30 98 -113q0 -60 -65.5 -88t-160.5 -28
q-43 0 -81.5 6t-72 19t-53 36.5t-19.5 54.5q0 83 98 113v4zM891 252q70 0 70 36q0 39 -70 39q-73 0 -73 -39q0 -36 73 -36zM891 94q75 0 75 41q0 38 -75 38q-76 0 -76 -38q0 -41 76 -41z" />
    <glyph glyph-name="arrowleft" unicode="&#x2190;" horiz-adv-x="1000" 
d="M29 365l452 362v-232l-231 -79v-17q241 20 701 40v-212q-371 16 -701 38v-15l231 -79v-232l-452 362v64z" />
    <glyph glyph-name="arrowup" unicode="&#x2191;" horiz-adv-x="1000" 
d="M526 800l362 -452h-232l-79 231h-17q20 -241 40 -701h-212q16 371 38 701h-15l-79 -231h-232l362 452h64z" />
    <glyph glyph-name="arrowright" unicode="&#x2192;" horiz-adv-x="1000" 
d="M972 295l-452 -362v232l231 79v17q-241 -20 -701 -40v212q371 -16 701 -38v15l-231 79v232l452 -362v-64z" />
    <glyph glyph-name="arrowdown" unicode="&#x2193;" horiz-adv-x="1000" 
d="M467 -124l-362 452h232l79 -231h17q-20 241 -40 701h212q-16 -371 -38 -701h15l79 231h232l-362 -452h-64z" />
    <glyph glyph-name="uni2196" unicode="&#x2196;" horiz-adv-x="1000" 
d="M119 691l46 45l575 -63l-164 -165l-219 108l-11 -11q257 -225 523 -468l-150 -150q-322 353 -467 524l-13 -12l108 -220l-164 -164z" />
    <glyph glyph-name="uni2197" unicode="&#x2197;" horiz-adv-x="1000" 
d="M879 707l-64 -576l-164 164l108 220l-13 12q-145 -171 -467 -524l-150 150q266 243 523 468l-11 11l-219 -108l-164 165l575 63z" />
    <glyph glyph-name="uni2198" unicode="&#x2198;" horiz-adv-x="1000" 
d="M835 -43l-576 64l164 164l220 -108l12 13q-171 145 -524 467l150 150q243 -266 468 -523l11 11l-108 219l165 164l63 -575z" />
    <glyph glyph-name="uni2199" unicode="&#x2199;" horiz-adv-x="1000" 
d="M123 -1l64 576l164 -164l-108 -220l13 -12q145 171 467 524l150 -150q-266 -243 -523 -468l11 -11l219 108l164 -165l-575 -63z" />
    <glyph glyph-name="product" unicode="&#x220f;" horiz-adv-x="912" 
d="M902 698v-162h-114v-731h-194v731h-276v-731h-194v731h-114v162h892z" />
    <glyph glyph-name="summation" unicode="&#x2211;" horiz-adv-x="732" 
d="M93 -195l-1 147l360 315l-374 283v147l557 1v-162h-289l283 -217v-101l-293 -252h309v-161h-552z" />
    <glyph glyph-name="minus" unicode="&#x2212;" horiz-adv-x="600" 
d="M83 254v118h434v-118h-434z" />
    <glyph glyph-name="radical" unicode="&#x221a;" horiz-adv-x="604" 
d="M447 698h169l-136 -698h-292l-51 381h-137v148h280l53 -429z" />
    <glyph glyph-name="approxequal" unicode="&#x2248;" horiz-adv-x="600" 
d="M98 314q-5 33 -5 58q0 134 128 134q38 0 68.5 -12.5t52.5 -25t41 -12.5q38 1 38 46q0 11 -3 29h114q5 -32 5 -57q0 -135 -129 -135q-53 0 -97.5 26t-64.5 24q-38 -4 -38 -46q0 -11 3 -29h-113zM97 94q-5 33 -5 58q0 134 128 134q38 0 68.5 -12.5t52.5 -25t41 -12.5
q38 1 38 46q0 11 -3 29h114q5 -32 5 -57q0 -135 -129 -135q-53 0 -97.5 26t-64.5 24q-38 -4 -38 -46q0 -11 3 -29h-113z" />
    <glyph glyph-name="notequal" unicode="&#x2260;" horiz-adv-x="600" 
d="M517 267v-118h-282l-63 -109h-98l63 109h-53v118h121l54 92h-176v118h244l63 109h98l-63 -109h91v-118h-159l-54 -92h214z" />
    <glyph glyph-name="lessequal" unicode="&#x2264;" horiz-adv-x="600" 
d="M499 129l-377 228v71l377 228l57 -127l-230 -136l230 -137zM432 -21l-314 199v128l362 -220z" />
    <glyph glyph-name="greaterequal" unicode="&#x2265;" horiz-adv-x="600" 
d="M175 129l-57 127l230 137l-230 136l57 127l377 -228v-71zM242 -21l-48 107l362 220v-128z" />
    <glyph glyph-name="lozenge" unicode="&#x25ca;" horiz-adv-x="600" 
d="M52 277l258 409l258 -407l-258 -409zM168 278l142 -239l142 239l-142 239z" />
    <glyph glyph-name="i.loclTRK" horiz-adv-x="340" 
d="M71 675q0 84 99 84t99 -84t-99 -84t-99 84zM80 0v534h180v-534h-180z" />
    <glyph glyph-name="zero.tf" horiz-adv-x="700" 
d="M24 348q0 189 79 277t248 88q170 0 249 -88t79 -277t-79.5 -277.5t-248.5 -88.5t-248 88.5t-79 277.5zM214 348q0 -124 30 -171.5t107 -47.5t107 47.5t30 171.5t-30 171.5t-107 47.5t-107 -47.5t-30 -171.5z" />
    <glyph glyph-name="one.tf" horiz-adv-x="700" 
d="M456 130h196v-130h-586v130h208v432l-239 -84l-1 129l267 91h155v-568z" />
    <glyph glyph-name="two.tf" horiz-adv-x="700" 
d="M27 475q22 111 108.5 171t229.5 60q308 0 308 -244q0 -50 -12 -87.5t-32 -62t-54 -44.5t-70 -34.5t-88 -32.5q-2 0 -3.5 -0.5t-3.5 -1.5q-155 -53 -180 -65l3 -11q57 13 137.5 21t128.5 8h148v-152h-617q-4 27 -4 71q0 37 19 70.5t40 54t67.5 44.5t68 33t75.5 29
q6 2 9 3.5t8 3.5t9 3q12 5 39.5 14.5t39.5 14t31 16t27 23.5t15 32t7 46q0 101 -118 101q-121 0 -139 -84h-197z" />
    <glyph glyph-name="three.tf" horiz-adv-x="700" 
d="M368 -16q-142 0 -218 40q-109 58 -132 195h201q12 -84 149 -84q58 0 90 22t32 62q0 45 -30 61.5t-98 16.5h-105l34 123h92q97 0 97 75q0 82 -111 82q-121 0 -141 -83h-193q45 217 335 217q147 0 222 -52.5t75 -145.5q0 -95 -100 -136v-10q59 -17 87 -63t28 -102
q0 -101 -82 -159.5t-232 -58.5z" />
    <glyph glyph-name="four.tf" horiz-adv-x="700" 
d="M2 172v85l301 441h291v-406h128l-33 -120h-95v-172h-183v172h-409zM405 611l-214 -319h220v318z" />
    <glyph glyph-name="five.tf" horiz-adv-x="700" 
d="M238 397q72 55 181 55q249 0 249 -226q0 -242 -314 -242q-133 0 -216 45q-110 58 -136 190h202q4 -39 35 -58q36 -24 113 -24q124 0 124 89t-124 89q-97 0 -153 -48l-146 90l94 341h516l-42 -146h-340l-50 -153z" />
    <glyph glyph-name="six.tf" horiz-adv-x="700" 
d="M352 -16q-170 0 -247 84t-77 252q0 176 86 283t261 107q126 0 201 -45t97 -150h-192q-22 61 -104 61q-83 0 -125 -59.5t-46 -150.5l12 -2q65 88 199 88q258 0 258 -227q0 -123 -80.5 -182t-242.5 -59zM352 135q68 0 99.5 22t31.5 68q0 49 -31 71t-100 22q-131 0 -131 -93
q0 -90 131 -90z" />
    <glyph glyph-name="seven.tf" horiz-adv-x="700" 
d="M38 556h328l-283 -556h212l335 696l-592 2v-142z" />
    <glyph glyph-name="eight.tf" horiz-adv-x="700" 
d="M141 371q-56 21 -89.5 60t-33.5 87q0 101 85.5 148.5t226.5 47.5q146 0 229.5 -47.5t83.5 -148.5q0 -48 -33.5 -87.5t-90.5 -59.5v-6q141 -49 141 -186q0 -53 -27.5 -92.5t-75.5 -62t-105 -33t-122 -10.5q-88 0 -159 18t-121 64t-50 116q0 134 141 186v6zM330 412
q123 0 123 81q0 83 -123 83q-126 0 -126 -83q0 -81 126 -81zM330 126q133 0 133 88q0 42 -29.5 65t-103.5 23q-133 0 -133 -88t133 -88z" />
    <glyph glyph-name="nine.tf" horiz-adv-x="700" 
d="M315 -16q-126 0 -201 45t-97 150h192q11 -32 34.5 -46.5t69.5 -14.5q84 0 125.5 60.5t45.5 149.5l-12 2q-65 -88 -199 -88q-258 0 -258 227q0 123 80.5 182t242.5 59q170 0 247 -84t77 -252q0 -180 -86 -285t-261 -105zM338 376q131 0 131 93q0 90 -131 90
q-68 0 -99.5 -22t-31.5 -68q0 -49 31 -71t100 -22z" />
    <glyph glyph-name="zero.dnom" 
d="M27 209q0 113 54.5 166.5t168.5 53.5t168.5 -53.5t54.5 -166.5q0 -112 -54.5 -166t-168.5 -54q-115 0 -169 53.5t-54 166.5zM172 209q0 -63 16.5 -88t61.5 -25t61.5 25.5t16.5 87.5q0 63 -16.5 88.5t-61.5 25.5t-61.5 -25.5t-16.5 -88.5z" />
    <glyph glyph-name="one.dnom" horiz-adv-x="392" 
d="M206 420h121v-420h-138v329l-153 -47l-1 89z" />
    <glyph glyph-name="two.dnom" 
d="M31 281q14 68 74 105.5t157 37.5q209 0 209 -153q0 -28 -8.5 -48.5t-19.5 -33t-37.5 -24.5t-45.5 -17.5t-61 -17.5q-77 -21 -116 -34l4 -10q71 18 190 18h76v-104h-421q-3 20 -3 48q0 31 16 55t52.5 42.5t57 26t67.5 21.5l3 1.5t3 1t3 0.5q8 2 27 6.5t27.5 8t20 10.5
t16 18.5t4.5 28.5q0 49 -66 49q-70 0 -80 -36h-149z" />
    <glyph glyph-name="three.dnom" 
d="M263 -10q-96 0 -144 21q-77 35 -95 123h153q7 -33 86 -33q70 0 70 35q0 21 -21 27.5t-61 6.5h-65l26 88h58q56 0 56 35q0 38 -63 38q-67 0 -80 -38h-147q30 134 228 134q101 0 152.5 -32.5t51.5 -86.5q0 -32 -17 -50.5t-51 -30.5v-7q79 -25 79 -99q0 -60 -56.5 -95.5
t-159.5 -35.5z" />
    <glyph glyph-name="four.dnom" 
d="M416 184h84l-23 -85h-61v-99h-140v99h-269v60l193 260h216v-235zM147 184h129v174z" />
    <glyph glyph-name="five.dnom" 
d="M199 242q21 15 53 23.5t55 8.5q83 0 128.5 -30.5t45.5 -105.5q0 -66 -49.5 -107t-165.5 -41q-206 0 -242 144h154q5 -36 87 -36q70 0 70 40t-72 40q-59 0 -95 -24l-108 64l62 201h353l-32 -105h-218l-33 -67z" />
    <glyph glyph-name="six.dnom" 
d="M249 -10q-220 0 -220 206q0 95 60 163t177 68q178 0 205 -120h-146q-13 24 -58 24q-49 0 -75 -32t-28 -74l9 -2q18 21 51 36t72 15q176 0 176 -137q0 -76 -56 -111.5t-167 -35.5zM249 98q77 0 77 39q0 41 -77 41q-75 0 -75 -41q0 -39 75 -39z" />
    <glyph glyph-name="seven.dnom" horiz-adv-x="423" 
d="M20 318h207l-180 -318h163l218 419l-408 1v-102z" />
    <glyph glyph-name="eight.dnom" 
d="M122 222q-39 12 -62.5 35.5t-23.5 52.5q0 60 59.5 88.5t154.5 28.5q99 0 157 -28.5t58 -88.5q0 -29 -24 -52.5t-63 -35.5v-4q98 -30 98 -113q0 -60 -65.5 -88t-160.5 -28q-43 0 -81.5 6t-72 19t-53 36.5t-19.5 54.5q0 83 98 113v4zM250 252q70 0 70 36q0 39 -70 39
q-73 0 -73 -39q0 -36 73 -36zM250 94q75 0 75 41q0 38 -75 38q-76 0 -76 -38q0 -41 76 -41z" />
    <glyph glyph-name="nine.dnom" 
d="M234 -10q-86 0 -138 26.5t-67 93.5h146q14 -24 57 -24q49 0 74.5 31.5t29.5 73.5l-9 2q-44 -50 -126 -50q-173 0 -173 136q0 77 55.5 112t166.5 35q221 0 221 -207q0 -102 -60 -165.5t-177 -63.5zM251 239q75 0 75 41q0 39 -75 39q-77 0 -77 -39q0 -41 77 -41z" />
    <glyph glyph-name="zero.numr" 
d="M27 487q0 113 54.5 166.5t168.5 53.5t168.5 -53.5t54.5 -166.5q0 -112 -54.5 -166t-168.5 -54q-115 0 -169 53.5t-54 166.5zM172 487q0 -63 16.5 -88t61.5 -25t61.5 25.5t16.5 87.5q0 63 -16.5 88.5t-61.5 25.5t-61.5 -25.5t-16.5 -88.5z" />
    <glyph glyph-name="one.numr" horiz-adv-x="392" 
d="M206 698h121v-420h-138v329l-153 -47l-1 89z" />
    <glyph glyph-name="two.numr" 
d="M31 559q14 68 74 105.5t157 37.5q209 0 209 -153q0 -28 -8.5 -48.5t-19.5 -33t-37.5 -24.5t-45.5 -17.5t-61 -17.5q-77 -21 -116 -34l4 -10q71 18 190 18h76v-104h-421q-3 20 -3 48q0 31 16 55t52.5 42.5t57 26t67.5 21.5l9 3q8 2 27 6.5t27.5 8t20 10.5t16 18.5
t4.5 28.5q0 49 -66 49q-70 0 -80 -36h-149z" />
    <glyph glyph-name="three.numr" 
d="M263 268q-96 0 -144 21q-77 35 -95 123h153q7 -33 86 -33q70 0 70 35q0 21 -21 27.5t-61 6.5h-65l26 88h58q56 0 56 35q0 38 -63 38q-67 0 -80 -38h-147q30 134 228 134q101 0 152.5 -32.5t51.5 -86.5q0 -32 -17 -50.5t-51 -30.5v-7q79 -25 79 -99q0 -60 -56.5 -95.5
t-159.5 -35.5z" />
    <glyph glyph-name="four.numr" 
d="M416 462h84l-23 -85h-61v-99h-140v99h-269v60l193 260h216v-235zM147 462h129v174z" />
    <glyph glyph-name="five.numr" 
d="M199 520q21 15 53 23.5t55 8.5q83 0 128.5 -30.5t45.5 -105.5q0 -66 -49.5 -107t-165.5 -41q-206 0 -242 144h154q5 -36 87 -36q70 0 70 40t-72 40q-59 0 -95 -24l-108 64l62 201h353l-32 -105h-218l-33 -67z" />
    <glyph glyph-name="six.numr" 
d="M249 268q-220 0 -220 206q0 95 60 163t177 68q178 0 205 -120h-146q-13 24 -58 24q-49 0 -75 -32t-28 -74l9 -2q18 21 51 36t72 15q176 0 176 -137q0 -76 -56 -111.5t-167 -35.5zM249 376q77 0 77 39q0 41 -77 41q-75 0 -75 -41q0 -39 75 -39z" />
    <glyph glyph-name="seven.numr" horiz-adv-x="423" 
d="M20 596h207l-180 -318h163l218 419l-408 1v-102z" />
    <glyph glyph-name="eight.numr" 
d="M122 500q-39 12 -62.5 35.5t-23.5 52.5q0 60 59.5 88.5t154.5 28.5q99 0 157 -28.5t58 -88.5q0 -29 -24 -52.5t-63 -35.5v-4q98 -30 98 -113q0 -60 -65.5 -88t-160.5 -28q-43 0 -81.5 6t-72 19t-53 36.5t-19.5 54.5q0 83 98 113v4zM250 530q70 0 70 36q0 39 -70 39
q-73 0 -73 -39q0 -36 73 -36zM250 372q75 0 75 41q0 38 -75 38q-76 0 -76 -38q0 -41 76 -41z" />
    <glyph glyph-name="nine.numr" 
d="M234 268q-86 0 -138 26.5t-67 93.5h146q14 -24 57 -24q49 0 74.5 31.5t29.5 73.5l-9 2q-44 -50 -126 -50q-173 0 -173 136q0 77 55.5 112t166.5 35q221 0 221 -207q0 -102 -60 -165.5t-177 -63.5zM251 517q75 0 75 41q0 39 -75 39q-77 0 -77 -39q0 -41 77 -41z" />
    <glyph glyph-name="brevecombcy" horiz-adv-x="0" 
d="M-193 614q-121 0 -185.5 34.5t-64.5 120.5h169q0 -38 16.5 -55.5t64.5 -17.5t64 17.5t16 55.5h171q0 -86 -65 -120.5t-186 -34.5z" />
    <glyph glyph-name="brevecy" horiz-adv-x="835" 
d="M417 740q-117 0 -178.5 35.5t-61.5 119.5h159q0 -38 16.5 -55.5t64.5 -17.5t64 17.5t16 55.5h161q0 -84 -61.5 -119.5t-179.5 -35.5z" />
    <glyph glyph-name="Tenge.sign" horiz-adv-x="600" 
 />
    </font>
</defs>
</svg>
